SplineFontDB: 3.0
FontName: Vinron-Oblique
FullName: Vinron Oblique
FamilyName: Vinron
Weight: Italic
Copyright: Copyright (c) 2018, Jeong-il Seok
UComments: "2018-2-18: Created with FontForge (http://fontforge.org)"
Version: 1.001
ItalicAngle: -11
UnderlinePosition: -200
UnderlineWidth: 100
Ascent: 800
Descent: 200
InvalidEm: 0
LayerCount: 2
Layer: 0 0 "+tLe6dAAA" 1
Layer: 1 0 "+xV66dAAA" 0
PreferredKerning: 4
XUID: [1021 752 363211294 2835]
StyleMap: 0x0001
FSType: 0
OS2Version: 0
OS2_WeightWidthSlopeOnly: 0
OS2_UseTypoMetrics: 1
CreationTime: 1518945957
ModificationTime: 1526087002
PfmFamily: 33
TTFWeight: 400
TTFWidth: 5
LineGap: 90
VLineGap: 0
OS2TypoAscent: 0
OS2TypoAOffset: 1
OS2TypoDescent: 0
OS2TypoDOffset: 1
OS2TypoLinegap: 90
OS2WinAscent: 0
OS2WinAOffset: 1
OS2WinDescent: 0
OS2WinDOffset: 1
HheadAscent: 0
HheadAOffset: 1
HheadDescent: 0
HheadDOffset: 1
OS2Vendor: 'PfEd'
Lookup: 4 0 0 "+x4THWMCsxqkA +1WnHTMeQ" { "+x4THWMCsxqkA +1WnHTMeQ"  } ['dlig' ('DFLT' <'dflt' > 'latn' <'dflt' > ) ]
Lookup: 4 0 1 "Base ligature" { "about f"  } ['liga' ('DFLT' <'dflt' > 'grek' <'dflt' > 'latn' <'dflt' > ) ]
Lookup: 258 0 0 "Kerning" { "Latin Capital" [150,15,0] "Latin Small" [150,15,0] "Special" [153,15,0] } ['kern' ('DFLT' <'dflt' > 'cans' <'dflt' > 'latn' <'dflt' > ) ]
MarkAttachClasses: 1
DEI: 91125
KernClass2: 7 20 "Special"
 5 space
 20 quotedbl quotesingle
 6 exclam
 8 question
 10 asciitilde
 12 comma period
 41 f t longs f_f f_i f_l f_f_i f_f_l longs_t
 354 B D E F H I K L M N P R b h i k l p Egrave Eacute Ecircumflex Edieresis Igrave Iacute Icircumflex Idieresis Ntilde Dcaron Emacron Ebreve Edotaccent Ecaron Hcircumflex hcircumflex Imacron Ibreve Idotaccent IJ ij Kcommaaccent kcommaaccent Lacute lacute Lcommaaccent lcommaaccent Lcaron lcaron Ldot ldot Nacute Ncommaaccent Ncaron Racute Rcommaaccent Rcaron

StartChar: exclam
Encoding: 33 33 0
GlifName: exclam
Width: 260
Flags: W
HStem: 0 90<107 170> 700 20G<216.074 320>
VStem: 90 80<0 80> 107 80<10 90> 143 40<170 193.333> 220 100<620 720>
DStem2: 90 0 170 0 0.190809 0.981627<15.2647 91.5902 429.109 731.577>
LayerCount: 2
Fore
SplineSet
90 0 m 1xe4
 107 90 l 1
 187 90 l 1xd4
 170 0 l 1
 90 0 l 1xe4
167 450 m 1
 220 720 l 1
 320 720 l 1
 267 450 l 1
 183 170 l 1
 143 170 l 1xcc
 167 450 l 1
EndSplineSet
Validated: 1
EndChar

StartChar: quotesingle
Encoding: 39 39 1
GlifName: quotesingle
Width: 240
Flags: W
HStem: 500 220<220 257>
VStem: 177 80<500 580> 220 80<640 720>
DStem2: 177 500 257 500 0.190809 0.981627<15.2647 224.163>
LayerCount: 2
Fore
SplineSet
177 500 m 1xc0
 220 720 l 1
 300 720 l 1xa0
 257 500 l 1
 177 500 l 1xc0
EndSplineSet
Validated: 1
EndChar

StartChar: quotedbl
Encoding: 34 34 2
GlifName: quotedbl
Width: 300
Flags: W
HStem: 500 220<220 257 360 397>
VStem: 177 80<500 580> 220 80<640 720> 317 80<500 580> 360 80<640 720>
DStem2: 177 500 257 500 0.190809 0.981627<15.2647 224.163> 317 500 397 500 0.190809 0.981627<15.2647 224.163>
LayerCount: 2
Fore
SplineSet
177 500 m 1xc0
 220 720 l 1
 300 720 l 1xa0
 257 500 l 1
 177 500 l 1xc0
317 500 m 1x90
 360 720 l 1
 440 720 l 1x88
 397 500 l 1
 317 500 l 1x90
EndSplineSet
Validated: 1
EndChar

StartChar: A
Encoding: 65 65 3
GlifName: A_
Width: 660
VWidth: 0
Flags: W
HStem: 0 21G<20 114.959 552.804 640> 219 72<263 510> 700 20G<405 527.222>
VStem: 556 84<0 84>
DStem2: 20 0 104 0 0.481919 0.876216<40.4812 290.203 372.085 772.165> 524 720 455 642 0.15906 -0.987269<66.0318 421.312 494.145 715.924>
LayerCount: 2
Fore
SplineSet
104 0 m 1
 20 0 l 1
 416 720 l 1
 524 720 l 1
 640 0 l 1
 556 0 l 1
 521 219 l 1
 224 219 l 1
 104 0 l 1
510 291 m 1
 455 642 l 1
 263 291 l 1
 510 291 l 1
EndSplineSet
Validated: 1
EndChar

StartChar: D
Encoding: 68 68 4
GlifName: D_
Width: 720
VWidth: 0
Flags: W
HStem: 0 72<178 468.75> 648 72<290 580.084>
VStem: 674 85<304.923 550.918>
DStem2: 80 0 164.005 0 0.190809 0.981627<89.3764 676.164>
LayerCount: 2
Fore
SplineSet
178 72 m 1
 370 72 l 2
 548 72 674 238 674 441 c 0
 674 561 614 648 482 648 c 2
 290 648 l 1
 178 72 l 1
80 0 m 1
 220 720 l 1
 500 720 l 2
 669 720 759 605 759 449 c 0
 759 198 579 0 360 0 c 2
 80 0 l 1
EndSplineSet
Validated: 1
EndChar

StartChar: E
Encoding: 69 69 5
GlifName: E_
Width: 620
VWidth: 0
Flags: W
HStem: 0 72<178 600> 324 72<241 633> 648 72<290 726>
DStem2: 80 0 164.005 0 0.190809 0.981627<89.3764 346.096 419.445 676.164>
CounterMasks: 1 e0
LayerCount: 2
Fore
SplineSet
80 0 m 1
 220 720 l 1
 740 720 l 1
 726 648 l 1
 290 648 l 1
 241 396 l 1
 647 396 l 1
 633 324 l 1
 227 324 l 1
 178 72 l 1
 614 72 l 1
 600 0 l 1
 80 0 l 1
EndSplineSet
Validated: 1
EndChar

StartChar: F
Encoding: 70 70 6
GlifName: F_
Width: 620
VWidth: 0
Flags: W
HStem: 0 21G<80 167.889> 324 72<241 633> 648 72<290 726>
VStem: 80 84<0 84>
DStem2: 80 0 164 0 0.190809 0.981627<16.028 346.096 419.445 676.164>
LayerCount: 2
Fore
SplineSet
80 0 m 1
 220 720 l 1
 740 720 l 1
 726 648 l 1
 290 648 l 1
 241 396 l 1
 647 396 l 1
 633 324 l 1
 227 324 l 1
 164 0 l 1
 80 0 l 1
EndSplineSet
Validated: 1
EndChar

StartChar: H
Encoding: 72 72 7
GlifName: H_
Width: 720
VWidth: 0
Flags: W
HStem: 0 21G<80 167.889 556 643.889> 324 72<241 619> 700 20G<216.111 304 692.111 780>
VStem: 80 84<0 84> 220 84<636 720> 556 84<0 84> 696 84<636 720>
DStem2: 80 0 164 0 0.190809 0.981627<16.028 346.096 419.445 733.485> 556 0 640 0 0.190809 0.981627<16.028 330.068 403.417 733.485>
LayerCount: 2
Fore
SplineSet
80 0 m 1
 220 720 l 1
 304 720 l 1
 241 396 l 1
 633 396 l 1
 696 720 l 1
 780 720 l 1
 640 0 l 1
 556 0 l 1
 619 324 l 1
 227 324 l 1
 164 0 l 1
 80 0 l 1
EndSplineSet
Validated: 1
EndChar

StartChar: I
Encoding: 73 73 8
GlifName: I_
Width: 240
VWidth: 0
Flags: W
HStem: 0 21G<78 165.889> 700 20G<214.111 302>
VStem: 78 84<0 84> 218 84<636 720>
DStem2: 78 0 162 0 0.190809 0.981627<16.028 733.485>
LayerCount: 2
Fore
SplineSet
78 0 m 1
 218 720 l 1
 302 720 l 1
 162 0 l 1
 78 0 l 1
EndSplineSet
Validated: 1
EndChar

StartChar: L
Encoding: 76 76 9
GlifName: L_
Width: 620
VWidth: 0
Flags: W
HStem: 0 72<178 600> 700 20G<216.111 304>
VStem: 220 84<636 720>
DStem2: 80 0 164.005 0 0.190809 0.981627<89.3764 733.485>
LayerCount: 2
Fore
SplineSet
80 0 m 1
 220 720 l 1
 304 720 l 1
 178 72 l 1
 614 72 l 1
 600 0 l 1
 80 0 l 1
EndSplineSet
Validated: 1
EndChar

StartChar: l
Encoding: 108 108 10
GlifName: l
Width: 240
Flags: W
HStem: 0 21G<80 163.889> 700 20G<216.111 300>
VStem: 80 80<0 80> 220 80<640 720>
DStem2: 80 0 160 0 0.190809 0.981627<15.2647 733.485>
LayerCount: 2
Fore
SplineSet
80 0 m 1
 220 720 l 1
 300 720 l 1
 160 0 l 1
 80 0 l 1
EndSplineSet
Validated: 1
EndChar

StartChar: n
Encoding: 110 110 12
GlifName: n
Width: 550
VWidth: 0
Flags: W
HStem: 0 21G<80 163.882 420 503.889> 470 70<329.105 451.184> 500 20G<177.115 261>
VStem: 80 80<0 80> 420 80<0 80> 489 85<325.946 431.818>
DStem2: 80 0 160 0 0.190809 0.981627<15.2647 441.634 479.869 529.718> 420 0 500 0 0.190809 0.981627<15.2647 373.009>
LayerCount: 2
Fore
SplineSet
80 0 m 1xd4
 181 520 l 1
 261 520 l 1xb4
 249 456 l 1
 289 508 355 540 435 540 c 0
 521 540 574 480 574 399 c 0xd4
 574 386 573 374 570 360 c 2
 500 0 l 1
 420 0 l 1xd8
 486 340 l 2
 488 349 489 358 489 367 c 0
 489 425 450 470 381 470 c 0
 301 470 240 410 226 340 c 2
 160 0 l 1
 80 0 l 1xd4
EndSplineSet
Validated: 1
EndChar

StartChar: h
Encoding: 104 104 13
GlifName: h
Width: 570
VWidth: 0
Flags: W
HStem: 0 21G<80 163.882 420 503.889> 470 70<329.105 451.266> 700 20G<216.111 300>
VStem: 80 80<0 80> 220 80<640 720> 420 80<0 80> 489 85<325.946 431.818>
DStem2: 80 0 160 0 0.190809 0.981627<15.2647 441.634 479.869 733.485> 420 0 500 0 0.190809 0.981627<15.2647 373.99>
LayerCount: 2
Fore
SplineSet
80 0 m 1xfa
 220 720 l 1
 300 720 l 1
 249 456 l 1
 289 508 355 540 435 540 c 0
 522 540 574 480 574 399 c 0xfa
 574 387 573 373 570 360 c 2
 500 0 l 1
 420 0 l 1xfc
 486 340 l 2
 488 349 489 359 489 368 c 0
 489 426 450 470 381 470 c 0
 301 470 240 410 226 340 c 2
 160 0 l 1
 80 0 l 1xfa
EndSplineSet
Validated: 1
EndChar

StartChar: r
Encoding: 114 114 14
GlifName: r
Width: 350
Flags: W
HStem: 0 21G<80 163.882> 460 80<318.259 418.427> 500 20G<177.115 261>
VStem: 80 80<0 80>
DStem2: 80 0 160 0 0.190809 0.981627<15.2647 443.751 469.671 529.718>
LayerCount: 2
Fore
SplineSet
80 0 m 1xd0
 181 520 l 1
 261 520 l 1xb0
 247 446 l 1
 277 499 332 540 395 540 c 0
 408 540 422 540 434 535 c 1
 418 455 l 1
 398 458 379 460 359 460 c 0
 287 460 239 407 226 340 c 2
 160 0 l 1
 80 0 l 1xd0
EndSplineSet
Validated: 1
EndChar

StartChar: m
Encoding: 109 109 15
GlifName: m
Width: 890
VWidth: 0
Flags: W
HStem: 0 21G<80 163.882 420 503.882 760 843.889> 470 70<330.506 450.81 664.512 791.184> 500 20G<177.115 261>
VStem: 80 80<0 80> 420 80<0 80> 760 80<0 80> 829 85<325.946 431.818>
DStem2: 80 0 160 0 0.190809 0.981627<15.2647 441.634 478.696 529.718> 420 0 500 0 0.190809 0.981627<15.2647 373.009> 760 0 840 0 0.190809 0.981627<15.2647 373.009>
LayerCount: 2
Fore
SplineSet
80 0 m 1xda
 181 520 l 1
 261 520 l 1xba
 248 455 l 1
 288 507 355 540 435 540 c 0
 500 540 552 499 568 435 c 1
 621 504 677 540 775 540 c 0
 861 540 914 480 914 399 c 0xda
 914 386 913 374 910 360 c 2
 840 0 l 1
 760 0 l 1xdc
 826 340 l 2
 828 349 829 358 829 367 c 0
 829 425 790 470 721 470 c 0
 641 470 580 410 566 340 c 2
 500 0 l 1
 420 0 l 1
 486 340 l 2
 488 349 489 358 489 367 c 0
 489 425 450 470 381 470 c 0
 301 470 240 410 226 340 c 2
 160 0 l 1
 80 0 l 1xda
EndSplineSet
Validated: 1
EndChar

StartChar: K
Encoding: 75 75 16
GlifName: K_
Width: 600
VWidth: 0
Flags: W
HStem: 0 21G<80 167.857 455.914 580> 700 20G<216.111 304 583.321 720>
VStem: 80 84<0 84> 220 84<636 720> 606 114<606 720>
DStem2: 80 0 164 0 0.190809 0.981627<16.028 301.187 422.58 733.485> 242 399 291 347 0.750018 0.661417<0 2.3572 105.746 485.322> 368 416 291 347 0.454054 -0.890974<26.515 415.143>
LayerCount: 2
Fore
SplineSet
218 280 m 1
 164 0 l 1
 80 0 l 1
 220 720 l 1
 304 720 l 1
 242 399 l 1
 606 720 l 1
 720 720 l 1
 368 416 l 1
 580 0 l 1
 466 0 l 1
 291 347 l 1
 218 280 l 1
EndSplineSet
Validated: 1
EndChar

StartChar: C
Encoding: 67 67 17
GlifName: C_
Width: 720
VWidth: 0
Flags: W
HStem: -20 72<286.69 491.963> 668 72<404.048 604.16>
VStem: 100 85<160.297 413.491> 689 84<480 579.706>
LayerCount: 2
Fore
SplineSet
519 740 m 0
 686 740 773 641 773 487 c 2
 773 480 l 1
 689 480 l 1
 689 485 l 2
 689 600 623 668 505 668 c 0
 337 668 185 505 185 272 c 0
 185 134 260 52 385 52 c 0
 505 52 599 122 643 240 c 1
 727 240 l 1
 668 82 541 -20 371 -20 c 0
 209 -20 100 81 100 260 c 0
 100 553 309 740 519 740 c 0
EndSplineSet
Validated: 1
EndChar

StartChar: k
Encoding: 107 107 19
GlifName: k
Width: 500
Flags: W
HStem: 0 21G<80 163.854 398.193 500> 500 20G<452.978 581> 700 20G<216.111 300>
VStem: 80 80<0 80> 220 80<640 720> 410 90<0 90> 476 105<415 520>
DStem2: 80 0 160 0 0.190809 0.981627<15.2647 210.797 315.721 733.485> 217 295 263 249 0.760374 0.649486<0 5.10084 83.847 343.071> 323 300 263 249 0.508149 -0.861269<13.4358 302.59>
LayerCount: 2
Fore
SplineSet
80 0 m 1xfc
 220 720 l 1
 300 720 l 1
 217 295 l 1
 476 520 l 1
 581 520 l 1xfa
 323 300 l 1
 500 0 l 1
 410 0 l 1
 263 249 l 1
 197 192 l 1
 160 0 l 1
 80 0 l 1xfc
EndSplineSet
Validated: 1
EndChar

StartChar: numbersign
Encoding: 35 35 20
GlifName: numbersign
Width: 760
VWidth: 0
Flags: W
HStem: 0 21G<130 217.412 423 510.412> 170 80<69 193 303 486 596 723> 470 80<177 304 414 597 707 831> 700 20G<389.588 477 682.588 770>
DStem2: 130 0 210 0 0.347696 0.937607<27.8157 181.298 294.553 501.175 614.43 767.912> 423 0 503 0 0.347696 0.937607<27.8157 181.298 294.553 501.175 614.43 767.912>
LayerCount: 2
Fore
SplineSet
303 250 m 1
 516 250 l 1
 597 470 l 1
 384 470 l 1
 303 250 l 1
53 170 m 1
 69 250 l 1
 223 250 l 1
 304 470 l 1
 161 470 l 1
 177 550 l 1
 334 550 l 1
 397 720 l 1
 477 720 l 1
 414 550 l 1
 627 550 l 1
 690 720 l 1
 770 720 l 1
 707 550 l 1
 847 550 l 1
 831 470 l 1
 677 470 l 1
 596 250 l 1
 739 250 l 1
 723 170 l 1
 566 170 l 1
 503 0 l 1
 423 0 l 1
 486 170 l 1
 273 170 l 1
 210 0 l 1
 130 0 l 1
 193 170 l 1
 53 170 l 1
EndSplineSet
Validated: 1
EndChar

StartChar: O
Encoding: 79 79 21
GlifName: O_
Width: 760
VWidth: 0
Flags: W
HStem: -20 72<288.451 495.373> 668 72<404.627 611.549>
VStem: 99 86<158.946 415.327> 715 86<304.673 561.054>
LayerCount: 2
Fore
SplineSet
185 269 m 0
 185 127 264 52 390 52 c 0
 559 52 715 207 715 451 c 0
 715 593 636 668 510 668 c 0
 341 668 185 513 185 269 c 0
524 740 m 0
 686 740 801 645 801 462 c 0
 801 159 586 -20 376 -20 c 0
 214 -20 99 75 99 258 c 0
 99 561 314 740 524 740 c 0
EndSplineSet
Validated: 1
EndChar

StartChar: T
Encoding: 84 84 22
GlifName: T_
Width: 600
VWidth: 0
Flags: W
HStem: 0 21G<258 345.889> 648 72<160 384 468 706>
VStem: 258 84<0 84>
DStem2: 258 0 342 0 0.190809 0.981627<16.028 660.136>
LayerCount: 2
Fore
SplineSet
146 648 m 1
 160 720 l 1
 720 720 l 1
 706 648 l 1
 468 648 l 1
 342 0 l 1
 258 0 l 1
 384 648 l 1
 146 648 l 1
EndSplineSet
Validated: 1
EndChar

StartChar: Q
Encoding: 81 81 24
GlifName: Q_
Width: 760
VWidth: 0
Flags: W
HStem: -20 72<288.451 500.14> 668 72<404.442 611.549>
VStem: 99 86<158.946 415.313> 715 86<307.956 561.054>
DStem2: 519 225 447 165 0.647157 -0.762357<0 109.132 188.602 294.283>
LayerCount: 2
Fore
SplineSet
447 165 m 1
 519 225 l 1
 594 136 l 1
 659 200 715 315 715 451 c 0
 715 593 636 668 510 668 c 0
 341 668 185 512 185 269 c 0
 185 127 264 52 390 52 c 0
 435 52 478 62 518 81 c 1
 447 165 l 1
524 740 m 0
 686 740 801 645 801 462 c 0
 801 293 728 158 642 81 c 1
 710 0 l 1
 638 -60 l 1
 564 27 l 1
 506 -4 442 -20 376 -20 c 0
 214 -20 99 75 99 258 c 0
 99 562 313 740 524 740 c 0
EndSplineSet
Validated: 1
EndChar

StartChar: u
Encoding: 117 117 25
GlifName: u
Width: 560
VWidth: 0
Flags: W
HStem: -20 70<219.793 350.402> 0 21G<410 493.885> 500 20G<167.111 251 507.118 591>
VStem: 97 85<87.4774 249.531> 171 80<440 520> 511 80<440 520>
DStem2: 66.0115 -20 146.124 -20 0.190809 0.981627<191.386 550.111> 406.112 -20 486.112 -20 0.190809 0.981627<35.6391 85.4882 123.723 550.092>
LayerCount: 2
Fore
SplineSet
101 160 m 2xb4
 171 520 l 1
 251 520 l 1xac
 185 180 l 2
 183 171 182 161 182 152 c 0
 182 94 221 50 290 50 c 0xb4
 370 50 431 110 445 180 c 2
 511 520 l 1
 591 520 l 1
 490 0 l 1
 410 0 l 1x74
 422 64 l 1
 375 3 326 -20 246 -20 c 0
 166 -20 97 35 97 124 c 0
 97 135 99 147 101 160 c 2xb4
EndSplineSet
Validated: 1
EndChar

StartChar: V
Encoding: 86 86 26
GlifName: V_
Width: 660
VWidth: 0
Flags: W
HStem: 0 21G<272.778 395> 700 20G<160 247.146 685.065 780>
VStem: 160 84<636 720>
DStem2: 244 720 160 720 0.15906 -0.987269<0 649.892> 345 78 384 0 0.481919 0.876216<0 731.684>
LayerCount: 2
Fore
SplineSet
244 720 m 1
 345 78 l 1
 696 720 l 1
 780 720 l 1
 384 0 l 1
 276 0 l 1
 160 720 l 1
 244 720 l 1
EndSplineSet
Validated: 1
EndChar

StartChar: W
Encoding: 87 87 27
GlifName: W_
Width: 950
VWidth: 0
Flags: W
HStem: 0 21G<199.861 327.825 629.921 757.917> 700 20G<160 245 547.25 675 977.25 1070>
VStem: 160 84<597.073 720>
DStem2: 276 80 319 0 0.400819 0.916157<0 632.549> 706 80 749 0 0.407197 0.91334<0 698.553>
LayerCount: 2
Fore
SplineSet
160 720 m 1
 244 720 l 1
 276 80 l 1
 556 720 l 1
 674 720 l 1
 706 80 l 1
 986 720 l 1
 1070 720 l 1
 749 0 l 1
 631 0 l 1
 597 630 l 1
 319 0 l 1
 201 0 l 1
 160 720 l 1
EndSplineSet
Validated: 1
EndChar

StartChar: M
Encoding: 77 77 28
GlifName: M_
Width: 860
VWidth: 0
Flags: W
HStem: 0 21G<80 167.893 372.779 495.007 696 783.889> 700 20G<216.111 347.146 785.065 920>
VStem: 80 84<0 84> 696 84<0 84>
DStem2: 80 0 164 0 0.190809 0.981627<16.028 623.212> 344 720 280 596 0.155409 -0.98785<112.547 649.896> 445 78 484 0 0.479714 0.877425<0 630.561> 696 0 780 0 0.190809 0.981627<16.028 607.184>
LayerCount: 2
Fore
SplineSet
164 0 m 1
 80 0 l 1
 220 720 l 1
 344 720 l 1
 445 78 l 1
 796 720 l 1
 920 720 l 1
 780 0 l 1
 696 0 l 1
 812 596 l 1
 484 0 l 1
 376 0 l 1
 280 596 l 1
 164 0 l 1
EndSplineSet
Validated: 1
EndChar

StartChar: f
Encoding: 102 102 29
GlifName: f
Width: 290
VWidth: 0
Flags: W
HStem: 0 21G<90 173.867> 450 70<121 177 271 347> 670 70<307.95 400.964>
VStem: 90 80<0 80>
DStem2: 90 0 170 0 0.190809 0.981627<15.2647 458.333 544.983 690.575>
LayerCount: 2
Fore
SplineSet
90 0 m 1
 177 450 l 1
 107 450 l 1
 121 520 l 1
 191 520 l 1
 201 570 l 2
 228 710 284 740 344 740 c 0
 374 740 402 734 412 730 c 1
 399 665 l 1
 380 668 370 670 350 670 c 0
 310 670 295 640 281 570 c 2
 271 520 l 1
 361 520 l 1
 347 450 l 1
 257 450 l 1
 170 0 l 1
 90 0 l 1
EndSplineSet
Validated: 1
EndChar

StartChar: o
Encoding: 111 111 30
GlifName: o
Width: 580
Flags: W
HStem: -20 70<219.739 387.551> 470 70<295.936 461.714>
VStem: 83 80<106.189 311.866> 518 81<206.936 410.487>
LayerCount: 2
Fore
SplineSet
83 186 m 4
 83 365 204 540 395 540 c 4
 523 540 599 460 599 333 c 4
 599 154 476 -20 286 -20 c 4
 159 -20 83 60 83 186 c 4
163 194 m 4
 163 106 209 50 300 50 c 4
 444 50 518 196 518 324 c 4
 518 412 473 470 381 470 c 4
 237 470 163 322 163 194 c 4
EndSplineSet
Validated: 1
EndChar

StartChar: P
Encoding: 80 80 31
GlifName: P_
Width: 630
VWidth: 0
Flags: W
HStem: 0 21G<80 167.871> 310 72<238 529.543> 648 72<290 573.79>
VStem: 80 84<0 84> 609 87<463.832 615.535>
DStem2: 80 0 164 0 0.190809 0.981627<16.028 331.781 405.129 676.164>
LayerCount: 2
Fore
SplineSet
460 382 m 2
 537 382 609 449 609 548 c 0
 609 609 572 648 512 648 c 2
 290 648 l 1
 238 382 l 1
 460 382 l 2
80 0 m 1
 220 720 l 1
 530 720 l 2
 617 720 696 678 696 569 c 0
 696 390 560 310 450 310 c 2
 224 310 l 1
 164 0 l 1
 80 0 l 1
EndSplineSet
Validated: 1
EndChar

StartChar: R
Encoding: 82 82 32
GlifName: R_
Width: 630
VWidth: 0
Flags: W
HStem: 0 21G<80 167.871 524.258 620> 310 72<238 441> 648 72<290 573.79>
VStem: 80 84<0 84> 530 90<0 90> 609 87<463.575 615.535>
DStem2: 80 0 164 0 0.190809 0.981627<16.028 331.781 405.129 676.164> 526 321 441 310 0.281033 -0.959698<-1.37398 309.187>
LayerCount: 2
Fore
SplineSet
460 382 m 2xf4
 537 382 609 449 609 548 c 0
 609 609 572 648 512 648 c 2
 290 648 l 1
 238 382 l 1
 460 382 l 2xf4
80 0 m 1
 220 720 l 1
 530 720 l 2xf8
 617 720 696 678 696 569 c 0xf4
 696 430 609 347 526 321 c 1
 620 0 l 1
 530 0 l 1xf8
 441 310 l 1
 224 310 l 1
 164 0 l 1
 80 0 l 1
EndSplineSet
Validated: 1
EndChar

StartChar: N
Encoding: 78 78 33
GlifName: N_
Width: 750
VWidth: 0
Flags: W
HStem: 0 21G<80 167.9 560.367 673.889> 700 20G<216.111 329.633 722.1 810>
VStem: 80 84<0 84> 726 84<636 720>
DStem2: 80 0 164 0 0.190809 0.981627<16.028 627.329> 320 720 281 600 0.433951 -0.900936<91.1883 665.974> 585.674 0 670 0 0.190809 0.981627<122.246 733.547>
LayerCount: 2
Fore
SplineSet
80 0 m 1
 220 720 l 1
 320 720 l 1
 609 120 l 1
 726 720 l 1
 810 720 l 1
 670 0 l 1
 570 0 l 1
 281 600 l 1
 164 0 l 1
 80 0 l 1
EndSplineSet
Validated: 1
EndChar

StartChar: zero
Encoding: 48 48 34
GlifName: zero
Width: 580
VWidth: 0
Flags: W
HStem: -20 72<226.154 381.141> 668 72<338.859 493.846>
VStem: 93 84<106.392 375.744> 543 84<344.256 613.608>
LayerCount: 2
Fore
SplineSet
194 360 m 4
 183 305 177 255 177 214 c 0
 177 109 214 52 300 52 c 0
 420 52 488 165 526 360 c 4
 537 415 543 465 543 506 c 0
 543 611 506 668 420 668 c 0
 300 668 232 555 194 360 c 4
110 360 m 4
 166 650 294 740 434 740 c 0
 546 740 627 683 627 513 c 0
 627 470 621 419 610 360 c 4
 554 70 426 -20 286 -20 c 0
 174 -20 93 37 93 207 c 0
 93 250 99 301 110 360 c 4
EndSplineSet
Validated: 1
EndChar

StartChar: B
Encoding: 66 66 35
GlifName: B_
Width: 630
VWidth: 0
Flags: W
HStem: 0 72<178 472.96> 349 72<246 520.933> 648 72<290 560.664>
VStem: 550 86<158.81 318.166> 583 86<487.804 626.62>
DStem2: 80 0 164.005 0 0.190809 0.981627<89.3764 371.591 444.939 676.164>
LayerCount: 2
Fore
SplineSet
246 421 m 1xe8
 468 421 l 2
 533 421 583 501 583 565 c 0
 583 607 562 648 512 648 c 2
 290 648 l 1
 246 421 l 1xe8
420 72 m 2
 477 72 550 148 550 245 c 0xf0
 550 307 516 349 474 349 c 2
 232 349 l 1
 178 72 l 1
 420 72 l 2
80 0 m 1
 220 720 l 1
 530 720 l 2
 616 720 669 660 669 579 c 0xe8
 669 494 630 424 555 385 c 1
 610 364 636 323 636 262 c 0
 636 86 498 0 410 0 c 2
 80 0 l 1
EndSplineSet
Validated: 1
EndChar

StartChar: G
Encoding: 71 71 36
GlifName: G_
Width: 770
VWidth: 0
Flags: W
HStem: -20 72<290.523 501.915> 0 21G<616 693.885> 309 72<444 666> 668 72<408.929 610.207>
VStem: 100 85<164.783 415.783> 616 74<0 36.0405> 699 84<480 578.402>
DStem2: 602.574 -20 686.053 -20 0.190809 0.981627<182.661 335.058>
LayerCount: 2
Fore
SplineSet
524 740 m 0xbe
 692 740 783 641 783 487 c 2
 783 480 l 1
 699 480 l 1
 699 485 l 2
 699 600 628 668 510 668 c 0
 343 668 185 507 185 275 c 0
 185 136 264 52 390 52 c 0xbe
 520 52 633 130 657 260 c 2
 666 309 l 1
 430 309 l 1
 444 381 l 1
 764 381 l 1
 690 0 l 1
 616 0 l 1x7e
 623 90 l 1
 581 15 476 -20 376 -20 c 0
 213 -20 100 83 100 263 c 0
 100 555 315 740 524 740 c 0xbe
EndSplineSet
Validated: 1
EndChar

StartChar: d
Encoding: 100 100 37
GlifName: d
Width: 620
Flags: W
HStem: -20 70<223.131 386.525> 0 21G<460 543.889> 470 70<297.245 458.678> 700 20G<596.133 680>
VStem: 83 81<110.744 309.942> 460 80<0 80> 600 80<640 720>
DStem2: 456.112 -20 536.112 -20 0.190809 0.981627<35.6391 101.957 448.304 753.859>
LayerCount: 2
Fore
SplineSet
83 185 m 0xbe
 83 347 195 540 375 540 c 0
 455 540 526 504 542 420 c 1
 600 720 l 1
 680 720 l 1
 540 0 l 1
 460 0 l 5x7e
 476 80 l 1
 433 3 349 -20 266 -20 c 0
 145 -20 83 72 83 185 c 0xbe
164 199 m 0
 164 114 210 50 300 50 c 0xbe
 438 50 517 196 517 319 c 0
 517 404 472 470 381 470 c 0
 242 470 164 323 164 199 c 0
EndSplineSet
Validated: 1
EndChar

StartChar: b
Encoding: 98 98 38
GlifName: b
Width: 620
Flags: W
HStem: -20 70<262.681 426.172> 0 21G<80 163.8> 470 70<353.954 498.112> 700 20G<216.111 300>
VStem: 80 80<0 80> 220 80<640 720> 557 82<209.069 408.164>
DStem2: 76.1124 -20 156.112 -20 0.190809 0.981627<35.6391 137.427 463.569 753.859>
LayerCount: 2
Fore
SplineSet
80 0 m 5x7e
 220 720 l 1
 300 720 l 1
 242 420 l 1
 285 497 368 540 455 540 c 0
 576 540 639 447 639 334 c 0
 639 172 526 -20 346 -20 c 0xbe
 266 -20 195 16 179 100 c 1
 160 0 l 1
 80 0 l 5x7e
205 199 m 0
 205 114 250 50 340 50 c 0
 478 50 557 196 557 319 c 0
 557 404 512 470 421 470 c 0
 281 470 205 323 205 199 c 0
EndSplineSet
Validated: 1
EndChar

StartChar: p
Encoding: 112 112 39
GlifName: p
Width: 620
VWidth: 0
Flags: W
HStem: -200 21G<41 124.867> -20 70<264.529 422.002> 470 70<353.537 497.051> 500 20G<177.111 261>
VStem: 41 80<-200 -120> 181 80<440 520> 557 82<205.496 407.844>
DStem2: 41 -200 121 -200 0.190809 0.981627<15.2647 320.82 646.961 733.485>
LayerCount: 2
Fore
SplineSet
205 200 m 0xee
 205 100 264 50 340 50 c 0
 441 50 557 152 557 319 c 0
 557 420 497 470 421 470 c 0
 319 470 205 368 205 200 c 0xee
41 -200 m 1
 181 520 l 1
 261 520 l 1xde
 242 420 l 1
 279 486 355 540 455 540 c 0
 557 540 639 467 639 334 c 0
 639 119 480 -20 346 -20 c 0
 246 -20 190 34 179 100 c 1
 121 -200 l 1
 41 -200 l 1
EndSplineSet
Validated: 1
EndChar

StartChar: q
Encoding: 113 113 40
GlifName: q
Width: 620
VWidth: 0
Flags: W
HStem: -200 21G<421 504.889> -20 70<220.224 367.32> 470 70<296.466 461.654> 500 20G<557.2 641>
VStem: 83 81<106.542 315.289> 421 80<-200 -120> 561 80<440 520>
DStem2: 421 -200 501 -200 0.190809 0.981627<15.2647 305.555 631.697 733.485>
LayerCount: 2
Fore
SplineSet
164 195 m 0xee
 164 98 217 50 300 50 c 0
 413 50 518 155 518 324 c 0
 518 421 464 470 381 470 c 0
 268 470 164 364 164 195 c 0xee
375 540 m 0
 475 540 531 486 542 420 c 1
 561 520 l 1
 641 520 l 1xde
 501 -200 l 1
 421 -200 l 1
 479 100 l 1
 442 34 366 -20 266 -20 c 0
 164 -20 83 52 83 185 c 0
 83 401 241 540 375 540 c 0
EndSplineSet
Validated: 1
EndChar

StartChar: c
Encoding: 99 99 41
GlifName: c
Width: 570
Flags: W
HStem: -20 70<224.19 392.346> 470 70<296.055 466.51>
VStem: 84 81<111.567 312.906> 518 80<350 419.864>
LayerCount: 2
Fore
SplineSet
84 190 m 0
 84 434 270 540 395 540 c 0
 518 540 598 478 598 350 c 1
 518 350 l 1
 518 433 458 470 381 470 c 0
 241 470 165 323 165 199 c 0
 165 114 210 50 300 50 c 0
 380 50 455 93 483 170 c 1
 563 170 l 1
 519 49 413 -20 286 -20 c 0
 159 -20 84 66 84 190 c 0
EndSplineSet
Validated: 1
EndChar

StartChar: g
Encoding: 103 103 42
GlifName: g
Width: 620
VWidth: 0
Flags: W
HStem: -220 70<165.57 363.874> -20 70<224.134 367.524> 470 70<298.917 456.629> 500 20G<557.2 641>
VStem: 46 80<-114.681 -70> 83 82<111.578 313.844> 561 80<440 520>
DStem2: 417.293 -220 497.293 -220 0.190809 0.981627<138.244 325.895 652.037 753.825>
LayerCount: 2
Fore
SplineSet
165 200 m 0xe6
 165 100 224 50 300 50 c 0
 402 50 517 152 517 319 c 0
 517 420 457 470 381 470 c 0
 279 470 165 367 165 200 c 0xe6
375 540 m 0
 475 540 531 486 542 420 c 1
 561 520 l 1
 641 520 l 1
 542 10 l 2
 515 -130 407 -220 247 -220 c 0
 128 -220 46 -169 46 -73 c 2
 46 -70 l 1
 126 -70 l 1
 126 -71 l 2xda
 126 -119 187 -150 261 -150 c 0
 381 -150 443 -90 462 10 c 2
 479 100 l 1
 442 34 366 -20 266 -20 c 0
 164 -20 83 52 83 185 c 0
 83 401 241 540 375 540 c 0
EndSplineSet
Validated: 1
EndChar

StartChar: period
Encoding: 46 46 43
GlifName: period
Width: 240
Flags: W
HStem: 0 90<97 160>
VStem: 80 80<0 80> 97 80<10 90>
LayerCount: 2
Fore
SplineSet
80 0 m 1xc0
 97 90 l 1
 177 90 l 1xa0
 160 0 l 1
 80 0 l 1xc0
EndSplineSet
Validated: 1
EndChar

StartChar: t
Encoding: 116 116 44
GlifName: t
Width: 290
Flags: W
HStem: -20 70<164.256 268.382> 450 70<121 177 271 347>
VStem: 110 82<53.0801 215.625> 220 80<590 670>
DStem2: 85.9553 -20 165.955 -20 0.190809 0.981627<133.014 478.737 565.387 702.9>
LayerCount: 2
Fore
SplineSet
107 450 m 1
 121 520 l 1
 191 520 l 1
 220 670 l 1
 300 670 l 1
 271 520 l 1
 361 520 l 1
 347 450 l 1
 257 450 l 1
 199 150 l 2
 195 131 192 113 192 94 c 0
 192 68 202 50 230 50 c 0
 247 50 264 53 281 55 c 1
 268 -10 l 1
 245 -18 220 -20 196 -20 c 0
 133 -20 110 12 110 72 c 0
 110 98 114 124 119 150 c 2
 177 450 l 1
 107 450 l 1
EndSplineSet
Validated: 1
EndChar

StartChar: v
Encoding: 118 118 45
GlifName: v
Width: 540
VWidth: 0
Flags: W
HStem: 0 21G<211.385 336.385> 500 20G<121 204.689 529.578 621>
VStem: 121 80<440 520>
DStem2: 201 520 121 520 0.177886 -0.984051<0 457.588> 284 70 325 0 0.494698 0.869065<0 518.217>
LayerCount: 2
Fore
SplineSet
121 520 m 1
 201 520 l 25
 284 70 l 1
 541 520 l 1
 621 520 l 1
 325 0 l 1
 215 0 l 1
 121 520 l 1
EndSplineSet
Validated: 1
EndChar

StartChar: e
Encoding: 101 101 46
GlifName: e
Width: 580
Flags: W
HStem: -20 70<219.893 393.955> 240 70<180 522.736> 470 70<293.819 464.155>
VStem: 84 81<105.367 234.141> 523 72<310.244 413.624>
LayerCount: 2
Fore
SplineSet
84 190 m 0
 84 434 270 540 395 540 c 0
 526 540 595 447 595 322 c 0
 595 294 593 267 587 240 c 1
 167 240 l 1
 166 228 165 215 165 203 c 0
 165 111 202 50 300 50 c 0
 380 50 455 92 483 170 c 1
 563 170 l 1
 519 49 413 -20 286 -20 c 0
 159 -20 84 66 84 190 c 0
180 310 m 1
 520 310 l 1
 522 320 523 331 523 341 c 0
 523 425 460 470 381 470 c 0
 290 470 199 400 180 310 c 1
EndSplineSet
Validated: 1
EndChar

StartChar: U
Encoding: 85 85 47
GlifName: U_
Width: 680
VWidth: 0
Flags: W
HStem: -20 72<258.195 451.192> 700 20G<216.128 304 652.128 740>
VStem: 120 85<101.279 316.094> 220 84<636 720> 656 84<636 720>
DStem2: 76.5173 -20 160.517 -20 0.190809 0.981627<225.69 753.782> 512.517 -20 596.517 -20 0.190809 0.981627<153.422 753.782>
LayerCount: 2
Fore
SplineSet
129 250 m 2
 220 720 l 1
 304 720 l 1
 213 250 l 2
 208 226 205 204 205 184 c 0
 205 102 246 52 350 52 c 0
 480 52 542 130 565 250 c 2
 656 720 l 1
 740 720 l 1
 649 250 l 2
 616 80 516 -20 336 -20 c 0
 187 -20 120 48 120 168 c 0
 120 193 123 221 129 250 c 2
EndSplineSet
Validated: 1
EndChar

StartChar: w
Encoding: 119 119 48
GlifName: w
Width: 755
VWidth: 0
Flags: W
HStem: 0 21G<153.692 278.981 488.796 613.885> 500 20G<121 202.204 412.019 537.204 747.019 836>
VStem: 121 80<440 520>
DStem2: 201 520 121 520 0.0652453 -0.997869<0 432.776> 227 88 270 0 0.409662 0.912237<0 410.9> 536 520 464 432 0.0600765 -0.998194<83.5155 432.782> 562 88 605 0 0.405975 0.913884<0 473.557>
LayerCount: 2
Fore
SplineSet
155 0 m 1
 121 520 l 1
 201 520 l 1
 227 88 l 1
 421 520 l 1
 536 520 l 1
 562 88 l 1
 756 520 l 1
 836 520 l 1
 605 0 l 1
 490 0 l 1
 464 432 l 1
 270 0 l 1
 155 0 l 1
EndSplineSet
Validated: 1
EndChar

StartChar: a
Encoding: 97 97 49
GlifName: a
Width: 550
VWidth: 0
Flags: W
HStem: -20 70<170.828 333.998> 0 21G<420 493.882> 250 70<217.186 455.802> 470 70<272.818 447.801>
VStem: 63 83<74.4364 190.468> 132 80<370 450> 420 70<0 36.0606> 480 81<311.953 439.544>
DStem2: 406.236 -20 486.023 -20 0.190809 0.981627<138.854 264.909 335.463 403.273>
LayerCount: 2
Fore
SplineSet
146 125 m 0xb8
 146 78 183 50 245 50 c 0
 365 50 433 120 449 200 c 2
 457 240 l 1
 428 246 404 250 354 250 c 0
 209 250 146 204 146 125 c 0xb8
347 320 m 0
 407 320 441 315 470 310 c 1
 476 340 l 2
 479 353 480 366 480 377 c 0
 480 441 438 470 366 470 c 0
 281 470 224 430 212 370 c 1
 132 370 l 1
 151 470 250 540 380 540 c 0
 493 540 561 487 561 389 c 0xb5
 561 374 559 357 556 340 c 2
 490 0 l 1
 420 0 l 1x72
 424 70 l 1
 377 9 311 -20 211 -20 c 0
 140 -20 63 12 63 103 c 0
 63 252 204 320 347 320 c 0
EndSplineSet
Validated: 1
EndChar

StartChar: J
Encoding: 74 74 50
GlifName: J_
Width: 560
VWidth: 0
Flags: W
HStem: -20 72<187.48 359.333> 700 20G<532.109 620>
VStem: 68 86<84.5117 189.688> 73 84<142.422 190> 536 84<636 720>
DStem2: 392.068 -20 476.124 -20 0.190809 0.981627<119.261 753.868>
LayerCount: 2
Fore
SplineSet
73 170 m 2xd8
 77 190 l 1
 161 190 l 1
 157 170 l 2xd8
 155 160 154 151 154 142 c 0
 154 81 200 52 270 52 c 0
 350 52 413 90 429 170 c 2
 536 720 l 1
 620 720 l 1
 515 180 l 2
 488 40 376 -20 256 -20 c 0
 142 -20 68 26 68 124 c 0xe8
 68 138 70 154 73 170 c 2xd8
EndSplineSet
Validated: 1
EndChar

StartChar: y
Encoding: 121 121 51
GlifName: y
Width: 540
VWidth: 0
Flags: W
HStem: -210 70<31.9823 155.551> 500 20G<121 215.483 519.719 621>
VStem: 121 90<430 520>
DStem2: 211 520 121 520 0.223079 -0.9748<0 416.069> 240 0 330 0 0.488348 0.872649<-145.508 0 129.76 595.887>
LayerCount: 2
Fore
SplineSet
21 -200 m 1
 34 -135 l 1
 53 -138 73 -140 93 -140 c 0
 143 -140 171 -122 240 0 c 1
 121 520 l 1
 211 520 l 1
 302 114 l 1
 531 520 l 1
 621 520 l 1
 330 0 l 2
 241 -160 179 -210 79 -210 c 0
 59 -210 29 -205 21 -200 c 1
EndSplineSet
Validated: 1
EndChar

StartChar: X
Encoding: 88 88 52
GlifName: X_
Width: 660
VWidth: 0
Flags: W
HStem: 0 21G<20 132.514 535.324 640> 700 20G<160 264.676 667.486 780>
VStem: 20 94<0 94> 686 94<626 720>
DStem2: 20 0 114 0 0.679042 0.734099<63.8299 467.181 577.443 980.794> 254 720 160 720 0.472493 -0.881334<0 335.529 437 772.529>
LayerCount: 2
Fore
SplineSet
114 0 m 1
 20 0 l 1
 353 360 l 1
 160 720 l 1
 254 720 l 1
 412 424 l 1
 686 720 l 1
 780 720 l 1
 447 360 l 1
 640 0 l 1
 546 0 l 1
 388 296 l 1
 114 0 l 1
EndSplineSet
Validated: 1
EndChar

StartChar: Y
Encoding: 89 89 53
GlifName: Y_
Width: 660
VWidth: 0
Flags: W
HStem: 0 21G<288 375.889> 700 20G<160 264.853 667.365 780>
VStem: 288 84<0 84> 686 94<626 720>
DStem2: 254 720 160 720 0.481919 -0.876216<0 333.356> 288 0 372 0 0.190809 0.981627<16.028 366.742> 413 427 442 360 0.68448 0.729032<0 400.469>
LayerCount: 2
Fore
SplineSet
358 360 m 1
 160 720 l 1
 254 720 l 1
 413 427 l 1
 686 720 l 1
 780 720 l 1
 442 360 l 1
 372 0 l 1
 288 0 l 1
 358 360 l 1
EndSplineSet
Validated: 1
EndChar

StartChar: Z
Encoding: 90 90 54
GlifName: Z_
Width: 640
VWidth: 0
Flags: W
HStem: 0 70<134 620> 650 70<180 626>
DStem2: 34 70 134 70 0.714309 0.69983<71.4309 828.773>
LayerCount: 2
Fore
SplineSet
20 0 m 1
 34 70 l 1
 626 650 l 1
 166 650 l 1
 180 720 l 1
 740 720 l 1
 726 650 l 1
 134 70 l 1
 634 70 l 1
 620 0 l 1
 20 0 l 1
EndSplineSet
Validated: 1
EndChar

StartChar: S
Encoding: 83 83 55
GlifName: S_
Width: 640
VWidth: 0
Flags: W
HStem: -20 72<219.457 448.493> 520 21G<597 682.5> 668 72<347.052 545.674>
VStem: 75 85<103.596 200> 157 86<454.509 576.541> 557 85<143.651 267.308> 600 85<520 617.9>
LayerCount: 2
Fore
SplineSet
79 200 m 1xf4
 163 200 l 1
 161 190 160 180 160 170 c 0
 160 104 208 52 330 52 c 0
 469 52 557 123 557 217 c 0xf4
 557 269 505 307 384 329 c 0
 240 355 157 391 157 483 c 0
 157 631 288 740 464 740 c 0
 613 740 685 663 685 563 c 0
 685 549 684 535 681 520 c 1
 597 520 l 1
 599 530 600 541 600 551 c 0
 600 617 554 668 450 668 c 0
 332 668 243 596 243 504 c 0xea
 243 457 287 421 398 401 c 0
 559 372 642 326 642 235 c 0
 642 68 508 -20 316 -20 c 0
 149 -20 75 57 75 157 c 0
 75 171 76 185 79 200 c 1xf4
EndSplineSet
Validated: 1
EndChar

StartChar: dollar
Encoding: 36 36 56
GlifName: dollar
Width: 640
Flags: W
HStem: -20 71<211.324 286 360 455.266> 520 21G<601 682.5> 668 71<347.86 420 494 547.177>
VStem: 75 81<102.622 200> 157 82<457.343 572.321> 274 60<-80 -20> 446 60<740 800> 561 82<140.715 262.302> 604 81<520 615.294>
DStem2: 274 -80 334 -80 0.190809 0.981627<11.4485 61.1873 145.003 413.884 500.297 762.115 845.931 896.651>
LayerCount: 2
Fore
SplineSet
75 157 m 0xff
 75 171 76 186 79 200 c 1
 159 200 l 5
 157 190 156 181 156 171 c 0
 156 87 225 51 300 51 c 1
 354 327 l 1
 269 344 157 376 157 482 c 0
 157 624 288 739 434 739 c 1
 446 800 l 1
 506 800 l 1
 494 739 l 1
 602 739 685 678 685 564 c 0
 685 549 684 534 681 520 c 1
 601 520 l 1
 603 530 604 539 604 549 c 0xfe80
 604 623 547 660 480 668 c 1
 428 399 l 1
 516 381 643 349 643 237 c 0
 643 59 495 -20 346 -20 c 1
 334 -80 l 1
 274 -80 l 1
 286 -20 l 1
 176 -20 75 34 75 157 c 0xff
239 503 m 0
 239 441 322 421 370 411 c 1
 420 668 l 1
 337 659 239 597 239 503 c 0
360 51 m 1
 451 51 561 107 561 217 c 0xff
 561 283 461 304 411 315 c 1
 360 51 l 1
EndSplineSet
Validated: 1
EndChar

StartChar: z
Encoding: 122 122 57
GlifName: z
Width: 500
VWidth: 0
Flags: W
HStem: 0 70<134 480> 450 70<141 447>
DStem2: 34 70 134 70 0.735895 0.677095<73.5895 561.221>
LayerCount: 2
Fore
SplineSet
20 0 m 1
 34 70 l 1
 447 450 l 1
 127 450 l 1
 141 520 l 1
 561 520 l 1
 547 450 l 1
 134 70 l 1
 494 70 l 1
 480 0 l 1
 20 0 l 1
EndSplineSet
Validated: 1
EndChar

StartChar: x
Encoding: 120 120 58
GlifName: x
Width: 540
VWidth: 0
Flags: W
HStem: 0 21G<20 139.282 408.513 520> 500 20G<121 232.487 501.718 621>
VStem: 20 100<0 100> 521 100<420 520>
DStem2: 20 0 120 0 0.693828 0.720141<69.3828 340.25 451.214 722.081> 221 520 121 520 0.498471 -0.866906<0 224.875 325.112 549.987>
LayerCount: 2
Fore
SplineSet
20 0 m 1
 271 260 l 1
 121 520 l 1
 221 520 l 1
 333 325 l 1
 521 520 l 1
 621 520 l 1
 371 260 l 1
 520 0 l 1
 420 0 l 1
 308 195 l 1
 120 0 l 1
 20 0 l 1
EndSplineSet
Validated: 1
EndChar

StartChar: s
Encoding: 115 115 59
GlifName: s
Width: 510
VWidth: 0
Flags: W
HStem: -20 70<176.764 363.952> 470 70<260.773 423.06>
VStem: 64 82<77.5355 140> 131 81<327.769 424.207> 418 83<97.1881 190.681> 446 81<380 446.812>
LayerCount: 2
Fore
SplineSet
67 140 m 1xe8
 147 140 l 1
 146 135 146 130 146 125 c 0
 146 82 184 50 265 50 c 0
 354 50 418 91 418 150 c 0xe8
 418 178 393 212 300 230 c 0
 177 253 131 289 131 350 c 0
 131 453 223 540 360 540 c 0
 475 540 527 478 527 408 c 0
 527 399 526 389 524 380 c 1
 444 380 l 1
 445 386 446 393 446 399 c 0
 446 440 416 470 346 470 c 0
 265 470 212 426 212 366 c 0xd4
 212 334 238 314 313 300 c 0
 446 276 501 240 501 172 c 0
 501 57 399 -20 251 -20 c 0
 127 -20 64 35 64 111 c 0
 64 120 65 130 67 140 c 1xe8
EndSplineSet
Validated: 1
EndChar

StartChar: comma
Encoding: 44 44 60
GlifName: comma
Width: 240
Flags: W
HStem: -120 210
VStem: 57 40<-120 -80> 97 80<10 90>
DStem2: 96.562 -120 136.562 -120 0.190809 0.981627<32.373 122.267>
LayerCount: 2
Fore
SplineSet
57 -120 m 1xc0
 89 -89 108 -60 116 -20 c 2
 120 0 l 1
 80 0 l 9
 97 90 l 25
 177 90 l 25xa0
 156 -20 l 2
 148 -60 129 -89 97 -120 c 1
 57 -120 l 1xc0
EndSplineSet
Validated: 1
EndChar

StartChar: colon
Encoding: 58 58 62
GlifName: colon
Width: 240
Flags: W
HStem: 0 90<97 160> 430 90<181 244>
VStem: 80 80<0 80> 97 80<10 90> 164 80<430 510> 181 80<440 520>
DStem2: 80 0 160 0 0.190809 0.981627<15.2647 91.5902 453.392 529.718>
LayerCount: 2
Fore
SplineSet
80 0 m 25xe0
 97 90 l 25
 177 90 l 25xd0
 160 0 l 25
 80 0 l 25xe0
164 430 m 25xc8
 181 520 l 25
 261 520 l 25xc4
 244 430 l 25
 164 430 l 25xc8
EndSplineSet
Validated: 1
EndChar

StartChar: semicolon
Encoding: 59 59 63
GlifName: semicolon
Width: 240
Flags: W
HStem: 430 90<181 244>
VStem: 57 40<-120 -80> 97 80<10 90> 164 80<430 510> 181 80<440 520>
DStem2: 56.6744 -120 136.562 -120 0.190809 0.981627<129.878 213.836 575.638 651.964> 96.562 -120 136.562 -120 0.190809 0.981627<32.373 122.267>
LayerCount: 2
Fore
SplineSet
57 -120 m 1xc0
 89 -89 108 -60 116 -20 c 2
 120 0 l 1
 80 0 l 9
 97 90 l 25
 177 90 l 25xa0
 156 -20 l 2
 148 -60 129 -89 97 -120 c 1
 57 -120 l 1xc0
164 430 m 25x90
 181 520 l 25
 261 520 l 25x88
 244 430 l 25
 164 430 l 25x90
EndSplineSet
Validated: 1
EndChar

StartChar: hyphen
Encoding: 45 45 64
GlifName: hyphen
Width: 300
VWidth: 50
Flags: W
HStem: 280 70<108 314>
VStem: 94 234
LayerCount: 2
Fore
SplineSet
94 280 m 1
 108 350 l 5
 328 350 l 1
 314 280 l 1
 94 280 l 1
EndSplineSet
Validated: 1
EndChar

StartChar: exclamdown
Encoding: 161 161 65
GlifName: exclamdown
Width: 260
Flags: W
HStem: -200 21G<41 144.926> 430 90<191 254>
VStem: 41 100<-200 -100> 174 80<430 510> 178 40<326.667 350> 191 80<440 520>
DStem2: 41 -200 141 -200 0.190809 0.981627<19.0809 301.281 659.067 668.445 719.031 735.393>
LayerCount: 2
Fore
SplineSet
174 430 m 1xf0
 191 520 l 1
 271 520 l 1xe4
 254 430 l 1
 174 430 l 1xf0
94 70 m 1
 178 350 l 1
 218 350 l 1xe8
 194 70 l 1
 141 -200 l 1
 41 -200 l 1
 94 70 l 1
EndSplineSet
Validated: 1
EndChar

StartChar: cent
Encoding: 162 162 66
GlifName: cent
Width: 570
VWidth: 0
Flags: W
HStem: -18 71<219.707 257 330 397.645> 467 71<295.881 351 425 469.937>
VStem: 84 81<110.132 316.467> 244 60<-80 -20> 377 60<540 600> 518 80<350 418.278>
DStem2: 244 -80 304 -80 0.190809 0.981627<11.4485 63.3414 145.984 557.367 642.164 692.884>
LayerCount: 2
Fore
SplineSet
84 191 m 0
 84 388 223 521 365 538 c 1
 377 600 l 1
 437 600 l 1
 425 539 l 1
 544 528 598 452 598 353 c 0
 598 352 598 351 598 350 c 2
 518 350 l 2
 518 351 518 352 518 353 c 0
 518 405 488 456 411 467 c 1
 330 52 l 1
 412 63 464 117 483 170 c 1
 563 170 l 1
 526 70 441 -7 317 -18 c 1
 304 -80 l 1
 244 -80 l 1
 257 -18 l 1
 153 -5 84 72 84 191 c 0
165 199 m 0
 165 113 209 65 270 53 c 1
 351 467 l 1
 260 451 165 352 165 199 c 0
EndSplineSet
Validated: 1
EndChar

StartChar: bracketleft
Encoding: 91 91 67
GlifName: bracketleft
Width: 300
VWidth: 0
Flags: W
HStem: -120 70<150 257> 650 70<286 406>
DStem2: 57 -120 136.393 -120 0.190809 0.981627<86.4591 799.548>
LayerCount: 2
Fore
SplineSet
57 -120 m 25
 220 720 l 25
 420 720 l 25
 406 650 l 25
 286 650 l 25
 150 -50 l 25
 270 -50 l 25
 257 -120 l 25
 57 -120 l 25
EndSplineSet
Validated: 1
EndChar

StartChar: bracketright
Encoding: 93 93 68
GlifName: bracketright
Width: 300
VWidth: 0
Flags: W
HStem: -120 70<10 130> 650 70<160 266>
DStem2: 116.393 -120 197 -120 0.190809 0.981627<71.3102 784.399>
LayerCount: 2
Fore
SplineSet
-3 -120 m 25
 10 -50 l 25
 130 -50 l 25
 266 650 l 25
 146 650 l 25
 160 720 l 25
 360 720 l 25
 197 -120 l 25
 -3 -120 l 25
EndSplineSet
Validated: 1
EndChar

StartChar: one
Encoding: 49 49 69
GlifName: one
Width: 580
VWidth: 0
Flags: W
HStem: 0 21G<316 403.889> 700 20G<457.538 540>
VStem: 316 84<0 84>
DStem2: 235 590 219 508 0.896463 0.443119<0 192.596> 316 0 400 0 0.190809 0.981627<16.028 629.543>
LayerCount: 2
Fore
SplineSet
219 508 m 1
 235 590 l 1
 498 720 l 1
 540 720 l 1
 400 0 l 1
 316 0 l 1
 436 618 l 1
 219 508 l 1
EndSplineSet
Validated: 1
EndChar

StartChar: bar
Encoding: 124 124 70
GlifName: bar
Width: 240
VWidth: 0
Flags: W
VStem: 68 80<-60 20> 232 80<700 780>
DStem2: 68 -60 148 -60 0.190809 0.981627<15.2647 855.86>
LayerCount: 2
Fore
SplineSet
68 -60 m 1
 232 780 l 1
 312 780 l 1
 148 -60 l 1
 68 -60 l 1
EndSplineSet
Validated: 1
EndChar

StartChar: slash
Encoding: 47 47 71
GlifName: slash
Width: 520
Flags: W
VStem: 8 80<-60 20> 572 80<700 780>
DStem2: 8 -60 88 -60 0.557434 0.830221<44.5947 1011.78>
LayerCount: 2
Fore
SplineSet
8 -60 m 1
 572 780 l 1
 652 780 l 1
 88 -60 l 1
 8 -60 l 1
EndSplineSet
Validated: 1
EndChar

StartChar: backslash
Encoding: 92 92 72
GlifName: backslash
Width: 520
VWidth: 0
Flags: W
VStem: 172 80<700 780> 408 80<-60 20>
DStem2: 252 780 172 780 0.27048 -0.962726<0 850.884>
LayerCount: 2
Fore
SplineSet
172 780 m 1
 252 780 l 1
 488 -60 l 1
 408 -60 l 1
 172 780 l 1
EndSplineSet
Validated: 1
EndChar

StartChar: two
Encoding: 50 50 73
GlifName: two
Width: 580
VWidth: 0
Flags: W
HStem: 0 72<203 540> 668 72<320.833 490.217>
VStem: 137 84<500 584> 538 84<452.09 621.73>
DStem2: 74 72 203 72 0.810679 0.585491<104.578 513.035>
LayerCount: 2
Fore
SplineSet
137 500 m 1
 164 640 274 740 424 740 c 0
 554 740 622 658 622 552 c 0
 622 378 505 299 347 180 c 2
 203 72 l 1
 554 72 l 1
 540 0 l 1
 60 0 l 1
 74 72 l 1
 362 280 l 2
 455 347 538 438 538 545 c 0
 538 620 494 668 410 668 c 0
 310 668 240 600 221 500 c 1
 137 500 l 1
EndSplineSet
Validated: 1
EndChar

StartChar: grave
Encoding: 96 96 74
GlifName: grave
Width: 230
VWidth: 0
Flags: W
HStem: 600 150<267 276>
VStem: 166 161
LayerCount: 2
Fore
SplineSet
166 750 m 25
 276 750 l 25
 327 600 l 25
 267 600 l 25
 166 750 l 25
EndSplineSet
Validated: 1
EndChar

StartChar: dotaccent
Encoding: 729 729 78
GlifName: dotaccent
Width: 0
VWidth: 0
Flags: W
HStem: 660 90<106 168>
VStem: 88 80<660 740> 106 80<670 750>
LayerCount: 2
Fore
SplineSet
88 660 m 25xc0
 106 750 l 25
 186 750 l 25xa0
 168 660 l 25
 88 660 l 25xc0
EndSplineSet
Validated: 1
EndChar

StartChar: dotlessi
Encoding: 305 305 79
GlifName: dotlessi
Width: 240
VWidth: 0
Flags: W
HStem: 0 21G<80 163.885> 500 20G<177.115 261>
VStem: 80 80<0 80> 181 80<440 520>
DStem2: 80 0 160 0 0.190809 0.981627<15.2647 529.718>
LayerCount: 2
Fore
SplineSet
80 0 m 5
 181 520 l 5
 261 520 l 5
 160 0 l 5
 80 0 l 5
EndSplineSet
Validated: 1
EndChar

StartChar: dieresis
Encoding: 168 168 82
GlifName: dieresis
Width: 370
Flags: W
HStem: 660 90<206 268 376 438>
VStem: 188 80<660 740> 206 80<670 750> 358 80<660 740> 376 80<670 750>
LayerCount: 2
Fore
SplineSet
188 660 m 25xc0
 206 750 l 25
 286 750 l 25xa0
 268 660 l 25
 188 660 l 25xc0
358 660 m 25x90
 376 750 l 25
 456 750 l 25x88
 438 660 l 25
 358 660 l 25x90
EndSplineSet
Validated: 1
EndChar

StartChar: acute
Encoding: 180 180 93
GlifName: acute
Width: 230
VWidth: 0
Flags: W
HStem: 600 150
VStem: 137 219
LayerCount: 2
Fore
SplineSet
137 600 m 25
 246 750 l 25
 356 750 l 25
 197 600 l 25
 137 600 l 25
EndSplineSet
Validated: 1
EndChar

StartChar: thorn
Encoding: 254 254 127
GlifName: thorn
Width: 620
Flags: W
HStem: -200 21G<41 124.867> -20 70<263.648 424.971> 470 70<354.666 498.091> 700 20G<216.109 300>
VStem: 41 80<-200 -120> 220 80<640 720> 557 81<208.014 407.954>
DStem2: 41 -200 121 -200 0.190809 0.981627<15.2647 320.82 646.961 937.252>
LayerCount: 2
Fore
SplineSet
41 -200 m 1
 220 720 l 1
 300 720 l 1
 242 420 l 1
 284 493 372 540 455 540 c 0
 576 540 638 440 638 329 c 0
 638 172 519 -20 346 -20 c 0
 271 -20 194 21 179 100 c 1
 121 -200 l 1
 41 -200 l 1
205 199 m 0
 205 114 250 50 340 50 c 0
 478 50 557 196 557 319 c 0
 557 404 512 470 421 470 c 0
 281 470 205 323 205 199 c 0
EndSplineSet
Validated: 1
EndChar

StartChar: OE
Encoding: 338 338 136
GlifName: O_E_
Width: 1180
VWidth: 0
Flags: W
HStem: -20 70<290.239 493.473> 0 70<734 1160> 325 70<797 1193> 650 70<846 1286> 670 70<402.415 611.564>
VStem: 99 82<162.498 405.342>
DStem2: 635.787 -20 716.506 -20 0.190809 0.981627<107.086 142.62 240.416 366.751 631.737 697.801>
LayerCount: 2
Fore
SplineSet
99 257 m 0xa4
 99 289 103 323 110 360 c 0
 159 610 334 740 524 740 c 0xac
 629 740 723 686 757 600 c 1
 780 720 l 1
 1300 720 l 1
 1286 650 l 1
 846 650 l 1
 797 395 l 1
 1207 395 l 1
 1193 325 l 1
 783 325 l 1
 734 70 l 1
 1174 70 l 1
 1160 0 l 1
 640 0 l 1x74
 663 120 l 1
 597 34 481 -20 376 -20 c 0
 214 -20 99 74 99 257 c 0xa4
181 272 m 0
 181 128 264 50 390 50 c 0
 540 50 671 160 710 360 c 0
 716 392 719 421 719 448 c 0
 719 592 636 670 510 670 c 0
 360 670 229 560 190 360 c 0
 184 328 181 299 181 272 c 0
EndSplineSet
Validated: 1
EndChar

StartChar: oe
Encoding: 339 339 137
GlifName: oe
Width: 1000
VWidth: 0
Flags: W
HStem: -20 70<217.863 387.769 640.161 813.28> 240 70<600 942.736> 470 70<293.39 461.37 713.956 883.689>
VStem: 83 80<106.859 308.859> 518 67<203 324> 943 72<310.069 414.484>
LayerCount: 2
Fore
SplineSet
83 186 m 0
 83 209 86 234 91 260 c 0
 126 440 255 540 395 540 c 0
 485 540 554 499 583 422 c 1
 642 497 727 540 815 540 c 0
 933 540 1015 461 1015 322 c 0
 1015 297 1013 269 1007 240 c 1
 587 240 l 1
 586 227 585 215 585 203 c 0
 585 113 623 50 720 50 c 0
 820 50 882 111 903 170 c 1
 983 170 l 1
 943 62 846 -20 706 -20 c 0
 618 -20 549 23 520 98 c 1
 461 21 376 -20 286 -20 c 0
 167 -20 83 53 83 186 c 0
163 194 m 0
 163 98 217 50 300 50 c 0
 400 50 483 120 511 260 c 0
 516 283 518 304 518 324 c 0
 518 421 464 470 381 470 c 0
 281 470 198 400 171 260 c 0
 166 236 163 214 163 194 c 0
600 310 m 1
 940 310 l 1
 942 320 943 331 943 341 c 0
 943 409 897 470 801 470 c 0
 701 470 616 390 600 310 c 1
EndSplineSet
Validated: 1
EndChar

StartChar: brokenbar
Encoding: 166 166 138
GlifName: brokenbar
Width: 240
VWidth: 0
Flags: W
VStem: 68 80<-60 20> 136 80<210 290> 164 80<430 510> 232 80<700 780>
DStem2: 68 -60 148 -60 0.190809 0.981627<15.2647 356.545 514.58 855.86>
LayerCount: 2
Fore
SplineSet
68 -60 m 1x80
 136 290 l 1
 216 290 l 1x40
 148 -60 l 1
 68 -60 l 1x80
164 430 m 1x20
 232 780 l 1
 312 780 l 1x10
 244 430 l 1
 164 430 l 1x20
EndSplineSet
Validated: 1
EndChar

StartChar: longs
Encoding: 383 383 139
GlifName: longs
Width: 290
VWidth: 0
Flags: W
HStem: 0 21G<90 173.895> 450 70<121 177> 670 70<307.95 399.431>
VStem: 90 80<0 80>
DStem2: 90 0 170 0 0.190809 0.981627<15.2647 458.333 529.718 690.575>
LayerCount: 2
Fore
SplineSet
90 0 m 1
 177 450 l 1
 107 450 l 1
 121 520 l 1
 191 520 l 1
 201 570 l 2
 228 710 284 740 344 740 c 0
 374 740 401 737 413 735 c 1
 399 665 l 1
 389 667 375 670 350 670 c 0
 310 670 295 640 281 570 c 2
 170 0 l 1
 90 0 l 1
EndSplineSet
Validated: 1
EndChar

StartChar: macron
Encoding: 175 175 142
GlifName: macron
Width: 300
VWidth: 0
Flags: W
HStem: 680 70<166 412>
VStem: 152 274
LayerCount: 2
Fore
SplineSet
152 680 m 25
 166 750 l 25
 426 750 l 25
 412 680 l 25
 152 680 l 25
EndSplineSet
Validated: 1
EndChar

StartChar: underscore
Encoding: 95 95 151
GlifName: underscore
Width: 500
VWidth: 0
Flags: W
HStem: -160 70<-37 489>
LayerCount: 2
Fore
SplineSet
-51 -160 m 25
 -37 -90 l 25
 503 -90 l 25
 489 -160 l 25
 -51 -160 l 25
EndSplineSet
Validated: 1
EndChar

StartChar: periodcentered
Encoding: 183 183 152
GlifName: periodcentered
Width: 200
Flags: W
HStem: 315 90<159 221>
VStem: 141 80<315 395> 159 80<325 405>
LayerCount: 2
Fore
SplineSet
141 315 m 25xc0
 159 405 l 25
 239 405 l 25xa0
 221 315 l 25
 141 315 l 25xc0
EndSplineSet
Validated: 1
EndChar

StartChar: uni00AD
Encoding: 173 173 153
GlifName: uni00A_D_
Width: 300
VWidth: 0
Flags: W
HStem: 235 70<99 306>
VStem: 86 234
LayerCount: 2
Fore
SplineSet
86 235 m 25
 99 305 l 25
 320 305 l 25
 306 235 l 25
 86 235 l 25
EndSplineSet
Validated: 1
EndChar

StartChar: AE
Encoding: 198 198 154
GlifName: A_E_
Width: 760
VWidth: 0
Flags: W
HStem: 0 72<448 740> 219 72<264 393> 324 72<511 773> 648 72<460 476 560 866>
DStem2: 20 0 104 0 0.485643 0.874157<40.794 290.997 372.877 781.885> 350 0 434.005 0 0.190809 0.981627<89.3764 223.181 296.53 346.096 419.445 662.1>
LayerCount: 2
Fore
SplineSet
880 720 m 1
 866 648 l 1
 560 648 l 1
 511 396 l 1
 787 396 l 1
 773 324 l 1
 497 324 l 1
 448 72 l 1
 754 72 l 1
 740 0 l 1
 350 0 l 1
 393 219 l 1
 225 219 l 1
 104 0 l 1
 20 0 l 1
 420 720 l 1
 880 720 l 1
407 291 m 1
 476 650 l 1
 460 650 l 1
 264 291 l 1
 407 291 l 1
EndSplineSet
Validated: 1
EndChar

StartChar: endash
Encoding: 8211 8211 155
GlifName: endash
Width: 500
VWidth: 0
Flags: W
HStem: 280 70<162 582>
LayerCount: 2
Fore
SplineSet
148 280 m 1
 162 350 l 1
 596 350 l 1
 582 280 l 1
 148 280 l 1
EndSplineSet
Validated: 1
EndChar

StartChar: emdash
Encoding: 8212 8212 156
GlifName: emdash
Width: 1000
VWidth: 0
Flags: W
HStem: 280 70<162 1082>
LayerCount: 2
Fore
SplineSet
148 280 m 1
 162 350 l 1
 1096 350 l 1
 1082 280 l 1
 148 280 l 1
EndSplineSet
Validated: 1
EndChar

StartChar: paragraph
Encoding: 182 182 157
GlifName: paragraph
Width: 520
VWidth: 0
Flags: W
HStem: 0 21G<360 443.889> 700 20G<325 580>
VStem: 360 80<0 80>
DStem2: 360 0 440 0 0.190809 0.981627<15.2647 295.357>
LayerCount: 2
Fore
SplineSet
132 450 m 0
 132 629 270 720 380 720 c 2
 580 720 l 1
 440 0 l 1
 360 0 l 1
 416 290 l 1
 296 290 l 2
 209 290 132 339 132 450 c 0
EndSplineSet
Validated: 1
EndChar

StartChar: florin
Encoding: 402 402 162
GlifName: florin
Width: 320
VWidth: 0
Flags: W
HStem: -220 70<-10.0597 82.4502> 450 70<151 207 301 377> 670 70<337.95 430.964>
DStem2: 76.9553 -220 156.955 -220 0.190809 0.981627<77.3432 682.504 769.154 914.747>
LayerCount: 2
Fore
SplineSet
207 450 m 1
 137 450 l 1
 151 520 l 1
 221 520 l 1
 231 570 l 2
 258 710 314 740 374 740 c 0
 404 740 432 734 442 730 c 1
 429 665 l 1
 410 668 400 670 380 670 c 0
 340 670 325 640 311 570 c 2
 301 520 l 1
 391 520 l 1
 377 450 l 1
 287 450 l 1
 190 -50 l 2
 167 -170 127 -220 47 -220 c 0
 7 -220 -3 -217 -21 -210 c 1
 -8 -145 l 1
 11 -148 21 -150 41 -150 c 0
 81 -150 96 -120 110 -50 c 2
 207 450 l 1
EndSplineSet
Validated: 1
EndChar

StartChar: caron
Encoding: 711 711 163
GlifName: caron
Width: 300
VWidth: 0
Flags: W
HStem: 600 150<227 236>
VStem: 356 70<680 750>
DStem2: 236 750 166 750 0.376708 -0.926332<0 107.702> 276 650 307 600 0.621505 0.78341<0 128.061>
LayerCount: 2
Fore
SplineSet
166 750 m 1
 236 750 l 1
 276 650 l 5
 356 750 l 1
 426 750 l 1
 307 600 l 1
 227 600 l 1
 166 750 l 1
EndSplineSet
Validated: 1
EndChar

StartChar: circumflex
Encoding: 710 710 164
GlifName: circumflex
Width: 300
VWidth: 0
Flags: W
HStem: 600 150<247 256>
VStem: 137 70<600 670>
DStem2: 137 600 207 600 0.621505 0.78341<43.5054 166.407> 336 750 285 695 0.376708 -0.926332<31.7361 135.559>
LayerCount: 2
Fore
SplineSet
137 600 m 5
 256 750 l 5
 336 750 l 5
 397 600 l 5
 327 600 l 5
 285 695 l 5
 207 600 l 5
 137 600 l 5
EndSplineSet
Validated: 1
EndChar

StartChar: uni0237
Encoding: 567 567 178
GlifName: uni0237
Width: 240
Flags: W
HStem: -220 70<-50.1207 42.2511> 500 20G<177.105 261>
VStem: 181 80<440 520>
DStem2: 36.9553 -220 116.955 -220 0.190809 0.981627<76.195 753.889>
LayerCount: 2
Fore
SplineSet
-61 -210 m 1
 -48 -145 l 1
 -32 -148 -15 -150 1 -150 c 0
 32 -150 55 -129 70 -50 c 2
 181 520 l 1
 261 520 l 1
 150 -50 l 2
 126 -173 88 -220 7 -220 c 0
 -16 -220 -40 -218 -61 -210 c 1
EndSplineSet
Validated: 1
EndChar

StartChar: uni02B9
Encoding: 697 697 196
GlifName: uni02B_9
Width: 240
VWidth: 0
Flags: W
HStem: 500 220<220 257>
VStem: 177 80<500 580> 220 80<640 720>
DStem2: 177 500 257 500 0.190809 0.981627<15.2647 224.163>
LayerCount: 2
Fore
SplineSet
177 500 m 1xc0
 220 720 l 1
 300 720 l 1xa0
 257 500 l 1
 177 500 l 1xc0
EndSplineSet
Validated: 1
EndChar

StartChar: uni02BA
Encoding: 698 698 197
GlifName: uni02B_A_
Width: 380
VWidth: 0
Flags: W
HStem: 500 220<220 257 360 397>
VStem: 177 80<500 580> 220 80<640 720> 317 80<500 580> 360 80<640 720>
DStem2: 177 500 257 500 0.190809 0.981627<15.2647 224.163> 317 500 397 500 0.190809 0.981627<15.2647 224.163>
LayerCount: 2
Fore
SplineSet
177 500 m 1xc0
 220 720 l 1
 300 720 l 1xa0
 257 500 l 1
 177 500 l 1xc0
317 500 m 1x90
 360 720 l 1
 440 720 l 1x88
 397 500 l 1
 317 500 l 1x90
EndSplineSet
Validated: 1
EndChar

StartChar: ae
Encoding: 230 230 202
GlifName: ae
Width: 950
VWidth: 0
Flags: W
HStem: -20 70<170.828 338.568 589.637 763.28> 240 70<356.325 457 550 892.736> 250 70<217.186 455.802> 470 70<272.818 448.126 663.219 836.051>
VStem: 63 83<74.4364 190.468> 132 80<370 450> 893 72<310.069 414.701>
LayerCount: 2
Fore
SplineSet
550 310 m 1xd2
 890 310 l 1
 892 320 893 331 893 341 c 0
 893 410 847 470 751 470 c 0
 651 470 566 390 550 310 c 1xd2
347 320 m 0xba
 407 320 441 315 470 310 c 1
 476 340 l 2
 479 353 480 366 480 377 c 0
 480 441 438 470 366 470 c 0
 281 470 224 430 212 370 c 1
 132 370 l 1
 151 470 250 540 380 540 c 0
 470 540 527 506 551 442 c 1
 608 504 685 540 765 540 c 0
 883 540 965 461 965 322 c 0
 965 297 963 269 957 240 c 1
 537 240 l 1xd6
 536 228 535 215 535 204 c 0
 535 113 572 50 670 50 c 0
 770 50 832 111 853 170 c 1
 933 170 l 1
 893 62 796 -20 656 -20 c 0
 567 -20 498 24 469 101 c 1
 387 9 321 -20 211 -20 c 0
 140 -20 63 12 63 103 c 0
 63 252 204 320 347 320 c 0xba
146 125 m 0xba
 146 78 183 50 245 50 c 0
 365 50 433 120 449 200 c 2
 457 240 l 1xda
 428 246 404 250 354 250 c 0
 209 250 146 204 146 125 c 0xba
EndSplineSet
Validated: 1
EndChar

StartChar: seven
Encoding: 55 55 203
GlifName: seven
Width: 580
VWidth: 0
Flags: W
HStem: 0 21G<146 242.368> 648 72<200 547>
VStem: 146 84<0 84>
DStem2: 146 0 230 0 0.525969 0.850504<44.1814 762.04>
LayerCount: 2
Fore
SplineSet
186 648 m 1
 200 720 l 1
 660 720 l 1
 653 684 l 1
 230 0 l 1
 146 0 l 1
 547 648 l 1
 186 648 l 1
EndSplineSet
Validated: 1
EndChar

StartChar: section
Encoding: 167 167 204
GlifName: section
Width: 510
VWidth: 0
Flags: W
HStem: -60 70<179.94 342.741> 670 70<299.112 462.06>
VStem: 76 81<33.4616 100> 103 82<297.626 383.188> 170 82<526.231 627.048> 391 82<54.4159 152.572> 457 82<296.193 382.786> 485 81<580 646.538>
LayerCount: 2
Fore
SplineSet
76 72 m 0xe4
 76 81 77 91 79 100 c 1
 159 100 l 1
 158 94 157 88 157 82 c 0xe4
 157 41 187 10 257 10 c 0
 339 10 391 54 391 115 c 0
 391 146 365 166 290 180 c 0
 163 203 103 240 103 311 c 0xd4
 103 320 104 330 106 340 c 0
 116 393 151 439 208 468 c 1
 181 489 170 516 170 548 c 0
 170 653 260 740 399 740 c 0
 514 740 566 678 566 608 c 0
 566 599 565 589 563 580 c 1
 483 580 l 1
 484 586 485 592 485 598 c 0xc9
 485 639 455 670 385 670 c 0
 302 670 252 627 252 565 c 0
 252 534 277 514 352 500 c 0
 478 477 539 440 539 370 c 0xca
 539 296 498 244 434 212 c 1
 461 191 473 164 473 132 c 0
 473 28 381 -60 243 -60 c 0
 128 -60 76 2 76 72 c 0xe4
185 333 m 0xd2
 185 305 218 277 306 260 c 0
 318 258 330 255 340 252 c 1
 406 261 457 299 457 347 c 0
 457 375 424 403 337 420 c 0
 324 422 313 425 302 428 c 1
 236 419 185 381 185 333 c 0xd2
EndSplineSet
Validated: 1
EndChar

StartChar: four
Encoding: 52 52 205
GlifName: four
Width: 580
VWidth: 0
Flags: W
HStem: 0 21G<356 443.899> 159 72<169 387 485 571> 700 20G<479.19 580>
VStem: 356 84<0 84>
DStem2: 85 231 169 231 0.643412 0.76552<54.0466 523.179> 356 0 440 0 0.190809 0.981627<16.028 161.994 251.37 601.103>
LayerCount: 2
Fore
SplineSet
471 590 m 1
 169 231 l 1
 401 231 l 1
 471 590 l 1
580 720 m 1
 485 231 l 1
 585 231 l 1
 571 159 l 1
 471 159 l 1
 440 0 l 1
 356 0 l 1
 387 159 l 1
 71 159 l 1
 85 231 l 1
 496 720 l 1
 580 720 l 1
EndSplineSet
Validated: 1
EndChar

StartChar: eight
Encoding: 56 56 206
GlifName: eight
Width: 580
VWidth: 0
Flags: W
HStem: -20 72<207.258 400.822> 354 72<292.911 447.47> 668 72<329.075 502.375>
VStem: 75 84<97.5877 255.039> 173 85<460.141 599.684> 499 85<147.033 306.835> 539 85<498.277 632.092>
LayerCount: 2
Fore
SplineSet
258 523 m 0xfa
 258 472 288 426 373 426 c 0
 479 426 539 496 539 574 c 0
 539 624 506 668 420 668 c 0
 313 668 258 603 258 523 c 0xfa
159 165 m 0
 159 101 198 52 300 52 c 0
 429 52 499 130 499 236 c 0xfc
 499 301 460 354 359 354 c 0
 230 354 159 269 159 165 c 0
246 392 m 1
 200 419 173 458 173 513 c 0
 173 631 284 740 434 740 c 0
 559 740 624 660 624 579 c 0xfa
 624 485 562 427 490 392 c 1
 548 362 584 319 584 249 c 0
 584 94 458 -20 286 -20 c 0
 146 -20 75 56 75 156 c 0
 75 284 155 353 246 392 c 1
EndSplineSet
Validated: 1
EndChar

StartChar: asciicircum
Encoding: 94 94 207
GlifName: asciicircum
Width: 400
VWidth: 0
Flags: W
HStem: 420 280
VStem: 102 70<420 490> 392 70<420 490>
DStem2: 102 420 172 420 0.569515 0.821981<39.8661 307.268> 376 700 324 640 0.293606 -0.955927<42.0881 272.357>
LayerCount: 2
Fore
SplineSet
172 420 m 5
 102 420 l 5
 296 700 l 5
 376 700 l 5
 462 420 l 5
 392 420 l 5
 324 640 l 5
 172 420 l 5
EndSplineSet
Validated: 1
EndChar

StartChar: question
Encoding: 63 63 208
GlifName: question
Width: 520
Flags: W
HStem: 0 90<237 300> 520 21G<141 230> 670 70<305.222 465.195>
VStem: 141 80<520 600> 220 80<0 80> 237 80<10 90> 505 81<475.924 630.772>
DStem2: 220 0 300 0 0.190809 0.981627<15.2647 91.5902 188.438 308.96>
LayerCount: 2
Fore
SplineSet
141 520 m 17xf2
 168 660 284 740 404 740 c 0
 509 740 586 679 586 570 c 0
 586 474 539 418 472 370 c 0
 401 319 352 270 341 210 c 10
 333 170 l 1
 253 170 l 9
 265 230 l 18
 274 280 325 339 396 390 c 0
 461 438 505 477 505 561 c 0
 505 628 466 670 390 670 c 0
 300 670 239 610 221 520 c 9
 141 520 l 17xf2
220 0 m 25xea
 237 90 l 25
 317 90 l 25xe6
 300 0 l 25
 220 0 l 25xea
EndSplineSet
Validated: 1
EndChar

StartChar: questiondown
Encoding: 191 191 215
GlifName: questiondown
Width: 520
Flags: W
HStem: -220 70<155.805 315.902> -20 20G<391.5 480> 430 90<321 384>
VStem: 35 81<-110.372 42.3348> 304 80<430 510> 321 80<440 520> 400 80<-80 0>
DStem2: 176.978 -220 256.866 -220 0.190809 0.981627<460.19 580.711 677.559 753.885>
LayerCount: 2
Fore
SplineSet
35 -50 m 0xf2
 35 -34 37 -18 40 0 c 0
 52 60 96 111 149 150 c 0
 220 201 269 250 280 310 c 10
 288 350 l 1
 368 350 l 9
 356 290 l 18
 347 240 296 181 225 130 c 0
 172 91 130 50 120 0 c 0
 117 -14 116 -28 116 -40 c 0
 116 -108 155 -150 231 -150 c 0
 321 -150 383 -90 400 0 c 9
 480 0 l 17
 453 -140 337 -220 217 -220 c 0
 112 -220 35 -159 35 -50 c 0xf2
304 430 m 25xf8
 321 520 l 25
 401 520 l 25xf4
 384 430 l 25
 304 430 l 25xf8
EndSplineSet
Validated: 1
EndChar

StartChar: six
Encoding: 54 54 216
GlifName: six
Width: 580
VWidth: 0
Flags: W
HStem: -20 72<221.651 393.783> 408 72<299.257 456.826> 668 72<342.265 504.701>
VStem: 92 77<105.267 286.961> 510 85<175.857 354.686> 550 84<560 622.012>
LayerCount: 2
Fore
SplineSet
169 184 m 0xf8
 169 101 220 52 305 52 c 0
 415 52 510 140 510 276 c 0
 510 359 459 408 374 408 c 0
 264 408 169 320 169 184 c 0xf8
110 360 m 0
 168 660 299 740 449 740 c 0
 538 740 634 689 634 564 c 2
 634 560 l 1
 550 560 l 1
 550 562 l 2xf4
 550 620 504 668 435 668 c 0
 335 668 238 610 193 380 c 1
 240 441 318 480 408 480 c 0
 504 480 595 411 595 286 c 0
 595 92 441 -20 291 -20 c 0
 166 -20 92 41 92 202 c 0
 92 247 98 299 110 360 c 0
EndSplineSet
Validated: 1
EndChar

StartChar: nine
Encoding: 57 57 217
GlifName: nine
Width: 580
VWidth: 0
Flags: W
HStem: -20 72<220.299 382.735> 240 72<268.174 425.743> 668 72<331.217 503.349>
VStem: 91 84<97.9882 160> 130 85<365.314 544.143> 556 77<433.039 614.733>
LayerCount: 2
Fore
SplineSet
215 444 m 0xec
 215 361 266 312 351 312 c 0
 461 312 556 400 556 536 c 0
 556 619 505 668 420 668 c 0
 310 668 215 580 215 444 c 0xec
434 740 m 0
 559 740 633 679 633 518 c 0
 633 473 627 421 615 360 c 0
 557 60 426 -20 276 -20 c 0
 187 -20 91 31 91 156 c 2
 91 160 l 1
 175 160 l 1
 175 158 l 2xf4
 175 100 221 52 290 52 c 0
 390 52 487 110 532 340 c 1
 485 279 407 240 317 240 c 0
 221 240 130 309 130 434 c 0
 130 628 284 740 434 740 c 0
EndSplineSet
Validated: 1
EndChar

StartChar: afii57929
Encoding: 700 700 218
GlifName: uni02B_C_
Width: 240
Flags: W
HStem: 530 190
VStem: 183 40<530 570> 220 80<640 720>
LayerCount: 2
Fore
SplineSet
183 530 m 5xc0
 215 561 234 590 242 630 c 5
 202 630 l 13
 220 720 l 29
 300 720 l 29xa0
 282 630 l 6
 274 590 255 561 223 530 c 5
 183 530 l 5xc0
EndSplineSet
Validated: 1
EndChar

StartChar: uni02BB
Encoding: 699 699 219
GlifName: uni02B_B_
Width: 240
Flags: W
HStem: 530 190
VStem: 183 80<530 610> 260 40<680 720>
LayerCount: 2
Fore
SplineSet
183 530 m 29xc0
 201 620 l 6
 209 660 228 689 260 720 c 5
 300 720 l 5xa0
 268 689 249 660 241 620 c 5
 281 620 l 13
 263 530 l 29
 183 530 l 29xc0
EndSplineSet
Validated: 1
EndChar

StartChar: afii64937
Encoding: 701 701 220
GlifName: uni02B_D_
Width: 240
Flags: W
HStem: 530 21G<215.5 263> 630 90<240.021 282>
VStem: 200 40<535.592 629.764> 220 80<640 720>
LayerCount: 2
Fore
SplineSet
200 603 m 0xe0
 200 611 200 620 202 630 c 2
 220 720 l 25
 300 720 l 25xd0
 282 630 l 17
 242 630 l 1
 240 620 240 611 240 603 c 0
 240 576 248 554 263 530 c 1
 223 530 l 1
 208 554 200 576 200 603 c 0xe0
EndSplineSet
Validated: 1
EndChar

StartChar: breve
Encoding: 728 728 227
GlifName: breve
Width: 0
VWidth: 0
Flags: W
HStem: 570 60<-63.7157 17.7438> 700 20G<-141.5 -69 45 120>
VStem: -144 72<636.104 720> 50 70<650 720>
LayerCount: 2
Fore
SplineSet
-144 679 m 0
 -144 692 -143 705 -140 720 c 1
 -69 720 l 1
 -71 709 -72 698 -72 688 c 0
 -72 654 -59 630 -28 630 c 0
 12 630 40 670 50 720 c 1
 120 720 l 1
 102 630 41 570 -39 570 c 0
 -106 570 -144 612 -144 679 c 0
EndSplineSet
Validated: 1
EndChar

StartChar: uni02BE
Encoding: 702 702 240
GlifName: uni02B_E_
Width: 210
VWidth: 0
Flags: W
HStem: 460 70<123 200.104> 650 70<160 213.328>
VStem: 226 62<554.89 637.024>
LayerCount: 2
Fore
SplineSet
109 460 m 1
 123 530 l 1
 174 530 226 552 226 600 c 0
 226 634 192 650 146 650 c 1
 160 720 l 1
 239 720 288 681 288 617 c 0
 288 518 204 460 109 460 c 1
EndSplineSet
Validated: 1
EndChar

StartChar: uni02BF
Encoding: 703 703 246
GlifName: uni02B_F_
Width: 210
VWidth: 0
Flags: W
HStem: 460 70<225.828 279> 650 70<238.725 316>
VStem: 152 62<543.913 625.229>
LayerCount: 2
Fore
SplineSet
152 562 m 0
 152 661 234 720 330 720 c 1
 316 650 l 1
 263 650 214 628 214 579 c 0
 214 546 248 530 293 530 c 1
 279 460 l 1
 200 460 152 499 152 562 c 0
EndSplineSet
Validated: 1
EndChar

StartChar: uni0311
Encoding: 785 785 249
GlifName: uni0311
Width: 0
VWidth: 0
Flags: W
HStem: 660 60<-67.0992 14.5255>
VStem: -169 70<570 640> 24 71<570 653.022>
LayerCount: 2
Fore
SplineSet
-169 570 m 1
 -152 660 -90 720 -10 720 c 0
 57 720 95 677 95 610 c 0
 95 597 94 584 91 570 c 1
 21 570 l 1
 23 581 24 591 24 600 c 0
 24 635 9 660 -22 660 c 0
 -62 660 -89 620 -99 570 c 1
 -169 570 l 1
EndSplineSet
Validated: 1
EndChar

StartChar: three
Encoding: 51 51 250
GlifName: three
Width: 580
VWidth: 0
Flags: W
HStem: -20 72<206.77 404.357> 334 72<309 439.541> 540 21G<175 266> 668 72<336.68 496.534>
VStem: 73 85<96.4023 190> 175 84<540 624> 497 85<140.25 288.079> 534 85<482.295 631.651>
LayerCount: 2
Fore
SplineSet
77 190 m 1xfe
 161 190 l 1
 159 180 158 169 158 160 c 0
 158 96 204 52 300 52 c 0
 421 52 497 120 497 227 c 0xfe
 497 294 449 334 295 334 c 1
 309 406 l 1
 475 406 534 464 534 568 c 0
 534 625 497 668 420 668 c 0
 330 668 273 610 259 540 c 1
 175 540 l 1
 194 640 294 740 434 740 c 0
 557 740 619 663 619 576 c 0xfd
 619 483 561 408 486 372 c 1
 544 342 582 306 582 237 c 0
 582 92 459 -20 286 -20 c 0
 145 -20 73 58 73 152 c 0
 73 164 75 177 77 190 c 1xfe
EndSplineSet
Validated: 1
EndChar

StartChar: ring
Encoding: 730 730 251
GlifName: ring
Width: 0
VWidth: 0
Flags: W
HStem: 440 60<-91.0792 -5.70025> 660 60<-68.1169 15.4537>
VStem: -171 71<507.572 626.141> 25 71<532.79 652.073>
LayerCount: 2
Fore
SplineSet
-171 546 m 0
 -171 645 -97 720 -10 720 c 0
 59 720 96 676 96 613 c 0
 96 513 23 440 -64 440 c 0
 -132 440 -171 484 -171 546 c 0
-100 557 m 0
 -100 526 -85 500 -53 500 c 0
 -8 500 25 550 25 602 c 0
 25 633 11 660 -22 660 c 0
 -67 660 -100 608 -100 557 c 0
EndSplineSet
Validated: 1
EndChar

StartChar: Oslash
Encoding: 216 216 254
GlifName: O_slash
Width: 760
VWidth: 0
Flags: W
HStem: -20 70<287.728 500.531> 670 70<399.469 611.105>
VStem: 99 82<161.127 404.766> 719 82<315.234 558.873>
DStem2: 76 -20 133 -60 0.656365 0.754443<7.23511 124.152 210.535 853.803 941.629 1060.38>
LayerCount: 2
Fore
SplineSet
76 -20 m 1
 156 72 l 1
 119 118 99 181 99 257 c 0
 99 503 261 740 524 740 c 0
 593 740 651 724 696 693 c 1
 772 780 l 1
 824 740 l 1
 744 648 l 1
 781 602 801 539 801 463 c 0
 801 217 639 -20 376 -20 c 0
 308 -20 251 -4 207 26 c 1
 133 -60 l 1
 76 -20 l 1
181 272 m 0
 181 220 192 175 214 139 c 1
 642 630 l 1
 609 655 564 670 510 670 c 0
 299 670 181 462 181 272 c 0
261 88 m 1
 294 64 337 50 390 50 c 0
 601 50 719 258 719 448 c 0
 719 500 708 545 686 581 c 1
 261 88 l 1
EndSplineSet
Validated: 1
EndChar

StartChar: oslash
Encoding: 248 248 255
GlifName: oslash
Width: 580
VWidth: 0
Flags: W
HStem: -20 70<231.701 387.551> 470 70<295.936 452.342>
VStem: 83 80<112.612 311.866> 518 81<206.936 405.877>
DStem2: 76 -20 133 -60 0.622306 0.782774<4.16045 89.7389 168.668 598.102 679.373 766.504>
LayerCount: 2
Fore
SplineSet
76 -20 m 1
 128 46 l 1
 99 81 83 129 83 186 c 0
 83 365 204 540 395 540 c 0
 436 540 472 532 502 516 c 1
 553 580 l 1
 605 540 l 1
 554 475 l 1
 584 440 599 391 599 333 c 0
 599 154 476 -20 286 -20 c 0
 246 -20 211 -12 182 3 c 1
 133 -60 l 1
 76 -20 l 1
163 194 m 0
 163 162 169 134 181 112 c 1
 453 454 l 1
 433 464 409 470 381 470 c 0
 237 470 163 322 163 194 c 0
231 64 m 1
 250 55 273 50 300 50 c 0
 444 50 518 196 518 324 c 0
 518 356 512 384 500 407 c 1
 231 64 l 1
EndSplineSet
Validated: 1
EndChar

StartChar: equal
Encoding: 61 61 256
Width: 500
VWidth: -50
Flags: W
HStem: 205 70<93 500> 355 70<123 529>
LayerCount: 2
Fore
SplineSet
109 355 m 5
 123 425 l 1
 543 425 l 1
 529 355 l 1
 109 355 l 5
80 205 m 1
 93 275 l 1
 513 275 l 1
 500 205 l 1
 80 205 l 1
EndSplineSet
Validated: 1
EndChar

StartChar: ogonek
Encoding: 731 731 257
Width: 270
Flags: W
HStem: -210 55<91.9821 192.576> -20 20G<101.5 199>
VStem: 16 72<-146.951 -64.4203>
LayerCount: 2
Fore
SplineSet
140 0 m 1
 199 0 l 1
 112 -45 88 -80 88 -118 c 0
 88 -143 114 -155 150 -155 c 0
 170 -155 186 -148 204 -135 c 1
 193 -190 l 1
 170 -202 149 -210 119 -210 c 0
 58 -210 16 -187 16 -134 c 0
 16 -64 63 -26 140 0 c 1
EndSplineSet
Validated: 1
EndChar

StartChar: Aogonek
Encoding: 260 260 258
Width: 660
VWidth: 0
Flags: W
HStem: -203 55<520.449 620.576> 0 21G<20 111> 220 70<259 513> 700 20G<408.889 523.333>
VStem: 444 72<-139.951 -57.2896>
DStem2: 20 0 100 0 0.485643 0.874157<38.8514 289.929 369.574 779.943> 520 720 456 650 0.164399 -0.986394<58.526 422.999 494.019 716.364>
LayerCount: 2
Fore
SplineSet
100 0 m 1
 20 0 l 1
 420 720 l 1
 520 720 l 1
 640 0 l 1
 614 0 l 1
 537 -43 516 -75 516 -111 c 0
 516 -136 542 -148 578 -148 c 0
 598 -148 614 -141 632 -128 c 1
 621 -183 l 1
 598 -195 578 -203 548 -203 c 0
 487 -203 444 -180 444 -127 c 0
 444 -59 488 -22 560 4 c 1
 525 220 l 1
 221 220 l 1
 100 0 l 1
513 290 m 1
 456 650 l 1
 259 290 l 1
 513 290 l 1
EndSplineSet
Validated: 1
EndChar

StartChar: aogonek
Encoding: 261 261 259
Width: 550
VWidth: 0
Flags: W
HStem: -205 55<377.982 478.576> -20 70<170.828 333.998> 250 70<217.186 455.802> 470 70<272.818 447.801>
VStem: 63 83<74.4364 190.468> 132 80<370 450> 302 72<-141.951 -59.2335> 480 81<311.953 439.544>
DStem2: 370.276 -205 450.063 -205 0.190809 0.981627<327.316 453.372 523.926 591.736>
LayerCount: 2
Fore
SplineSet
347 320 m 0xfb
 407 320 441 315 470 310 c 1
 476 340 l 2
 479 353 480 366 480 377 c 0
 480 441 438 470 366 470 c 0
 281 470 224 430 212 370 c 1
 132 370 l 1xf7
 151 470 250 540 380 540 c 0
 493 540 561 487 561 389 c 0
 561 374 559 357 556 340 c 2
 490 0 l 1
 476 0 l 1
 397 -43 374 -77 374 -113 c 0
 374 -138 400 -150 436 -150 c 0
 456 -150 472 -143 490 -130 c 1
 479 -185 l 1
 456 -197 435 -205 405 -205 c 0
 344 -205 302 -182 302 -129 c 0
 302 -60 348 -23 421 3 c 1
 424 70 l 1
 377 9 311 -20 211 -20 c 0
 140 -20 63 12 63 103 c 0
 63 252 204 320 347 320 c 0xfb
146 125 m 0xfb
 146 78 183 50 245 50 c 0
 365 50 433 120 449 200 c 2
 457 240 l 1
 428 246 404 250 354 250 c 0
 209 250 146 204 146 125 c 0xfb
EndSplineSet
Validated: 1
EndChar

StartChar: Iogonek
Encoding: 302 302 260
Width: 240
VWidth: 0
Flags: W
HStem: -203 55<28.7778 148.288> 700 20G<216.112 300>
VStem: -47 71<-138.657 -61.8907> 220 80<640 720>
DStem2: 40.5689 -203 120.541 -203 0.190809 0.981627<222.059 940.279>
LayerCount: 2
Fore
SplineSet
-47 -124 m 0
 -47 -117 -46 -110 -45 -103 c 0
 -35 -54 13 -19 81 5 c 1
 220 720 l 1
 300 720 l 1
 160 0 l 1
 140 0 l 1
 62 -34 34 -56 25 -103 c 0
 24 -106 24 -108 24 -111 c 0
 24 -136 51 -148 96 -148 c 0
 121 -148 142 -141 160 -128 c 1
 149 -183 l 1
 126 -195 106 -203 76 -203 c 0
 4 -203 -47 -179 -47 -124 c 0
EndSplineSet
Validated: 1
EndChar

StartChar: iogonek
Encoding: 303 303 261
Width: 240
VWidth: 0
Flags: W
HStem: -203 55<28.7778 148.288> 500 20G<177.117 261> 630 90<220 282>
VStem: -47 71<-138.657 -61.8907> 181 80<440 520> 202 80<630 710> 220 80<640 720>
DStem2: 40.5689 -203 120.541 -203 0.190809 0.981627<222.059 736.512 863.763 940.279>
LayerCount: 2
Fore
SplineSet
-47 -124 m 0xf8
 -47 -118 -46 -110 -45 -103 c 0
 -35 -54 13 -19 81 5 c 1
 181 520 l 1
 261 520 l 1
 160 0 l 1
 140 0 l 1
 62 -34 34 -56 25 -103 c 0
 24 -106 24 -108 24 -111 c 0
 24 -136 51 -148 96 -148 c 0
 121 -148 142 -141 160 -128 c 1
 149 -183 l 1
 126 -195 106 -203 76 -203 c 0
 4 -203 -47 -179 -47 -124 c 0xf8
202 630 m 1xf4
 220 720 l 1
 300 720 l 1xf2
 282 630 l 1
 202 630 l 1xf4
EndSplineSet
Validated: 1
EndChar

StartChar: Eogonek
Encoding: 280 280 262
Width: 620
VWidth: 0
Flags: W
HStem: -203 55<293.482 393.576> 0 72<178 322 352.436 600> 324 72<241 633> 648 72<290 726>
VStem: 218 71<-139.951 -57.4109>
DStem2: 40.5408 -203 124.545 -203 0.190809 0.981627<296.176 552.896 626.244 882.964>
LayerCount: 2
Fore
SplineSet
80 0 m 1
 220 720 l 1
 740 720 l 1
 726 648 l 1
 290 648 l 1
 241 396 l 1
 647 396 l 1
 633 324 l 1
 227 324 l 1
 178 72 l 1
 614 72 l 1
 600 0 l 1
 387 0 l 1
 311 -42 289 -75 289 -111 c 0
 289 -136 315 -148 351 -148 c 0
 371 -148 387 -141 405 -128 c 1
 394 -183 l 1
 371 -195 351 -203 321 -203 c 0
 260 -203 218 -180 218 -127 c 0
 218 -62 257 -27 322 0 c 1
 80 0 l 1
EndSplineSet
Validated: 1
EndChar

StartChar: eogonek
Encoding: 281 281 263
Width: 580
VWidth: 0
Flags: W
HStem: -223 55<209.449 310.485> 240 70<180 522.736> 470 70<294.237 463.689>
VStem: 84 81<107.213 238.963> 133 72<-159.951 -78.5515> 523 72<310.069 414.484>
LayerCount: 2
Fore
SplineSet
395 540 m 0xf4
 513 540 595 461 595 322 c 0
 595 297 593 269 587 240 c 1
 167 240 l 1
 166 228 165 216 165 205 c 0xf4
 165 114 202 50 300 50 c 0
 400 50 462 111 483 170 c 1
 563 170 l 1
 525 67 435 -13 305 -20 c 1
 229 -62 205 -95 205 -131 c 0
 205 -156 231 -168 267 -168 c 0
 287 -168 303 -161 321 -148 c 1
 311 -203 l 1
 288 -215 267 -223 237 -223 c 0
 176 -223 133 -200 133 -147 c 0xec
 133 -81 177 -43 247 -17 c 1
 149 -1 84 75 84 191 c 0
 84 399 241 540 395 540 c 0xf4
180 310 m 1
 520 310 l 1
 522 320 523 331 523 341 c 0
 523 409 477 470 381 470 c 0
 281 470 196 390 180 310 c 1
EndSplineSet
Validated: 1
EndChar

StartChar: Uogonek
Encoding: 370 370 264
Width: 680
VWidth: 0
Flags: W
HStem: -223 55<244.778 365.238> -20 70<312.543 449.409> 700 20G<216.128 300 656.128 740>
VStem: 120 82<103.598 316.094> 169 71<-159.322 -82.2726> 220 80<640 720> 660 80<640 720>
DStem2: 37.0581 -223 117.058 -223 0.190809 0.981627<433.879 960.581> 477.058 -223 557.058 -223 0.190809 0.981627<363.794 960.581>
LayerCount: 2
Fore
SplineSet
120 168 m 0xf2
 120 193 123 221 129 250 c 2
 220 720 l 1
 300 720 l 1
 209 250 l 2
 205 227 202 206 202 186 c 0xf6
 202 102 245 50 350 50 c 0
 480 50 546 130 569 250 c 2
 660 720 l 1
 740 720 l 1
 649 250 l 2
 617 87 524 -12 357 -20 c 1
 279 -54 250 -76 241 -123 c 0
 240 -126 240 -128 240 -131 c 0
 240 -156 267 -168 312 -168 c 0
 337 -168 358 -161 376 -148 c 1
 366 -203 l 1
 343 -215 322 -223 292 -223 c 0
 220 -223 169 -199 169 -144 c 0xea
 169 -138 170 -130 171 -123 c 0
 180 -76 226 -42 290 -18 c 1
 173 -5 120 61 120 168 c 0xf2
EndSplineSet
Validated: 1
EndChar

StartChar: uogonek
Encoding: 371 371 265
Width: 580
VWidth: 0
Flags: W
HStem: -206 55<353.215 473.287> -20 70<219.582 352.183> 500 20G<167.111 251 507.118 591>
VStem: 97 85<87.7741 249.531> 171 80<440 520> 277 72<-143.112 -63.5266> 511 80<440 520>
DStem2: 29.8568 -206 109.969 -206 0.190809 0.981627<381.849 739.593> 370.18 -206 449.958 -206 0.190809 0.981627<225.078 274.927 313.162 739.531>
LayerCount: 2
Fore
SplineSet
101 160 m 2xf6
 171 520 l 1
 251 520 l 1xee
 185 180 l 2
 183 171 182 162 182 153 c 0
 182 95 220 50 290 50 c 0
 370 50 431 110 445 180 c 2
 511 520 l 1
 591 520 l 1
 490 0 l 1
 471 0 l 1
 391 -35 349 -59 349 -114 c 0
 349 -139 375 -151 421 -151 c 0
 446 -151 467 -144 485 -131 c 1
 474 -186 l 1
 451 -198 430 -206 400 -206 c 0
 328 -206 277 -182 277 -126 c 0
 277 -58 335 -22 411 4 c 1
 422 64 l 1
 376 3 326 -20 246 -20 c 0
 166 -20 97 35 97 124 c 0
 97 135 99 147 101 160 c 2xf6
EndSplineSet
Validated: 1
EndChar

StartChar: Thorn
Encoding: 222 222 266
Width: 630
VWidth: 0
Flags: W
HStem: 0 21G<80 163.862> 145 70<202 497.821> 505 70<272 545.633> 700 20G<216.111 300>
VStem: 80 80<0 80> 220 80<640 720> 584 82<308.113 467.353>
DStem2: 80 0 160 0 0.190809 0.981627<15.2647 162.943 234.329 529.686 601.071 733.485>
LayerCount: 2
Fore
SplineSet
80 0 m 1
 220 720 l 1
 300 720 l 1
 272 575 l 1
 502 575 l 2
 589 575 666 526 666 415 c 0
 666 236 528 145 418 145 c 2
 188 145 l 1
 160 0 l 1
 80 0 l 1
202 215 m 1
 432 215 l 2
 509 215 584 297 584 395 c 0
 584 458 547 505 488 505 c 2
 258 505 l 1
 202 215 l 1
EndSplineSet
Validated: 1
EndChar

StartChar: cedilla
Encoding: 184 184 267
Width: 280
Flags: W
HStem: -215 60<10 121.284> -60 60<100 127.8>
VStem: 139 81<-135.361 -75.112>
LayerCount: 2
Fore
SplineSet
-2 -215 m 1
 10 -155 l 1
 91 -148 139 -141 139 -105 c 0
 139 -78 105 -64 58 -60 c 1
 100 0 l 1
 180 0 l 1
 154 -30 l 1
 180 -35 220 -55 220 -97 c 0
 220 -181 139 -203 -2 -215 c 1
EndSplineSet
Validated: 1
EndChar

StartChar: Ccedilla
Encoding: 199 199 268
Width: 720
VWidth: 0
Flags: W
HStem: -228 60<242 353.566> 668 72<404.048 604.16>
VStem: 100 85<161.121 413.491> 372 80<-148.248 -87.4477> 689 84<480 579.706>
LayerCount: 2
Fore
SplineSet
519 740 m 0
 686 740 773 641 773 487 c 2
 773 480 l 1
 689 480 l 1
 689 485 l 2
 689 600 623 668 505 668 c 0
 337 668 185 505 185 272 c 0
 185 134 260 52 385 52 c 0
 505 52 599 122 643 240 c 1
 727 240 l 1
 673 94 560 -4 408 -18 c 1
 387 -43 l 1
 413 -48 452 -69 452 -110 c 0
 452 -194 371 -216 231 -228 c 1
 242 -168 l 1
 323 -161 372 -154 372 -117 c 0
 372 -91 337 -77 291 -73 c 1
 330 -18 l 1
 191 -2 100 97 100 260 c 0
 100 553 309 740 519 740 c 0
EndSplineSet
Validated: 1
EndChar

StartChar: ccedilla
Encoding: 231 231 269
Width: 570
Flags: W
HStem: -228 60<157 265.194> 470 70<298.206 466.51>
VStem: 84 81<112.297 310.951> 287 81<-146.972 -86.7685> 518 80<350 419.864>
LayerCount: 2
Fore
SplineSet
84 191 m 0
 84 364 211 540 395 540 c 0
 518 540 598 478 598 350 c 1
 518 350 l 1
 518 433 458 470 381 470 c 0
 241 470 165 323 165 199 c 0
 165 114 210 50 300 50 c 0
 380 50 455 92 483 170 c 1
 563 170 l 1
 524 64 437 -6 324 -18 c 1
 302 -43 l 1
 336 -50 368 -72 368 -109 c 0
 368 -211 219 -222 146 -228 c 1
 157 -168 l 1
 188 -165 287 -162 287 -117 c 0
 287 -82 231 -75 206 -73 c 1
 245 -17 l 1
 138 2 84 87 84 191 c 0
EndSplineSet
Validated: 1
EndChar

StartChar: Scedilla
Encoding: 350 350 270
Width: 640
VWidth: 0
Flags: W
HStem: -228 60<187 298.566> 520 21G<597 682.5> 668 72<347.052 545.674>
VStem: 75 85<103.951 200> 157 86<454.509 576.541> 317 80<-148.248 -87.4477> 557 85<143.152 267.308> 600 85<520 617.9>
LayerCount: 2
Fore
SplineSet
187 -168 m 1xee
 269 -161 317 -154 317 -117 c 0
 317 -91 282 -77 236 -73 c 1
 274 -18 l 1
 137 -6 75 66 75 157 c 0
 75 171 76 185 79 200 c 1
 163 200 l 1
 161 190 160 180 160 170 c 0
 160 104 208 52 330 52 c 0
 469 52 557 123 557 217 c 0xf6
 557 269 505 307 384 329 c 0
 240 355 157 391 157 483 c 0
 157 631 288 740 464 740 c 0
 613 740 685 663 685 563 c 0
 685 549 684 535 681 520 c 1
 597 520 l 1
 599 530 600 541 600 551 c 0xed
 600 617 554 668 450 668 c 0
 332 668 243 596 243 504 c 0
 243 457 287 421 398 401 c 0
 559 372 642 326 642 235 c 0
 642 78 521 -9 352 -19 c 1
 332 -43 l 1
 358 -48 397 -69 397 -110 c 0
 397 -194 316 -216 176 -228 c 1
 187 -168 l 1xee
EndSplineSet
Validated: 1
EndChar

StartChar: scedilla
Encoding: 351 351 271
Width: 510
VWidth: 0
Flags: W
HStem: -228 60<122 233.566> 470 70<260.773 423.06>
VStem: 64 82<78.1874 140> 131 81<327.769 424.207> 252 80<-148.248 -87.4477> 418 83<97.8763 190.681> 446 81<380 446.812>
LayerCount: 2
Fore
SplineSet
67 140 m 1xec
 147 140 l 1
 146 135 146 130 146 125 c 0
 146 82 184 50 265 50 c 0
 354 50 418 91 418 150 c 0xec
 418 178 393 212 300 230 c 0
 177 253 131 289 131 350 c 0
 131 453 223 540 360 540 c 0
 475 540 527 478 527 408 c 0
 527 399 526 389 524 380 c 1
 444 380 l 1
 445 386 446 393 446 399 c 0
 446 440 416 470 346 470 c 0
 265 470 212 426 212 366 c 0xda
 212 334 238 314 313 300 c 0
 446 276 501 240 501 172 c 0
 501 66 414 -6 288 -18 c 1
 267 -43 l 1
 293 -48 332 -69 332 -110 c 0
 332 -194 251 -216 111 -228 c 1
 122 -168 l 1
 203 -161 252 -154 252 -117 c 0
 252 -91 217 -77 171 -73 c 1
 210 -18 l 1
 113 -7 64 45 64 111 c 0
 64 120 65 130 67 140 c 1xec
EndSplineSet
Validated: 1
EndChar

StartChar: Tcommaaccent
Encoding: 354 354 272
Width: 600
VWidth: 0
Flags: W
HStem: -208 60<171 283.01> 648 72<160 384 468 706>
VStem: 301 80<-128.248 -67.4477>
DStem2: 217.986 -208 301.569 -208 0.190809 0.981627<227.841 871.95>
LayerCount: 2
Fore
SplineSet
171 -148 m 1
 253 -141 301 -134 301 -97 c 0
 301 -71 266 -57 220 -53 c 1
 259 3 l 1
 384 648 l 1
 146 648 l 1
 160 720 l 1
 720 720 l 1
 706 648 l 1
 468 648 l 1
 342 0 l 1
 335 0 l 1
 316 -23 l 1
 342 -28 381 -49 381 -90 c 0
 381 -174 301 -196 160 -208 c 1
 171 -148 l 1
EndSplineSet
Validated: 1
EndChar

StartChar: tcommaaccent
Encoding: 355 355 273
Width: 290
VWidth: 0
Flags: W
HStem: -228 60<67 179.01> 450 70<121 177 271 347>
VStem: 110 82<52.7772 215.625> 197 80<-147.964 -88.1272> 220 80<590 670>
DStem2: 45.5242 -228 125.524 -228 0.190809 0.981627<344.726 690.63 777.28 914.793>
LayerCount: 2
Fore
SplineSet
56 -228 m 5xf0
 67 -168 l 1
 149 -161 197 -154 197 -117 c 0xf0
 197 -91 161 -77 116 -73 c 1
 156 -14 l 1
 124 -3 110 23 110 70 c 0
 110 92 113 119 119 150 c 2
 177 450 l 1
 107 450 l 1
 121 520 l 1
 191 520 l 1
 220 670 l 1
 300 670 l 1xe8
 271 520 l 1
 361 520 l 1
 347 450 l 1
 257 450 l 1
 199 150 l 2
 195 127 192 109 192 94 c 0
 192 63 203 50 230 50 c 0
 250 50 260 52 281 55 c 1
 268 -10 l 1
 256 -14 247 -17 232 -19 c 1
 212 -43 l 1
 238 -48 277 -68 277 -109 c 0
 277 -194 197 -216 56 -228 c 5xf0
EndSplineSet
Validated: 1
EndChar

StartChar: five
Encoding: 53 53 276
Width: 580
VWidth: 0
Flags: W
HStem: -20 72<202.533 375.744> 408 72<294.805 436.623> 650 70<327 606>
VStem: 79 84<92.309 150> 491 85<173.792 355.563>
DStem2: 115 310 246 420 0.333421 0.942778<147.384 391.23>
LayerCount: 2
Fore
SplineSet
79 150 m 1
 163 150 l 1
 163 148 l 2
 163 90 211 52 280 52 c 0
 399 52 491 132 491 279 c 0
 491 366 434 408 349 408 c 0
 289 408 236 376 199 310 c 1
 115 310 l 1
 260 720 l 1
 620 720 l 1
 606 650 l 1
 327 650 l 1
 246 420 l 1
 283 461 333 480 383 480 c 0
 479 480 576 427 576 294 c 0
 576 77 408 -20 266 -20 c 0
 167 -20 79 31 79 146 c 2
 79 150 l 1
EndSplineSet
Validated: 1
EndChar

StartChar: asciitilde
Encoding: 126 126 277
Width: 580
VWidth: 0
Flags: W
HStem: 220 60<432.537 510.052> 380 60<202.937 285.286>
VStem: 87 70<240 310> 552 70<350 420>
DStem2: 339 405 380 255 0.665788 -0.746141<-43.9607 182.513>
LayerCount: 2
Fore
SplineSet
87 240 m 5
 114 380 176 440 256 440 c 0
 286 440 315 432 339 405 c 2
 396 340 l 2
 432 299 454 280 474 280 c 0
 504 280 531 310 552 420 c 1
 622 420 l 1
 599 300 543 220 463 220 c 0
 433 220 404 228 380 255 c 2
 322 320 l 2
 286 361 264 380 244 380 c 0
 214 380 178 350 157 240 c 1
 87 240 l 5
EndSplineSet
Validated: 1
EndChar

StartChar: tilde
Encoding: 732 732 278
Width: 350
VWidth: 0
Flags: W
HStem: 585 50<324.729 377.483> 670 50<226.314 278.512>
VStem: 154 50<585 635> 400 50<670 720>
LayerCount: 2
Fore
SplineSet
154 585 m 1
 170 665 210 720 270 720 c 0
 300 720 315 708 320 680 c 0
 325 652 328 635 343 635 c 0
 363 635 386 650 400 720 c 1
 450 720 l 1
 434 640 394 585 334 585 c 0
 304 585 289 597 284 625 c 0
 279 653 275 670 260 670 c 0
 240 670 218 655 204 585 c 1
 154 585 l 1
EndSplineSet
Validated: 1
EndChar

StartChar: hungarumlaut
Encoding: 733 733 288
Width: 380
VWidth: 0
Flags: W
HStem: 600 150
LayerCount: 2
Fore
SplineSet
137 600 m 25
 246 750 l 25
 356 750 l 25
 197 600 l 25
 137 600 l 25
287 600 m 25
 396 750 l 25
 506 750 l 25
 347 600 l 25
 287 600 l 25
EndSplineSet
Validated: 1
EndChar

StartChar: uni0310
Encoding: 784 784 289
Width: 0
VWidth: 0
Flags: W
HStem: 570 60<-83.7157 -2.25616> 700 90<-56 6> 700 20G<-161.5 -89 25 100>
VStem: -164 72<636.104 720> -74 80<700 780> -56 80<710 790> 30 70<650 720>
LayerCount: 2
Fore
SplineSet
-164 679 m 0xb2
 -164 692 -163 705 -160 720 c 1
 -89 720 l 1
 -91 709 -92 698 -92 688 c 0
 -92 654 -79 630 -48 630 c 0
 -8 630 20 670 30 720 c 1
 100 720 l 1
 82 630 21 570 -59 570 c 0
 -126 570 -164 612 -164 679 c 0xb2
-74 700 m 25xba
 -56 790 l 25
 24 790 l 25xd6
 6 700 l 25xda
 -74 700 l 25xba
EndSplineSet
Validated: 1
EndChar

StartChar: uni02CA
Encoding: 714 714 290
Width: 230
VWidth: 0
Flags: W
HStem: 600 150
VStem: 137 219
LayerCount: 2
Fore
SplineSet
137 600 m 25
 246 750 l 25
 356 750 l 25
 197 600 l 25
 137 600 l 25
EndSplineSet
Validated: 1
EndChar

StartChar: uni02CB
Encoding: 715 715 291
Width: 230
VWidth: 0
Flags: W
HStem: 600 150<267 276>
VStem: 166 161
LayerCount: 2
Fore
SplineSet
166 750 m 25
 276 750 l 25
 327 600 l 25
 267 600 l 25
 166 750 l 25
EndSplineSet
Validated: 1
EndChar

StartChar: uni030F
Encoding: 783 783 298
Width: 380
VWidth: 0
Flags: W
HStem: 600 150<307 316 457 466>
VStem: 166 311
LayerCount: 2
Fore
SplineSet
166 750 m 25
 276 750 l 25
 327 600 l 25
 267 600 l 25
 166 750 l 25
316 750 m 25
 426 750 l 25
 477 600 l 25
 417 600 l 25
 316 750 l 25
EndSplineSet
Validated: 1
EndChar

StartChar: plus
Encoding: 43 43 299
Width: 540
VWidth: 0
Flags: W
HStem: 280 70<88 284 378 574>
VStem: 239 80<45 125> 340 80<485 565>
DStem2: 239 45 319 45 0.190809 0.981627<15.2647 239.269 325.919 529.718>
LayerCount: 2
Fore
SplineSet
74 280 m 1
 88 350 l 1
 298 350 l 1
 340 565 l 1
 420 565 l 1
 378 350 l 1
 588 350 l 1
 574 280 l 1
 364 280 l 1
 319 45 l 1
 239 45 l 1
 284 280 l 1
 74 280 l 1
EndSplineSet
Validated: 1
EndChar

StartChar: at
Encoding: 64 64 300
Width: 940
VWidth: 0
Flags: W
HStem: -180 80<329.869 593.743> -10 70<702 759.177> 50 70<427.132 555.625> 460 70<484.937 625.853> 670 70<475.446 727.122>
VStem: 85 81<71.6394 333.521> 300 82<167.068 346.771> 713 80<450 530> 887 82<254.193 510.637>
DStem2: 574.955 -180 655.349 -180 0.190809 0.981627<259.832 325.959 621.507 723.295>
LayerCount: 2
Fore
SplineSet
85 182 m 0xdf80
 85 498 339 740 615 740 c 0
 829 740 969 623 969 407 c 0
 969 199 858 -10 688 -10 c 2
 608 -10 l 1xdf80
 637 140 l 1
 611 93 540 50 460 50 c 0xbf80
 374 50 300 117 300 232 c 0
 300 411 443 530 553 530 c 0
 633 530 686 477 694 430 c 1
 713 530 l 1
 793 530 l 1
 702 60 l 1
 810 60 887 255 887 392 c 0
 887 558 794 670 601 670 c 0
 370 670 166 470 166 195 c 0
 166 23 267 -100 451 -100 c 0
 511 -100 608 -81 658 -60 c 1
 643 -140 l 1
 575 -169 526 -180 415 -180 c 0
 202 -180 85 -20 85 182 c 0xdf80
382 247 m 0
 382 171 425 120 493 120 c 0xbf80
 582 120 671 212 671 334 c 0
 671 410 627 460 559 460 c 0
 471 460 382 370 382 247 c 0
EndSplineSet
Validated: 1
EndChar

StartChar: braceleft
Encoding: 123 123 301
Width: 310
VWidth: 900
Flags: W
HStem: -120 70<205.613 267> 650 70<332.309 416>
VStem: 119 79<-44.6564 152.416> 138 78<-1.56758 223.137>
LayerCount: 2
Fore
SplineSet
71 260 m 1xd0
 86 340 l 1
 187 374 217 500 235 590 c 0
 248 660 290 720 360 720 c 2
 430 720 l 1
 416 650 l 1
 376 650 l 2
 326 650 305 590 291 520 c 0
 277 450 239 328 158 300 c 1
 203 282 216 230 216 176 c 0xd0
 216 119.067552206 198 66.8109032457 198 15 c 0
 198 -23 209 -50 240 -50 c 2
 280 -50 l 1
 267 -120 l 1
 197 -120 l 2
 142 -120 119 -76 119 -23 c 0xe0
 119 28.9700316824 138 80.5975852982 138 134 c 4
 138 189 123 239 71 260 c 1xd0
EndSplineSet
Validated: 1
EndChar

StartChar: braceright
Encoding: 125 125 302
Width: 310
VWidth: 900
Flags: W
HStem: -120 70<10 91.9805> 650 70<160 221.846>
VStem: 212 79<375.973 606.54> 229 80<451.667 644.594>
LayerCount: 2
Fore
SplineSet
-3 -120 m 1xe0
 10 -50 l 1
 50 -50 l 2
 100 -50 124 20 137 90 c 0
 151 160 188 272 268 300 c 1
 224 318 212 373 212 429 c 0xe0
 212 487 229 537 229 588 c 0
 229 625 218 650 186 650 c 2
 146 650 l 1
 160 720 l 1
 230 720 l 2
 286 720 309 682 309 630 c 0xd0
 309 576 291 525 291 469 c 0
 291 412 305 360 356 340 c 1
 341 260 l 1
 240 225 211 110 194 20 c 0
 180 -50 137 -120 67 -120 c 2
 -3 -120 l 1xe0
EndSplineSet
Validated: 1
EndChar

StartChar: uni0327
Encoding: 807 807 303
Width: 0
VWidth: 0
HStem: -215 60<-270 -158.716> -60 60<-180 -152.2>
VStem: -141 81<-135.361 -75.112>
LayerCount: 2
Fore
SplineSet
-282 -215 m 1
 -270 -155 l 1
 -189 -148 -141 -141 -141 -105 c 0
 -141 -78 -175 -64 -222 -60 c 1
 -180 0 l 1
 -100 0 l 1
 -126 -30 l 1
 -100 -35 -60 -55 -60 -97 c 0
 -60 -181 -141 -203 -282 -215 c 1
EndSplineSet
Validated: 1
EndChar

StartChar: less
Encoding: 60 60 304
Width: 600
VWidth: 0
Flags: W
DStem2: 180 310 93 275 0.916157 -0.400819<0 443.191> 107 345 180 310 0.936535 0.350575<56.0969 564.054>
LayerCount: 2
Fore
SplineSet
93 275 m 5
 107 345 l 5
 668 555 l 5
 655 490 l 5
 180 310 l 5
 585 130 l 5
 573 65 l 5
 93 275 l 5
EndSplineSet
Validated: 1
EndChar

StartChar: greater
Encoding: 62 62 305
Width: 600
VWidth: -50
Flags: W
DStem2: 65 130 53 65 0.936329 0.351123<0 507.959> 148 555 135 490 0.91585 -0.401521<14.1928 457.386>
LayerCount: 2
Fore
SplineSet
53 65 m 1
 65 130 l 1
 540 310 l 1
 135 490 l 1
 148 555 l 1
 627 345 l 1
 613 275 l 1
 53 65 l 1
EndSplineSet
Validated: 1
EndChar

StartChar: yen
Encoding: 165 165 306
Width: 640
VWidth: 0
Flags: W
HStem: 0 21G<280 363.857> 140 70<101 307 401 607> 290 70<130 336 430 636> 700 20G<160 270.429 641.857 760>
VStem: 280 80<0 80> 660 100<620 720>
DStem2: 260 720 160 720 0.466759 -0.884385<0 315.774> 280 0 360 0 0.190809 0.981627<15.2647 142.58 229.23 295.357> 406 440 430 360 0.675725 0.737154<0 378.037>
LayerCount: 2
Fore
SplineSet
87 140 m 1
 101 210 l 1
 321 210 l 1
 336 290 l 1
 116 290 l 1
 130 360 l 1
 350 360 l 1
 160 720 l 1
 260 720 l 1
 406 440 l 1
 660 720 l 1
 760 720 l 1
 430 360 l 1
 650 360 l 1
 636 290 l 1
 416 290 l 1
 401 210 l 1
 621 210 l 1
 607 140 l 1
 387 140 l 1
 360 0 l 1
 280 0 l 1
 307 140 l 1
 87 140 l 1
EndSplineSet
Validated: 1
EndChar

StartChar: plusminus
Encoding: 177 177 307
Width: 540
VWidth: 0
Flags: W
HStem: 0 70<34 244 324 520> 235 70<79 276 369 566> 500 20G<327.093 411>
VStem: 331 80<440 520>
DStem2: 230.393 0 310.393 0 0.190809 0.981627<86.5749 239.385 325.844 529.643>
LayerCount: 2
Fore
SplineSet
20 0 m 1
 34 70 l 1
 244 70 l 1
 276 235 l 1
 66 235 l 1
 79 305 l 1
 289 305 l 1
 331 520 l 1
 411 520 l 1
 369 305 l 1
 579 305 l 1
 566 235 l 1
 356 235 l 1
 324 70 l 1
 534 70 l 1
 520 0 l 1
 20 0 l 1
EndSplineSet
Validated: 1
EndChar

StartChar: asterisk
Encoding: 42 42 308
Width: 305
VWidth: 900
Flags: W
HStem: 485 255<294 300>
VStem: 139 60<485 545> 274 50<690 740>
DStem2: 139 485 199 485 0.674769 0.738029<40.4862 128.944> 161 675 151 625 0.935915 -0.352226<8.25215 99.1969> 223.871 485 273.871 485 0.190809 0.981627<167.442 259.88> 300 590 259 550 0.457348 -0.889288<16.8202 90.6311> 304 640 300 590 0.950445 0.310893<0 87.5298>
LayerCount: 2
Fore
SplineSet
151 625 m 1
 161 675 l 1
 254 640 l 1
 274 740 l 1
 324 740 l 1
 304 640 l 1
 411 675 l 1
 401 625 l 1
 300 590 l 1
 354 485 l 1
 294 485 l 1
 259 550 l 1
 199 485 l 1
 139 485 l 1
 235 590 l 1
 151 625 l 1
EndSplineSet
Validated: 1
EndChar

StartChar: uni0328
Encoding: 808 808 309
Width: 0
Flags: W
HStem: -210 55<-177.447 -57.7126> -20 20G<-158.5 -50>
VStem: -253 71<-146.322 -66.6409>
LayerCount: 2
Fore
SplineSet
-253 -131 m 0
 -253 -62 -197 -26 -120 0 c 1
 -50 0 l 1
 -137 -37 -182 -61 -182 -118 c 0
 -182 -143 -155 -155 -110 -155 c 0
 -85 -155 -64 -148 -46 -135 c 1
 -57 -190 l 1
 -80 -202 -101 -210 -131 -210 c 0
 -202 -210 -253 -186 -253 -131 c 0
EndSplineSet
Validated: 1
EndChar

StartChar: degree
Encoding: 176 176 310
Width: 340
VWidth: 0
Flags: W
HStem: 420 60<223.322 309.777> 620 60<244.223 330.678>
VStem: 145 70<487.79 590.801> 339 70<509.199 612.21>
LayerCount: 2
Fore
SplineSet
215 532 m 0
 215 498 237 480 263 480 c 0
 296 480 339 514 339 568 c 0
 339 602 317 620 291 620 c 0
 258 620 215 586 215 532 c 0
302 680 m 0
 365 680 409 635 409 575 c 0
 409 487 329 420 252 420 c 0
 189 420 145 465 145 525 c 0
 145 613 225 680 302 680 c 0
EndSplineSet
Validated: 1
EndChar

StartChar: logicalnot
Encoding: 172 172 311
Width: 460
VWidth: 45
Flags: W
HStem: 280 70<88 414>
VStem: 388 80<145 225>
DStem2: 388 145 468 145 0.190809 0.981627<15.2647 137.481>
LayerCount: 2
Fore
SplineSet
74 280 m 1
 88 350 l 1
 508 350 l 1
 468 145 l 1
 388 145 l 1
 414 280 l 1
 74 280 l 1
EndSplineSet
Validated: 1
EndChar

StartChar: percent
Encoding: 37 37 312
Width: 690
Flags: W
HStem: 20 60<496.583 582.705> 220 60<514.967 602.26> 420 60<224.391 310.397> 620 60<242.76 330.26>
VStem: 145 71<486.987 591.501> 339 71<508.904 612.796> 417 71<88.6786 191.564> 611 71<108.904 212.796>
DStem2: 137 85 181 55 0.672607 0.74<7.39471 756.084>
LayerCount: 2
Fore
SplineSet
137 85 m 1
 645 645 l 1
 690 615 l 1
 181 55 l 1
 137 85 l 1
145 525 m 0
 145 607 221 680 302 680 c 0
 363 680 410 637 410 575 c 0
 410 494 332 420 252 420 c 0
 191 420 145 463 145 525 c 0
216 534 m 0
 216 505 231 480 263 480 c 0
 306 480 339 526 339 566 c 0
 339 596 323 620 291 620 c 0
 247 620 216 575 216 534 c 0
417 125 m 0
 417 207 493 280 574 280 c 0
 635 280 682 237 682 175 c 0
 682 94 604 20 524 20 c 0
 463 20 417 63 417 125 c 0
488 135 m 0
 488 106 504 80 536 80 c 0
 579 80 611 126 611 166 c 0
 611 196 595 220 563 220 c 0
 520 220 488 175 488 135 c 0
EndSplineSet
Validated: 1
EndChar

StartChar: kgreenlandic
Encoding: 312 312 313
Width: 500
VWidth: 0
Flags: W
HStem: 0 21G<80 163.9 352 480> 500 20G<177.115 261 445 581>
VStem: 80 80<0 80> 181 80<440 520> 369 111<0 111> 471 110<410 520>
DStem2: 80 0 160 0 0.190809 0.981627<15.2647 219.032 351.413 529.718> 252 270 199 200 0.645181 -0.76403<19.2875 281.774> 224 330 252 270 0.796209 0.605022<0 311.618>
LayerCount: 2
Fore
SplineSet
80 0 m 1xf8
 181 520 l 1
 261 520 l 1
 224 330 l 1
 471 520 l 5
 581 520 l 5xf4
 252 270 l 1
 480 0 l 5
 369 0 l 5
 199 200 l 1
 160 0 l 1
 80 0 l 1xf8
EndSplineSet
Validated: 1
EndChar

StartChar: parenleft
Encoding: 40 40 314
Width: 320
Flags: W
HStem: 700 20G<296.5 420>
VStem: 125 78<24.9867 332.262>
LayerCount: 2
Fore
SplineSet
125 171 m 0
 125 399 223 557 370 720 c 1
 420 720 l 1
 290 550 203 367 203 149 c 0
 203 57 224 -34 257 -120 c 1
 207 -120 l 1
 159 -24 125 62 125 171 c 0
EndSplineSet
Validated: 1
EndChar

StartChar: parenright
Encoding: 41 41 315
Width: 320
Flags: W
HStem: 700 20G<180 254>
VStem: 234 78<267.536 573.833>
LayerCount: 2
Fore
SplineSet
17 -120 m 1
 147 49 234 236 234 453 c 0
 234 545 213 635 180 720 c 1
 230 720 l 1
 278 625 312 538 312 429 c 0
 312 386 306 342 298 300 c 0
 264 124 184 11 67 -120 c 1
 17 -120 l 1
EndSplineSet
Validated: 1
EndChar

StartChar: fraction
Encoding: 8260 8260 316
Width: 490
VWidth: 0
Flags: W
DStem2: 37 85 81 55 0.672607 0.74<7.39471 756.084>
LayerCount: 2
Fore
SplineSet
37 85 m 5
 545 645 l 5
 590 615 l 5
 81 55 l 5
 37 85 l 5
EndSplineSet
Validated: 1
EndChar

StartChar: Euro
Encoding: 8364 8364 317
Width: 780
VWidth: 0
Flags: W
HStem: -20 70<347.266 550.062> 250 70<82 160 244 489> 400 70<111 179 284 518> 670 70<461.181 664.664>
VStem: 753 80<480 580.584>
LayerCount: 2
Fore
SplineSet
69 250 m 1
 82 320 l 1
 163 320 l 1
 167 346 172 376 179 400 c 1
 98 400 l 1
 111 470 l 1
 202 470 l 1
 274 642 420 740 579 740 c 0
 746 740 833 642 833 488 c 0
 833 485 833 483 833 480 c 1
 753 480 l 1
 753 482 753 483 753 485 c 0
 753 600 683 670 565 670 c 0
 447 670 342 595 284 470 c 1
 531 470 l 1
 518 400 l 1
 260 400 l 1
 253 376 248 347 244 320 c 1
 502 320 l 1
 489 250 l 1
 242 250 l 1
 250 125 327 50 445 50 c 0
 565 50 663 122 707 240 c 1
 787 240 l 1
 728 82 601 -20 431 -20 c 0
 272 -20 164 78 160 250 c 1
 69 250 l 1
EndSplineSet
Validated: 1
EndChar

StartChar: quoteright
Encoding: 8217 8217 318
Width: 240
Flags: W
HStem: 530 190
VStem: 183 40<530 570> 220 80<640 720>
LayerCount: 2
Fore
SplineSet
183 530 m 5xc0
 215 561 234 590 242 630 c 5
 202 630 l 13
 220 720 l 29
 300 720 l 29xa0
 282 630 l 6
 274 590 255 561 223 530 c 5
 183 530 l 5xc0
EndSplineSet
Validated: 1
EndChar

StartChar: quoteleft
Encoding: 8216 8216 319
Width: 240
Flags: W
HStem: 530 190
VStem: 183 80<530 610> 260 40<680 720>
LayerCount: 2
Fore
SplineSet
183 530 m 29xc0
 201 620 l 6
 209 660 228 689 260 720 c 5
 300 720 l 5xa0
 268 689 249 660 241 620 c 5
 281 620 l 13
 263 530 l 29
 183 530 l 29xc0
EndSplineSet
Validated: 1
EndChar

StartChar: Delta
Encoding: 8710 8710 322
Width: 640
VWidth: 0
Flags: W
HStem: 0 70<137 530> 700 20G<399.167 513.056>
DStem2: 20 0 137 70 0.476283 0.879292<117.276 774.436> 510 720 446 650 0.151025 -0.98853<59.5315 645.565>
LayerCount: 2
Fore
SplineSet
20 0 m 1
 410 720 l 1
 510 720 l 1
 620 0 l 1
 20 0 l 1
137 70 m 1
 530 70 l 1
 446 650 l 1
 137 70 l 1
EndSplineSet
Validated: 1
EndChar

StartChar: uni2010
Encoding: 8208 8208 323
Width: 300
VWidth: 0
Flags: W
HStem: 280 70<162 382>
VStem: 148 248
LayerCount: 2
Fore
SplineSet
148 280 m 1
 162 350 l 1
 396 350 l 1
 382 280 l 1
 148 280 l 1
EndSplineSet
Validated: 1
EndChar

StartChar: figuredash
Encoding: 8210 8210 324
Width: 580
VWidth: 0
Flags: W
HStem: 280 70<162 662>
LayerCount: 2
Fore
SplineSet
148 280 m 1
 162 350 l 1
 676 350 l 1
 662 280 l 1
 148 280 l 1
EndSplineSet
Validated: 1
EndChar

StartChar: afii00208
Encoding: 8213 8213 325
Width: 2000
VWidth: 0
Flags: W
HStem: 280 70<162 2082>
LayerCount: 2
Fore
SplineSet
148 280 m 1
 162 350 l 1
 2096 350 l 1
 2082 280 l 1
 148 280 l 1
EndSplineSet
Validated: 1
EndChar

StartChar: mu
Encoding: 181 181 326
Width: 580
VWidth: 0
Flags: W
HStem: -200 21G<41 124.934> -20 70<229.369 376.046> 0 21G<420 503.885> 500 20G<177.111 261 517.118 601>
VStem: 41 80<-200 -120> 181 80<440 520> 521 80<440 520>
DStem2: 41 -200 121 -200 0.190809 0.981627<15.2647 263.941 375.741 733.485> 381.124 -200 461.124 -200 0.190809 0.981627<219.008 248.652 307.092 733.461>
LayerCount: 2
Fore
SplineSet
41 -200 m 1xde
 181 520 l 1
 261 520 l 1
 195 180 l 2
 193 171 192 162 192 153 c 0
 192 95 231 50 300 50 c 0xde
 380 50 441 110 455 180 c 2
 521 520 l 1
 601 520 l 1
 500 0 l 1
 420 0 l 1xbe
 429 44 l 1
 395 0 336 -20 286 -20 c 0
 236 -20 186 1 169 44 c 1
 121 -200 l 1
 41 -200 l 1xde
EndSplineSet
Validated: 1
EndChar

StartChar: uni02C9
Encoding: 713 713 327
Width: 300
VWidth: 0
Flags: W
HStem: 680 70<166 412>
VStem: 152 274
LayerCount: 2
Fore
SplineSet
152 680 m 25
 166 750 l 25
 426 750 l 25
 412 680 l 25
 152 680 l 25
EndSplineSet
Validated: 1
EndChar

StartChar: ampersand
Encoding: 38 38 328
Width: 680
VWidth: 0
Flags: W
HStem: -20 70<198.362 411.717> 0 21G<546.429 660> 670 70<363.337 509.107>
VStem: 69 84<89.8556 227.903> 228 82<473.089 615.034> 532 81<517.403 647.419> 612 80<286.75 370>
DStem2: 411 373 331 342 0.555215 -0.831707<0 234.361 325.28 392.954>
LayerCount: 2
Fore
SplineSet
276 -20 m 0xba
 160 -20 69 28 69 131 c 0
 69 253 143 329 276 398 c 1
 250 424 228 472 228 527 c 0
 228 653 330 740 459 740 c 0
 564 740 613 667 613 595 c 0xbc
 613 488 563 440 411 373 c 1
 541 178 l 1
 572 226 596 290 612 370 c 1
 692 370 l 1
 671 263 634 178 583 115 c 1
 660 0 l 1
 560 0 l 1x7a
 522 56 l 1
 456 5 373 -20 276 -20 c 0xba
374 430 m 1
 472 463 532 508 532 591 c 0
 532 638 504 670 440 670 c 0
 365 670 310 618 310 545 c 0
 310 507 328 459 374 430 c 1
484 114 m 1
 331 342 l 1
 219 303 153 236 153 147 c 0
 153 89 201 50 290 50 c 0
 365 50 430 69 484 114 c 1
EndSplineSet
Validated: 1
EndChar

StartChar: sterling
Encoding: 163 163 329
Width: 560
VWidth: 937
Flags: W
HStem: 0 70<144 520> 320 70<96 142 236 442> 520 21G<541 623> 670 70<346.868 509.48>
VStem: 546 81<520 634.929>
DStem2: 80.0115 0 160.012 0 0.190809 0.981627<90.3057 325.949 412.599 634.46>
LayerCount: 2
Fore
SplineSet
82 320 m 1
 96 390 l 1
 156 390 l 1
 179 510 l 2
 210 670 335 740 444 740 c 0
 539 740 627 694 627 576 c 0
 627 559 625 540 621 520 c 1
 541 520 l 1
 544 536 546 551 546 565 c 0
 546 635 505 670 430 670 c 0
 341 670 278 610 259 510 c 2
 236 390 l 1
 456 390 l 1
 442 320 l 1
 222 320 l 1
 195 180 l 2
 183 120 171 89 144 70 c 1
 534 70 l 1
 520 0 l 1
 40 0 l 1
 54 70 l 1
 81 89 103 120 115 180 c 2
 142 320 l 1
 82 320 l 1
EndSplineSet
Validated: 1
EndChar

StartChar: eng
Encoding: 331 331 330
Width: 570
VWidth: 0
Flags: W
HStem: -220 70<289.941 384.481> 0 21G<80 163.882> 470 70<329.105 451.266> 500 20G<177.115 261>
VStem: 80 80<0 80> 489 85<325.833 431.818>
DStem2: 37.2363 -220 117.236 -220 0.190809 0.981627<239.382 665.751 703.986 753.836> 376.955 -220 456.955 -220 0.190809 0.981627<77.3432 598.161>
LayerCount: 2
Fore
SplineSet
80 0 m 1xec
 181 520 l 5
 261 520 l 1xdc
 249 456 l 1
 289 508 355 540 435 540 c 0
 522 540 574 480 574 399 c 0
 574 387 573 373 570 360 c 2
 490 -50 l 2
 467 -170 427 -220 347 -220 c 0
 307 -220 297 -217 279 -210 c 1
 292 -145 l 1
 311 -148 322 -150 342 -150 c 0
 382 -150 397 -120 410 -50 c 2
 486 340 l 2
 488 349 489 359 489 368 c 0
 489 426 450 470 381 470 c 0
 301 470 240 410 226 340 c 2
 160 0 l 1
 80 0 l 1xec
EndSplineSet
Validated: 1
EndChar

StartChar: Eng
Encoding: 330 330 331
Width: 750
VWidth: 0
Flags: W
HStem: -220 70<439.851 533.483> 0 21G<80 167.9> 700 20G<216.111 329.633 722.1 810>
VStem: 80 84<0 84> 726 84<636 720>
DStem2: 37.2363 -220 121.236 -220 0.190809 0.981627<240.146 851.447> 320 720 281 600 0.433951 -0.900936<91.1883 665.974> 526.955 -220 626.955 -220 0.190809 0.981627<75.7268 224.171> 542.911 -220 626.955 -220 0.190809 0.981627<346.364 957.665>
LayerCount: 2
Fore
SplineSet
80 0 m 1
 220 720 l 1
 320 720 l 1
 609 120 l 1
 726 720 l 1
 810 720 l 1
 660 -50 l 2
 638 -165 588 -220 508 -220 c 0
 468 -220 447 -217 429 -210 c 1
 442 -145 l 1
 461 -148 472 -150 492 -150 c 0
 532 -150 546 -120 560 -50 c 2
 570 0 l 1
 281 600 l 1
 164 0 l 1
 80 0 l 1
EndSplineSet
Validated: 1
EndChar

StartChar: germandbls
Encoding: 223 223 332
Width: 590
VWidth: 0
Flags: W
HStem: -20 70<270.693 433.181> 0 21G<80 163.891> 355 70<383 459.387> 670 70<339.721 513.578>
VStem: 80 80<0 80> 513 81<137.208 304.285> 553 81<501.152 633.342>
DStem2: 76.1124 -20 156.112 -20 0.190809 0.981627<35.6391 669.753>
LayerCount: 2
Fore
SplineSet
80 0 m 25x7a
 187 550 l 2
 204 640 284 740 444 740 c 0
 583 740 634 665 634 586 c 0x7a
 634 487 574 428 500 392 c 1
 558 362 594 319 594 248 c 0
 594 99 485 -20 346 -20 c 0xbc
 316 -20 286 -10 260 0 c 9x7c
 274 70 l 17
 300 60 330 50 360 50 c 0
 455 50 513 137 513 235 c 0xbc
 513 301 471 355 369 355 c 1
 383 425 l 1
 488 425 553 496 553 573 c 0
 553 624 517 670 430 670 c 0
 330 670 279 610 267 550 c 10
 160 0 l 25
 80 0 l 25x7a
EndSplineSet
Validated: 1
EndChar

StartChar: guilsinglleft
Encoding: 8249 8249 333
Width: 300
VWidth: 0
Flags: W
VStem: 207 80<140 220> 273 80<400 480>
DStem2: 160 310 96 290 0.598491 -0.80113<0 164.321> 104 330 160 310 0.750405 0.660978<28.8031 225.965>
LayerCount: 2
Fore
SplineSet
96 290 m 1x80
 104 330 l 1
 273 480 l 1
 353 480 l 1x40
 160 310 l 1
 287 140 l 1
 207 140 l 1
 96 290 l 1x80
EndSplineSet
Validated: 1
EndChar

StartChar: guilsinglright
Encoding: 8250 8250 334
Width: 300
VWidth: 40
Flags: W
VStem: 67 80<140 220> 133 80<400 480>
DStem2: 67 140 147 140 0.750405 0.660978<60.0324 257.194> 213 480 133 480 0.598491 -0.80113<0 164.321>
LayerCount: 2
Fore
SplineSet
316 290 m 1x40
 147 140 l 1
 67 140 l 1x80
 260 310 l 1
 133 480 l 1
 213 480 l 1
 324 330 l 1
 316 290 l 1x40
EndSplineSet
Validated: 1
EndChar

StartChar: perthousand
Encoding: 8240 8240 337
Width: 990
VWidth: 0
Flags: W
HStem: 20 60<497.735 584.14 797.735 884.14> 220 60<515.943 602.447 815.943 902.447> 420 60<223.905 310.139> 620 60<243.74 330.447>
VStem: 145 71<487.604 591.502> 339 71<509.674 612.065> 417 71<88.0711 191.571> 611 71<108.906 212.065> 717 71<88.0711 191.571> 911 71<108.906 212.065>
DStem2: 137 85 181 55 0.672607 0.74<7.39471 756.084>
LayerCount: 2
Fore
SplineSet
137 85 m 1
 645 645 l 1
 690 615 l 1
 181 55 l 1
 137 85 l 1
145 525 m 0
 145 614 225 680 302 680 c 16
 365 680 410 635 410 575 c 0
 410 487 328 420 252 420 c 16
 189 420 145 465 145 525 c 0
216 534 m 0
 216 504 232 480 263 480 c 8
 302 480 339 521 339 566 c 0
 339 596 322 620 291 620 c 8
 251 620 216 580 216 534 c 0
417 125 m 0
 417 214 497 280 574 280 c 16
 637 280 682 235 682 175 c 0
 682 87 600 20 524 20 c 16
 461 20 417 65 417 125 c 0
488 135 m 0
 488 105 505 80 536 80 c 8
 575 80 611 121 611 166 c 0
 611 196 594 220 563 220 c 8
 524 220 488 180 488 135 c 0
717 125 m 0
 717 214 797 280 874 280 c 16
 937 280 982 235 982 175 c 0
 982 87 900 20 824 20 c 16
 761 20 717 65 717 125 c 0
788 135 m 0
 788 105 805 80 836 80 c 8
 875 80 911 121 911 166 c 0
 911 196 894 220 863 220 c 8
 824 220 788 180 788 135 c 0
EndSplineSet
Validated: 1
EndChar

StartChar: copyright
Encoding: 169 169 338
Width: 860
VWidth: 0
Flags: W
HStem: -20 60<326.133 559.425> 134 60<402.418 551.038> 526 60<460.194 606.9> 680 60<440.575 673.867>
VStem: 112 71<178.779 415.214> 291 71<235.727 413.595> 639 70<432 492.339> 817 71<304.786 541.221>
LayerCount: 2
Fore
SplineSet
112 278 m 0
 112 550 338 740 574 740 c 0
 766 740 888 619 888 442 c 0
 888 170 662 -20 426 -20 c 0
 234 -20 112 101 112 278 c 0
183 287 m 0
 183 138 282 40 438 40 c 0
 633 40 817 198 817 433 c 0
 817 582 718 680 562 680 c 0
 367 680 183 522 183 287 c 0
291 303 m 0
 291 471 412 586 544 586 c 0
 662 586 709 521 709 437 c 0
 709 435 709 434 709 432 c 9
 639 432 l 18
 639 433 639 433 639 434 c 0
 639 480 611 526 532 526 c 0
 451 526 362 445 362 311 c 0
 362 232 408 194 468 194 c 0
 548 194 594 241 611 288 c 9
 681 288 l 17
 649 202 576 134 456 134 c 0
 354 134 291 199 291 303 c 0
EndSplineSet
Validated: 1
EndChar

StartChar: f_f
Encoding: 64256 64256 339
Width: 600
VWidth: 0
Flags: W
HStem: 0 21G<90 173.867 360 443.867> 450 70<121 177 271 447 541 667> 665 65<371.399 440.4 641.399 710.4> 670 70<315.308 440.851 585.308 710.851>
VStem: 90 80<0 80> 360 80<0 80>
DStem2: 90 0 170 0 0.190809 0.981627<15.2647 458.333 544.983 682.99> 360 0 440 0 0.190809 0.981627<15.2647 458.333 544.983 682.99>
LayerCount: 2
Fore
SplineSet
107 450 m 1xdc
 121 520 l 1
 191 520 l 1
 201 570 l 2
 228 710 294 740 364 740 c 0xdc
 404 740 442 734 452 730 c 1
 439 665 l 1xec
 420 668 400 670 370 670 c 0
 320 670 295 640 281 570 c 2
 271 520 l 1
 461 520 l 1
 471 570 l 2
 498 710 564 740 634 740 c 0xdc
 674 740 712 734 722 730 c 1
 709 665 l 1xec
 690 668 670 670 640 670 c 0
 590 670 565 640 551 570 c 2
 541 520 l 1
 681 520 l 1
 667 450 l 1
 527 450 l 1
 440 0 l 1
 360 0 l 1
 447 450 l 1
 257 450 l 1
 170 0 l 1
 90 0 l 1
 177 450 l 1
 107 450 l 1xdc
EndSplineSet
Validated: 1
Ligature2: "about f" f f
EndChar

StartChar: f_i
Encoding: 64257 64257 340
Width: 520
VWidth: 0
Flags: W
HStem: 0 21G<90 173.867 360 443.885> 450 70<121 177 271 347> 670 70<324.995 465.459>
VStem: 90 80<0 80> 360 80<0 80> 461 80<440 520> 481 82<620 654>
DStem2: 90 0 170 0 0.190809 0.981627<15.2647 458.333 544.983 674.562> 360 0 440 0 0.190809 0.981627<15.2647 529.718>
LayerCount: 2
Fore
SplineSet
90 0 m 1xfa
 177 450 l 1
 107 450 l 1
 121 520 l 1
 191 520 l 1
 201 570 l 2
 226 700 319 740 409 740 c 0
 491 740 563 706 563 639 c 0
 563 633 562 627 561 620 c 1
 481 620 l 1
 481 621 481 622 481 623 c 0
 481 643 452 670 395 670 c 0
 335 670 294 640 281 570 c 2
 271 520 l 1
 361 520 l 1
 347 450 l 1
 257 450 l 1
 170 0 l 1
 90 0 l 1xfa
360 0 m 1
 461 520 l 1
 541 520 l 1xfc
 440 0 l 1
 360 0 l 1
EndSplineSet
Validated: 1
Ligature2: "about f" f i
EndChar

StartChar: f_l
Encoding: 64258 64258 341
Width: 520
VWidth: 0
Flags: W
HStem: 0 21G<90 173.867 360 443.903> 450 70<121 177 271 347> 670 70<324.995 465.459>
VStem: 90 80<0 80> 360 80<0 80> 481 82<584.715 654>
DStem2: 90 0 170 0 0.190809 0.981627<15.2647 458.333 544.983 674.562> 360 0 440 0 0.190809 0.981627<15.2647 634.642>
LayerCount: 2
Fore
SplineSet
90 0 m 1
 177 450 l 1
 107 450 l 1
 121 520 l 1
 191 520 l 1
 201 570 l 2
 226 700 319 740 409 740 c 0
 491 740 563 706 563 639 c 0
 563 633 562 627 561 620 c 2
 440 0 l 1
 360 0 l 1
 481 620 l 2
 481 621 481 622 481 623 c 0
 481 643 452 670 395 670 c 0
 335 670 294 640 281 570 c 2
 271 520 l 1
 361 520 l 1
 347 450 l 1
 257 450 l 1
 170 0 l 1
 90 0 l 1
EndSplineSet
Validated: 1
Ligature2: "about f" f l
EndChar

StartChar: f_f_i
Encoding: 64259 64259 342
Width: 790
VWidth: 0
Flags: W
HStem: 453 70<122 178 272 448 542 618> 673 70<316.144 441.423 595.443 737.75>
VStem: 91 80<3 83> 361 80<3 83> 631 80<3 83> 732 80<443 523> 751 82<623 655>
DStem2: 91 3 171 3 0.190809 0.981627<15.2647 458.333 544.983 683.154> 361 3 441 3 0.190809 0.981627<15.2647 458.333 544.983 674.534> 631 3 711 3 0.190809 0.981627<15.2647 529.718>
LayerCount: 2
Fore
SplineSet
732 523 m 1xfc
 812 523 l 1
 711 3 l 1
 631 3 l 1
 732 523 l 1xfc
632 523 m 1
 618 453 l 1
 528 453 l 1
 441 3 l 1
 361 3 l 1
 448 453 l 1
 258 453 l 1
 171 3 l 1
 91 3 l 1
 178 453 l 1
 108 453 l 1
 122 523 l 1
 192 523 l 1
 201 573 l 2
 228 713 304 743 364 743 c 0
 404 743 434 740 452 733 c 1
 439 663 l 1
 421 670 401 673 371 673 c 0
 321 673 295 643 281 573 c 2
 272 523 l 1
 462 523 l 1
 471 573 l 2
 496 703 589 743 679 743 c 0
 761 743 833 709 833 643 c 0
 833 637 832 630 831 623 c 1
 751 623 l 1
 751 624 751 626 751 627 c 0xfa
 751 647 722 673 666 673 c 0
 606 673 565 643 551 573 c 2
 542 523 l 1
 632 523 l 1
EndSplineSet
Validated: 1
Ligature2: "about f" f f i
EndChar

StartChar: f_f_l
Encoding: 64260 64260 343
Width: 790
VWidth: 0
Flags: W
HStem: 453 70<122 178 272 448 542 618> 673 70<316.144 441.423 595.443 737.75>
VStem: 91 80<3 83> 361 80<3 83> 631 80<3 83> 751 82<587.426 655>
DStem2: 91 3 171 3 0.190809 0.981627<15.2647 458.333 544.983 683.154> 361 3 441 3 0.190809 0.981627<15.2647 458.333 544.983 674.534> 631 3 711 3 0.190809 0.981627<15.2647 635.432>
LayerCount: 2
Fore
SplineSet
632 523 m 1
 618 453 l 1
 528 453 l 1
 441 3 l 1
 361 3 l 1
 448 453 l 1
 258 453 l 1
 171 3 l 1
 91 3 l 1
 178 453 l 1
 108 453 l 1
 122 523 l 1
 192 523 l 1
 201 573 l 1
 228 713 304 743 364 743 c 0
 404 743 434 740 452 733 c 1
 439 663 l 1
 421 670 401 673 371 673 c 0
 321 673 295 643 281 573 c 1
 272 523 l 1
 462 523 l 1
 471 573 l 1
 496 703 589 743 679 743 c 0
 761 743 833 709 833 643 c 0
 833 637 832 630 831 623 c 2
 711 3 l 1
 631 3 l 1
 751 623 l 2
 751 624 751 626 751 627 c 0
 751 647 722 673 666 673 c 0
 606 673 565 643 551 573 c 1
 542 523 l 1
 632 523 l 1
EndSplineSet
Validated: 1
Ligature2: "about f" f f l
EndChar

StartChar: longs_t
Encoding: 64261 64261 344
Width: 560
VWidth: 0
Flags: W
HStem: -5 70<438.52 541.639> 450 70<121 177 391 447 541 617> 670 70<324.995 465.459>
VStem: 90 80<0 80> 383 82<67.3072 231.797> 481 82<588.182 654>
DStem2: 89.0281 -5 169.028 -5 0.190809 0.981627<20.3583 463.426 534.811 679.656> 169.231 -5 439.512 -5 0.190809 0.981627<201.116 514.906 586.291 656.957> 358.955 -5 438.955 -5 0.190809 0.981627<132.832 463.44 550.09 639.749>
LayerCount: 2
Fore
SplineSet
90 0 m 1
 177 450 l 1
 107 450 l 1
 121 520 l 1
 191 520 l 1
 201 570 l 2
 226 700 319 740 409 740 c 0
 491 740 563 706 563 639 c 0
 563 633 562 627 561 620 c 2
 541 520 l 1
 631 520 l 1
 617 450 l 1
 527 450 l 1
 472 165 l 2
 467 142 465 124 465 109 c 0
 465 79 476 65 503 65 c 0
 523 65 533 67 554 70 c 1
 541 5 l 1
 521 -2 509 -5 469 -5 c 0
 409 -5 383 23 383 87 c 0
 383 109 386 134 392 165 c 2
 447 450 l 1
 377 450 l 1
 391 520 l 1
 461 520 l 1
 481 620 l 2
 481 621 481 622 481 623 c 0
 481 643 452 670 395 670 c 0
 335 670 294 640 281 570 c 2
 170 0 l 1
 90 0 l 1
EndSplineSet
Validated: 1
EndChar

StartChar: s_t
Encoding: 64262 64262 345
Width: 800
VWidth: 0
Flags: W
HStem: -20 70<176.764 363.952 675.52 778.639> 450 70<631 687 781 857> 470 70<260.773 423.976> 670 70<597.623 705.882>
VStem: 64 82<77.5355 140> 131 81<327.769 424.207> 418 83<97.1881 190.681> 620 82<53.1501 215.625> 715 82<548.125 658.924>
DStem2: 366.248 -20 446.248 -20 0.190809 0.981627<543.004 699.15> 595.955 -20 675.955 -20 0.190809 0.981627<132.833 478.737 565.387 639.651>
LayerCount: 2
Fore
SplineSet
481 570 m 2xb780
 506 700 579 740 669 740 c 0
 745 740 797 712 797 626 c 0
 797 610 795 591 791 570 c 2
 781 520 l 1
 871 520 l 1
 857 450 l 1
 767 450 l 1
 709 150 l 2
 705 127 702 109 702 94 c 0
 702 64 713 50 740 50 c 0
 760 50 770 52 791 55 c 1
 778 -10 l 1
 758 -17 746 -20 706 -20 c 0
 646 -20 620 7 620 71 c 0
 620 93 623 119 629 150 c 2
 687 450 l 1
 617 450 l 1
 631 520 l 1
 701 520 l 1xd780
 711 570 l 2
 714 585 715 598 715 609 c 0
 715 652 695 670 655 670 c 0
 605 670 575 640 561 570 c 2
 524 380 l 1
 444 380 l 1
 445 386 446 393 446 399 c 0
 446 440 416 470 346 470 c 0
 265 470 212 426 212 366 c 0xb780
 212 334 238 314 313 300 c 0
 446 276 501 240 501 172 c 0
 501 57 399 -20 251 -20 c 0
 127 -20 64 35 64 111 c 0
 64 120 65 130 67 140 c 1
 147 140 l 1
 146 135 146 130 146 125 c 0xbb80
 146 82 184 50 265 50 c 0
 354 50 418 91 418 150 c 0
 418 178 393 212 300 230 c 0
 177 253 131 289 131 350 c 0
 131 453 223 540 360 540 c 0
 407 540 443 530 470 513 c 1
 481 570 l 2xb780
EndSplineSet
Validated: 1
Ligature2: "+x4THWMCsxqkA +1WnHTMeQ" s t
EndChar

StartChar: Tbar
Encoding: 358 358 346
Width: 600
VWidth: 0
Flags: W
HStem: 0 21G<258 345.907> 389 82<172 334 434 596> 648 72<160 384 468 706>
VStem: 258 84<0 84>
DStem2: 258 0 342 0 0.190809 0.981627<16.028 396.354 495.929 660.136>
LayerCount: 2
Fore
SplineSet
146 648 m 1
 160 720 l 1
 720 720 l 1
 706 648 l 1
 468 648 l 1
 434 471 l 1
 612 471 l 1
 596 389 l 1
 418 389 l 1
 342 0 l 1
 258 0 l 1
 334 389 l 1
 156 389 l 1
 172 471 l 1
 350 471 l 1
 384 648 l 1
 146 648 l 1
EndSplineSet
Validated: 1
EndChar

StartChar: tbar
Encoding: 359 359 347
Width: 290
VWidth: 0
Flags: W
HStem: -5 70<168.52 271.639> 270 70<96 142 236 302> 450 70<121 177 271 347>
VStem: 113 82<67.3072 232.266> 220 80<590 670>
DStem2: 88.9553 -5 168.955 -5 0.190809 0.981627<132.832 280.069 366.719 463.44 550.09 687.603>
LayerCount: 2
Fore
SplineSet
82 270 m 1
 96 340 l 1
 156 340 l 1
 177 450 l 1
 107 450 l 1
 121 520 l 1
 191 520 l 1
 220 670 l 1
 300 670 l 1
 271 520 l 1
 361 520 l 1
 347 450 l 1
 257 450 l 1
 236 340 l 1
 316 340 l 1
 302 270 l 1
 222 270 l 1
 202 165 l 2
 197 142 195 124 195 109 c 0
 195 79 206 65 233 65 c 0
 253 65 263 67 284 70 c 1
 271 5 l 1
 251 -2 239 -5 199 -5 c 0
 139 -5 113 23 113 87 c 0
 113 109 116 134 122 165 c 2
 142 270 l 1
 82 270 l 1
EndSplineSet
Validated: 1
EndChar

StartChar: uni203E
Encoding: 8254 8254 349
Width: 500
VWidth: 0
Flags: W
HStem: 730 70<136 662>
LayerCount: 2
Fore
SplineSet
122 730 m 25
 136 800 l 25
 676 800 l 25
 662 730 l 25
 122 730 l 25
EndSplineSet
Validated: 1
EndChar

StartChar: uni203D
Encoding: 8253 8253 350
Width: 520
Flags: W
HStem: 0 90<237 300> 520 21G<141 228> 720 20G<344 456.5>
VStem: 141 80<520 581.154> 220 80<0 80> 237 80<10 90> 505 81<477.419 631.064>
DStem2: 220 0 300 0 0.190809 0.981627<15.2647 91.5902 188.438 310.865 400.221 456.425>
LayerCount: 2
Fore
SplineSet
141 520 m 1xf2
 168 660 284 740 404 740 c 0
 509 740 586 679 586 570 c 0
 586 554 584 538 581 520 c 0
 569 460 526 409 472 370 c 0
 401 319 352 270 341 210 c 2
 333 170 l 1
 253 170 l 1
 265 230 l 2
 267 239 270 248 274 258 c 1
 297 450 l 1
 339 663 l 1
 277 645 235 592 221 520 c 1
 141 520 l 1xf2
220 0 m 1xea
 237 90 l 1
 317 90 l 1xe6
 300 0 l 1
 220 0 l 1xea
378 377 m 1
 446 429 505 467 505 561 c 0
 505 612 483 648 439 663 c 1
 397 450 l 1
 378 377 l 1
EndSplineSet
Validated: 1
EndChar

StartChar: uni00B2
Encoding: 178 178 354
Width: 399
VWidth: 0
Flags: W
HStem: 317 53<214 435> 757 53<269.323 403.765>
VStem: 153 60<647 707> 429 60<596.576 732.413>
DStem2: 113 366 214 370 0.824832 0.565378<85.5695 367.047>
LayerCount: 2
Fore
SplineSet
104 317 m 1
 113 366 l 1
 326 512 l 2
 386 553 429 609 429 674 c 0
 429 724 397 757 340 757 c 0
 273 757 225 711 213 647 c 1
 153 647 l 1
 171 742 246 810 350 810 c 0
 440 810 489 754 489 681 c 0
 489 565 422 512 311 436 c 2
 214 370 l 1
 445 370 l 1
 435 317 l 1
 104 317 l 1
EndSplineSet
Validated: 1
EndChar

StartChar: uni00B3
Encoding: 179 179 355
Width: 415
VWidth: -148
Flags: W
HStem: 304 53<197.612 366.303> 536 54<281 388.243> 757 53<283.439 419.232>
VStem: 111 60<382.085 445> 180 60<671 731> 417 61<404.825 510.168> 440 61<628.526 736.809>
LayerCount: 2
Fore
SplineSet
111 422 m 0xfc
 111 430 112 437 113 445 c 1
 173 445 l 1
 172 440 171 434 171 429 c 0
 171 387 208 357 277 357 c 0
 361 357 417 399 417 465 c 0xfc
 417 510 381 536 270 536 c 1
 281 590 l 1
 397 590 440 626 440 690 c 0
 440 727 410 757 355 757 c 0
 292 757 249 717 240 671 c 1
 180 671 l 1
 194 741 264 810 365 810 c 0
 455 810 501 758 501 699 c 0xfa
 501 637 459 589 405 565 c 1
 449 545 478 519 478 472 c 0
 478 377 391 304 267 304 c 0
 163 304 111 358 111 422 c 0xfc
EndSplineSet
Validated: 1
EndChar

StartChar: uni00B9
Encoding: 185 185 356
Width: 393
VWidth: 0
Flags: W
VStem: 275 60<320 380>
DStem2: 219 713 206 646 0.902218 0.43128<0 121.289> 275 320 335 320 0.190809 0.981627<11.4485 403.417>
LayerCount: 2
Fore
SplineSet
206 646 m 1
 219 713 l 1
 401 800 l 1
 429 800 l 1
 335 320 l 1
 275 320 l 1
 352 716 l 1
 206 646 l 1
EndSplineSet
Validated: 1
EndChar

StartChar: Hbar
Encoding: 294 294 357
Width: 720
VWidth: 0
Flags: W
HStem: 0 21G<80 163.877 560 643.876> 325 70<237 623> 485 70<138 174 268 654 748 784> 700 20G<216.121 300 696.121 780>
VStem: 80 80<0 80> 220 80<640 720> 560 80<0 80> 700 80<640 720>
DStem2: 80 0 160 0 0.190809 0.981627<15.2647 346.315 417.7 494.025 580.675 733.485> 560 0 640 0 0.190809 0.981627<15.2647 331.05 402.435 494.025 580.675 733.485>
LayerCount: 2
Fore
SplineSet
80 0 m 1
 174 485 l 1
 124 485 l 1
 138 555 l 1
 188 555 l 1
 220 720 l 1
 300 720 l 1
 268 555 l 1
 668 555 l 1
 700 720 l 1
 780 720 l 1
 748 555 l 1
 798 555 l 1
 784 485 l 1
 734 485 l 1
 640 0 l 1
 560 0 l 1
 623 325 l 1
 223 325 l 1
 160 0 l 1
 80 0 l 1
237 395 m 1
 637 395 l 1
 654 485 l 1
 254 485 l 1
 237 395 l 1
EndSplineSet
Validated: 1
EndChar

StartChar: hbar
Encoding: 295 295 358
Width: 570
VWidth: 0
Flags: W
HStem: 0 21G<80 163.882 420 503.889> 470 70<329.105 451.266> 580 70<146 193 286 423> 700 20G<216 300>
VStem: 80 80<0 80> 420 80<0 80> 489 85<325.946 431.818>
DStem2: 80 0 160 0 0.190809 0.981627<15.2647 441.634 479.869 590.905 677.364 733.485> 420 0 500 0 0.190809 0.981627<15.2647 373.99>
LayerCount: 2
Fore
SplineSet
80 0 m 1xfa
 193 580 l 1
 133 580 l 1
 146 650 l 1
 206 650 l 1
 220 720 l 1
 300 720 l 1
 286 650 l 1
 436 650 l 1
 423 580 l 1
 273 580 l 1
 249 456 l 1
 289 508 355 540 435 540 c 0
 522 540 574 480 574 399 c 0xfa
 574 387 573 373 570 360 c 2
 500 0 l 1
 420 0 l 1xfc
 486 340 l 2
 488 349 489 359 489 368 c 0
 489 426 450 470 381 470 c 0
 301 470 240 410 226 340 c 2
 160 0 l 1
 80 0 l 1xfa
EndSplineSet
Validated: 1
EndChar

StartChar: multiply
Encoding: 215 215 359
Width: 500
VWidth: 0
Flags: W
VStem: 28 90<40 130> 113 90<390 480> 398 90<40 130> 483 90<390 480>
DStem2: 28 40 118 40 0.718857 0.695158<64.6971 303.737 393.91 632.949> 203 480 113 480 0.543647 -0.839314<0 198.04 277.269 475.309>
LayerCount: 2
Fore
SplineSet
28 40 m 1xa0
 256 260 l 1
 113 480 l 1
 203 480 l 1
 311 314 l 1
 483 480 l 1
 573 480 l 1x50
 346 260 l 1
 488 40 l 1
 398 40 l 1
 290 206 l 1
 118 40 l 1
 28 40 l 1xa0
EndSplineSet
Validated: 1
EndChar

StartChar: divide
Encoding: 247 247 360
Width: 540
VWidth: 0
Flags: W
HStem: 40 90<255.27 317.775> 235 70<79.2861 565.68> 390 90<323.303 385.809>
VStem: 237.775 80<40 120> 255.27 80<50 130> 305.809 80<390 470> 323.303 80<400 480>
DStem2: 237.775 40 317.775 40 0.190809 0.981627<15.2647 91.6845 371.816 448.235>
LayerCount: 2
Fore
SplineSet
65.6796875 235 m 1xe0
 79.2861328125 305 l 1
 579.286132812 305 l 1
 565.6796875 235 l 1
 65.6796875 235 l 1xe0
237.775390625 40 m 25xf0
 255.26953125 130 l 25
 335.26953125 130 l 25xe8
 317.775390625 40 l 25
 237.775390625 40 l 25xf0
305.80859375 390 m 25xe4
 323.302734375 480 l 29
 403.302734375 480 l 25xe2
 385.80859375 390 l 25
 305.80859375 390 l 25xe4
EndSplineSet
Validated: 1
EndChar

StartChar: uni2070
Encoding: 8304 8304 361
Width: 400
VWidth: 0
Flags: W
HStem: 304 53<210.976 330.093> 757 53<286.03 405.497>
VStem: 124 61<383.64 605.165> 432 61<507.455 729.462>
LayerCount: 2
Fore
SplineSet
124 457 m 0
 124 676 242 810 357 810 c 0
 435 810 493 771 493 656 c 0
 493 436 374 304 259 304 c 0
 181 304 124 342 124 457 c 0
185 465 m 0
 185 394 211 357 269 357 c 0
 366 357 432 496 432 647 c 0
 432 718 406 757 347 757 c 0
 250 757 185 616 185 465 c 0
EndSplineSet
Validated: 1
EndChar

StartChar: uni2074
Encoding: 8308 8308 362
Width: 415
VWidth: 0
Flags: W
HStem: 426 54<188 345 415 472>
VStem: 324 60<320 380>
DStem2: 119 472 188 480 0.684532 0.728982<53.0646 360.793> 324 320 384 320 0.190809 0.981627<11.4485 108.059 174.424 391.256>
LayerCount: 2
Fore
SplineSet
110 426 m 1
 119 472 l 1
 427 800 l 1
 478 800 l 1
 415 480 l 1
 482 480 l 1
 472 426 l 1
 405 426 l 1
 384 320 l 1
 324 320 l 1
 345 426 l 1
 110 426 l 1
188 480 m 1
 355 480 l 1
 399 704 l 1
 188 480 l 1
EndSplineSet
Validated: 1
EndChar

StartChar: uni2075
Encoding: 8309 8309 363
Width: 412
VWidth: 0
Flags: W
HStem: 307 53<195.266 347.665> 525 21G<139 211.5> 588 53<258.149 381.008> 747 53<286 475>
VStem: 115 60<380.874 423> 410 61<422.656 558.495>
DStem2: 139 525 231 596 0.344756 0.938692<20.6854 79.755 98.3647 259.069>
LayerCount: 2
Fore
SplineSet
115 421 m 0
 115 422 115 422 115 423 c 1
 175 423 l 1
 175 386 213 360 262 360 c 0
 345 360 410 408 410 501 c 0
 410 559 367 588 306 588 c 0
 264 588 224 567 199 525 c 1
 139 525 l 1
 240 800 l 1
 486 800 l 1
 475 747 l 1
 286 747 l 1
 231 596 l 1
 258 627 297 641 333 641 c 0
 396 641 471 604 471 512 c 0
 471 368 352 307 252 307 c 0
 181 307 115 341 115 421 c 0
EndSplineSet
Validated: 1
EndChar

StartChar: uni2076
Encoding: 8310 8310 364
Width: 404
VWidth: 0
Flags: W
HStem: 304 53<206.653 350.705> 585 53<253.61 388.022> 757 53<284.162 417.013>
VStem: 124 54<385.034 520.696> 416 61<423.013 557.032> 440 60<688 733.009>
LayerCount: 2
Fore
SplineSet
124 455 m 0xf8
 124 484 127 518 135 557 c 0
 174 757 264 810 369 810 c 0
 432 810 500 776 500 690 c 0
 500 689 500 689 500 688 c 1
 440 688 l 1xf4
 440 725 405 757 358 757 c 0
 290 757 222 717 193 566 c 1
 226 610 283 638 345 638 c 0
 412 638 477 591 477 507 c 0
 477 377 368 304 264 304 c 0
 175 304 124 346 124 455 c 0xf8
178 444 m 0
 178 390 215 357 274 357 c 0
 347 357 416 411 416 498 c 0xf8
 416 552 378 585 319 585 c 0
 246 585 178 531 178 444 c 0
EndSplineSet
Validated: 1
EndChar

StartChar: uni2077
Encoding: 8311 8311 365
Width: 410
VWidth: -148
Flags: W
HStem: 746 54<196 443>
VStem: 163 61<313 374>
DStem2: 163 313 224 313 0.542418 0.840109<33.0875 515.644>
LayerCount: 2
Fore
SplineSet
163 313 m 1
 443 746 l 1
 185 746 l 1
 196 800 l 1
 527 800 l 1
 521 773 l 1
 224 313 l 1
 163 313 l 1
EndSplineSet
Validated: 1
EndChar

StartChar: uni2078
Encoding: 8312 8312 366
Width: 414
VWidth: 0
Flags: W
HStem: 304 53<197.75 365.311> 545 61<256.656 392.476> 757 53<278.591 423.059>
VStem: 111 62<380.943 495.846> 181 60<622.513 722.408> 418 60<405.38 520.198> 442 62<639.823 738.889>
LayerCount: 2
Fore
SplineSet
111 422 m 0xfc
 111 507 169 551 236 577 c 1
 201 595 181 622 181 659 c 0
 181 738 258 810 365 810 c 0
 456 810 504 756 504 701 c 0xfa
 504 638 459 600 407 577 c 1
 451 557 478 528 478 480 c 0
 478 377 389 304 266 304 c 0
 164 304 111 355 111 422 c 0xfc
173 431 m 0
 173 390 202 357 276 357 c 0
 365 357 418 405 418 470 c 0xfc
 418 512 387 545 313 545 c 0
 223 545 173 496 173 431 c 0
241 667 m 0
 241 634 264 606 326 606 c 0
 399 606 442 645 442 694 c 0xfa
 442 727 417 757 355 757 c 0
 282 757 241 716 241 667 c 0
EndSplineSet
Validated: 1
EndChar

StartChar: uni2079
Encoding: 8313 8313 367
Width: 404
VWidth: 0
Flags: W
HStem: 304 53<206.667 339.093> 475 53<238.12 370.164> 757 53<272.804 416.655>
VStem: 125 60<380.454 425> 148 61<556.253 692.943> 446 54<592.212 728.755>
LayerCount: 2
Fore
SplineSet
125 423 m 0xf4
 125 424 125 424 125 425 c 1
 185 425 l 1xf4
 185 388 218 357 265 357 c 0
 333 357 402 396 431 547 c 1
 398 503 340 475 278 475 c 0
 211 475 148 522 148 606 c 0xec
 148 736 255 810 359 810 c 0
 448 810 500 768 500 658 c 0
 500 629 496 596 489 557 c 0
 450 357 359 304 254 304 c 0
 191 304 125 338 125 423 c 0xf4
209 616 m 0xec
 209 562 246 528 305 528 c 0
 378 528 446 583 446 670 c 0
 446 724 408 757 349 757 c 0
 276 757 209 703 209 616 c 0xec
EndSplineSet
Validated: 1
EndChar

StartChar: ordfeminine
Encoding: 170 170 368
Width: 383
VWidth: 0
Flags: W
HStem: 262 53<98 396> 365 52<189.245 319.963> 542 53<206.565 388.225> 687 53<250.734 389.727>
VStem: 117 62<428.335 515.943> 164 60<626 686> 366 53<380 416.114> 405 61<588.281 671.549>
DStem2: 335.599 262 395.939 262 0.190809 0.981627<189.298 279.155 330.803 370.278>
LayerCount: 2
Fore
SplineSet
179 468 m 0xf8
 179 437 203 417 246 417 c 0
 328 417 374 461 384 511 c 2
 389 536 l 1
 370 539 352 542 318 542 c 0
 219 542 179 518 179 468 c 0xf8
314 595 m 0
 356 595 379 591 399 587 c 1
 403 606 l 2
 404 613 405 620 405 626 c 0
 405 668 374 687 327 687 c 0
 273 687 231 663 224 626 c 1
 164 626 l 1
 177 693 252 740 337 740 c 0
 412 740 466 704 466 636 c 0xf5
 466 627 465 617 463 607 c 2
 419 380 l 1
 366 380 l 1xf2
 369 430 l 1
 336 386 290 365 220 365 c 0
 170 365 117 393 117 452 c 0
 117 550 214 595 314 595 c 0
406 315 m 1
 396 262 l 1
 88 262 l 1
 98 315 l 1
 406 315 l 1
EndSplineSet
Validated: 1
EndChar

StartChar: Eth
Encoding: 208 208 369
Width: 720
VWidth: 0
Flags: W
HStem: 0 72<178 468.75> 324 72<97 143 241 373> 648 72<290 580.084>
VStem: 674 85<304.923 550.918>
DStem2: 80 0 164.005 0 0.190809 0.981627<89.3764 330.068 419.445 676.164>
CounterMasks: 1 e0
LayerCount: 2
Fore
SplineSet
143 324 m 1
 83 324 l 1
 97 396 l 1
 157 396 l 1
 220 720 l 1
 500 720 l 2
 669 720 759 605 759 449 c 0
 759 198 579 0 360 0 c 2
 80 0 l 1
 143 324 l 1
178 72 m 1
 370 72 l 2
 548 72 674 238 674 441 c 0
 674 561 614 648 482 648 c 2
 290 648 l 1
 241 396 l 1
 387 396 l 1
 373 324 l 1
 227 324 l 1
 178 72 l 1
EndSplineSet
Validated: 1
EndChar

StartChar: Dcroat
Encoding: 272 272 370
Width: 720
VWidth: 0
Flags: W
HStem: 0 72<178 468.75> 324 72<97 143 241 373> 648 72<290 580.084>
VStem: 674 85<304.923 550.918>
DStem2: 80 0 164.005 0 0.190809 0.981627<89.3764 330.068 419.445 676.164>
CounterMasks: 1 e0
LayerCount: 2
Fore
SplineSet
143 324 m 1
 83 324 l 1
 97 396 l 1
 157 396 l 1
 220 720 l 1
 500 720 l 2
 669 720 759 605 759 449 c 0
 759 198 579 0 360 0 c 2
 80 0 l 1
 143 324 l 1
178 72 m 1
 370 72 l 2
 548 72 674 238 674 441 c 0
 674 561 614 648 482 648 c 2
 290 648 l 1
 241 396 l 1
 387 396 l 1
 373 324 l 1
 227 324 l 1
 178 72 l 1
EndSplineSet
Validated: 1
EndChar

StartChar: eth
Encoding: 240 240 371
Width: 580
VWidth: 0
Flags: W
HStem: -20 70<221.6 384.294> 470 70<296.466 460.964> 700 20G<310 406>
VStem: 83 81<106.981 315.527> 517 82<210.217 413.528>
DStem2: 302 630 313 580 0.947066 0.321039<0 88.5426 178.097 242.609>
LayerCount: 2
Fore
SplineSet
286 -20 m 0
 166 -20 83 53 83 186 c 0
 83 401 241 540 375 540 c 0
 415 540 471 526 497 500 c 1
 491 533 462 577 425 618 c 1
 313 580 l 1
 302 630 l 1
 386 658 l 1
 360 683 333 705 310 720 c 1
 400 720 l 1
 412 712 430 699 449 680 c 1
 538 710 l 1
 548 660 l 1
 487 639 l 1
 542 572 599 472 599 345 c 0
 599 120 447 -20 286 -20 c 0
164 195 m 0
 164 98 217 50 300 50 c 0
 414 50 517 155 517 325 c 0
 517 422 464 470 381 470 c 0
 268 470 164 364 164 195 c 0
EndSplineSet
Validated: 1
EndChar

StartChar: dcroat
Encoding: 273 273 372
Width: 620
VWidth: 0
Flags: W
HStem: -20 70<224.134 381.313> 0 21G<460 543.897> 470 70<298.917 456.629> 580 70<436 573 666 713> 700 20G<596 680>
VStem: 83 82<111.578 313.844> 460 80<0 80>
DStem2: 456.112 -20 536.112 -20 0.190809 0.981627<35.6391 101.957 448.304 611.28 697.739 753.859>
LayerCount: 2
Fore
SplineSet
83 185 m 0xbe
 83 401 241 540 375 540 c 0
 475 540 531 486 542 420 c 1
 573 580 l 1
 423 580 l 1
 436 650 l 1
 586 650 l 1
 600 720 l 1
 680 720 l 1
 666 650 l 1
 726 650 l 1
 713 580 l 1
 653 580 l 1
 540 0 l 1
 460 0 l 1x7e
 476 80 l 1
 439 14 366 -20 266 -20 c 0
 164 -20 83 52 83 185 c 0xbe
165 200 m 0
 165 100 224 50 300 50 c 0xbe
 402 50 517 152 517 319 c 0
 517 420 457 470 381 470 c 0
 279 470 165 367 165 200 c 0
EndSplineSet
Validated: 1
EndChar

StartChar: Lslash
Encoding: 321 321 373
Width: 620
VWidth: 0
Flags: W
HStem: 0 72<178 600> 700 20G<216.101 304>
VStem: 220 84<636 720>
DStem2: 73 275 130 255 0.814549 0.580094<0 34.8274 205.876 361.715> 80 0 164.005 0 0.190809 0.981627<89.3764 259.855 331.05 346.096 417.481 733.485>
LayerCount: 2
Fore
SplineSet
410 515 m 1
 396 445 l 1
 227 324 l 1
 178 72 l 1
 614 72 l 1
 600 0 l 1
 80 0 l 1
 130 255 l 1
 60 205 l 1
 73 275 l 1
 143 325 l 1
 220 720 l 1
 304 720 l 1
 241 394 l 1
 410 515 l 1
EndSplineSet
Validated: 1
EndChar

StartChar: lslash
Encoding: 322 322 374
Width: 330
VWidth: 0
Flags: W
HStem: 0 21G<125 208.911> 700 20G<261.089 345>
VStem: 125 80<0 80> 265 80<640 720>
DStem2: 73 275 60 205 0.814549 0.580094<0 98.6475 263.883 361.715> 125 0 205 0 0.190809 0.981627<15.2647 297.511 368.706 380.044 451.238 733.485>
LayerCount: 2
Fore
SplineSet
60 205 m 1
 73 275 l 1
 195 362 l 1
 265 720 l 1
 345 720 l 1
 288 428 l 1
 410 515 l 1
 396 445 l 1
 275 358 l 1
 205 0 l 1
 125 0 l 1
 182 292 l 1
 60 205 l 1
EndSplineSet
Validated: 1
EndChar

StartChar: registered
Encoding: 174 174 375
Width: 860
VWidth: 0
Flags: W
HStem: -20 60<326.133 559.425> 315 55<409 513> 518 60<438 615.08> 680 60<440.575 673.867>
VStem: 112 71<178.779 415.214> 294 70<141 211> 568 72<141 213> 625 71<400.155 508.165> 817 71<304.786 541.221>
DStem2: 262.705 -20 332.705 -20 0.190809 0.981627<177.37 354.661 410.749 561.563> 582 323 513 315 0.303636 -0.952788<-1.43344 169.157>
LayerCount: 2
Fore
SplineSet
294 141 m 1xfe80
 379 578 l 1
 582 578 l 2
 636 578 696 543 696 471 c 0xfd80
 696 388 631 339 582 323 c 1
 640 141 l 1
 568 141 l 1
 513 315 l 1
 398 315 l 1
 364 141 l 1
 294 141 l 1xfe80
409 370 m 1
 542 370 l 2
 588 370 625 411 625 462 c 0
 625 494 606 518 571 518 c 2
 438 518 l 1
 409 370 l 1
574 740 m 0
 766 740 888 619 888 442 c 0
 888 170 662 -20 426 -20 c 0
 234 -20 112 101 112 278 c 0
 112 550 338 740 574 740 c 0
183 287 m 0
 183 138 282 40 438 40 c 0
 633 40 817 198 817 433 c 0
 817 582 718 680 562 680 c 0
 367 680 183 522 183 287 c 0
EndSplineSet
Validated: 1
EndChar

StartChar: uni031B
Encoding: 795 795 376
Width: 0
Flags: W
HStem: 541 70<-80.3744 19.6564> 700 20G<25 83.5>
VStem: 37 53<626.171 719.484>
LayerCount: 2
Fore
SplineSet
-35 541 m 0
 -85 541 -118 573 -128 630 c 1
 -116 689 l 1
 -89 619 -51 611 -21 611 c 0
 10 611 37 639 37 685 c 0
 37 698 32 709 25 720 c 1
 80 720 l 1
 87 709 90 696 90 681 c 0
 90 610 46 541 -35 541 c 0
EndSplineSet
Validated: 1
EndChar

StartChar: ordmasculine
Encoding: 186 186 377
Width: 400
VWidth: 0
Flags: W
HStem: 262 53<101 411> 370 60<234.637 340.029> 680 60<275.971 381.363>
VStem: 143 71<451.595 606.319> 402 71<503.681 658.405>
LayerCount: 2
Fore
SplineSet
421 315 m 1
 411 262 l 1
 91 262 l 1
 101 315 l 1
 421 315 l 1
214 516 m 0
 214 461 243 430 284 430 c 0
 341 430 402 498 402 594 c 0
 402 649 373 680 332 680 c 0
 275 680 214 612 214 516 c 0
344 740 m 0
 413 740 473 692 473 601 c 0
 473 457 361 370 272 370 c 0
 203 370 143 418 143 509 c 0
 143 653 255 740 344 740 c 0
EndSplineSet
Validated: 1
EndChar

StartChar: dotbelowcomb
Encoding: 803 803 378
Width: 0
VWidth: 0
Flags: W
HStem: -150 90<-52 11>
VStem: -69 80<-150 -70> -52 80<-140 -60>
LayerCount: 2
Fore
SplineSet
-69 -150 m 5xc0
 -52 -60 l 5
 28 -60 l 5xa0
 11 -150 l 5
 -69 -150 l 5xc0
EndSplineSet
Validated: 1
EndChar

StartChar: currency
Encoding: 164 164 379
Width: 440
VWidth: 0
Flags: W
HStem: 135 70<203.283 325.2> 425 70<237.3 359.979>
VStem: 98 81<229.377 364.634> 384 81<267.128 400.623>
DStem2: 52 165 92 115 0.766716 0.641987<0 83.2842 460.479 543.752> 170 515 110 465 0.627404 -0.778694<1.29041 68.1434 382.544 449.471>
LayerCount: 2
Fore
SplineSet
179 290 m 0
 179 242 209 205 260 205 c 0
 325 205 384 266 384 340 c 0
 384 388 354 425 303 425 c 0
 238 425 179 366 179 290 c 0
210 465 m 1
 243 484 279 495 316 495 c 0
 353 495 385 484 410 465 c 1
 470 515 l 1
 510 465 l 1
 451 415 l 1
 460 395 465 374 465 350 c 0
 465 294 443 251 412 215 c 1
 452 165 l 1
 392 115 l 1
 352 165 l 1
 319 146 283 135 246 135 c 0
 209 135 177 146 152 165 c 1
 92 115 l 1
 52 165 l 1
 112 215 l 1
 103 235 98 256 98 280 c 0
 98 338 120 379 151 415 c 1
 110 465 l 1
 170 515 l 1
 210 465 l 1
EndSplineSet
Validated: 1
EndChar

StartChar: notequal
Encoding: 8800 8800 380
Width: 520
VWidth: 0
Flags: W
HStem: -10 21G<38 131.66> 255 70<113 219 346 520> 405 70<142 321 448 549> 710 20G<528.353 622>
VStem: 38 80<-10 70> 542 80<650 730>
DStem2: 38 -10 118 -10 0.562921 0.826511<45.0337 320.914 450.261 502.309 631.655 895.33>
LayerCount: 2
Fore
SplineSet
100 255 m 1
 113 325 l 1
 266 325 l 1
 321 405 l 1
 129 405 l 1
 142 475 l 1
 368 475 l 1
 542 730 l 1
 622 730 l 1
 448 475 l 1
 562 475 l 1
 549 405 l 1
 401 405 l 1
 346 325 l 1
 533 325 l 1
 520 255 l 1
 299 255 l 1
 118 -10 l 1
 38 -10 l 1
 219 255 l 1
 100 255 l 1
EndSplineSet
Validated: 1
EndChar

StartChar: bullet
Encoding: 8226 8226 381
Width: 420
VWidth: 0
Flags: W
HStem: 230 260<229.619 330.381>
VStem: 148 264<309.613 410.387>
LayerCount: 2
Fore
SplineSet
305 490 m 16
 368 490 412 445 412 385 c 0
 412 296 332 230 255 230 c 16
 192 230 148 275 148 335 c 0
 148 424 228 490 305 490 c 16
EndSplineSet
Validated: 1
EndChar

StartChar: quotesinglbase
Encoding: 8218 8218 382
Width: 240
Flags: W
HStem: -100 190
VStem: 61 40<-100 -60> 97 80<10 90>
LayerCount: 2
Fore
SplineSet
61 -100 m 1xc0
 93 -69 112 -40 120 0 c 1
 80 0 l 1
 97 90 l 1
 177 90 l 1xa0
 160 0 l 2
 152 -40 133 -69 101 -100 c 1
 61 -100 l 1xc0
EndSplineSet
Validated: 1
EndChar

StartChar: trademark
Encoding: 8482 8482 384
Width: 1035
VWidth: -112
Flags: W
HStem: 747 53<169 318 378 538>
VStem: 235 60<320 380> 521 60<320 380> 984 60<320 380>
DStem2: 235 320 295 320 0.190809 0.981627<11.4485 434.992> 521 320 581 320 0.190809 0.981627<11.4485 363.876> 675 800 648 666 0.279291 -0.960207<121.127 433.24> 796 384 819 320 0.561112 0.82774<0 373.195> 984 320 1044 320 0.190809 0.981627<11.4485 348.501>
LayerCount: 2
Fore
SplineSet
581 320 m 1
 521 320 l 1
 615 800 l 1
 675 800 l 1
 796 384 l 1
 1078 800 l 1
 1138 800 l 1
 1044 320 l 1
 984 320 l 1
 1051 662 l 1
 819 320 l 1
 749 320 l 1
 648 666 l 1
 581 320 l 1
158 747 m 1
 169 800 l 1
 549 800 l 1
 538 747 l 1
 378 747 l 1
 295 320 l 1
 235 320 l 1
 318 747 l 1
 158 747 l 1
EndSplineSet
Validated: 1
EndChar

StartChar: minus
Encoding: 8722 8722 385
Width: 600
VWidth: 0
Flags: W
HStem: 280 70<108 614>
LayerCount: 2
Fore
SplineSet
94 280 m 1
 108 350 l 1
 628 350 l 1
 614 280 l 1
 94 280 l 1
EndSplineSet
Validated: 1
EndChar

StartChar: lessequal
Encoding: 8804 8804 386
Width: 600
VWidth: -325
Flags: W
HStem: 0 70<54 560>
DStem2: 190 360 103 325 0.91585 -0.401521<0 443.193> 117 395 190 360 0.936535 0.350575<56.0969 564.054>
LayerCount: 2
Fore
SplineSet
103 325 m 5
 117 395 l 5
 678 605 l 5
 665 540 l 5
 190 360 l 5
 595 180 l 5
 582 115 l 5
 103 325 l 5
40 0 m 1
 54 70 l 1
 574 70 l 1
 560 0 l 1
 40 0 l 1
EndSplineSet
Validated: 1
EndChar

StartChar: greaterequal
Encoding: 8805 8805 387
Width: 600
VWidth: -325
Flags: W
HStem: 0 70<54 560>
DStem2: 75 180 62 115 0.936535 0.350575<0 507.957> 158 605 145 540 0.91585 -0.401521<14.1928 457.386>
LayerCount: 2
Fore
SplineSet
623 325 m 5
 62 115 l 5
 75 180 l 5
 550 360 l 5
 145 540 l 5
 158 605 l 5
 637 395 l 5
 623 325 l 5
560 0 m 5
 40 0 l 5
 54 70 l 5
 574 70 l 5
 560 0 l 5
EndSplineSet
Validated: 1
EndChar

StartChar: onequarter
Encoding: 188 188 388
Width: 833
VWidth: 0
Flags: W
HStem: 0 21G<680 743.962> 106 54<544 701 771 828>
VStem: 275 60<320 380> 680 60<0 60>
DStem2: 212.798 0 272.798 0 0.190809 0.981627<337.438 736.659> 217 85 261 55 0.672607 0.74<7.39471 756.084> 219 713 207 653 0.903134 0.429359<0 126.217> 475 152 544 160 0.683349 0.730092<52.9918 360.719> 680 0 740 0 0.190809 0.981627<11.4485 108.059 174.424 391.256>
LayerCount: 2
Fore
SplineSet
544 160 m 1
 711 160 l 1
 755 384 l 1
 544 160 l 1
466 106 m 1
 475 152 l 1
 782 480 l 1
 833 480 l 1
 771 160 l 1
 838 160 l 1
 828 106 l 1
 761 106 l 1
 740 0 l 1
 680 0 l 1
 701 106 l 1
 466 106 l 1
207 653 m 1
 219 713 l 1
 402 800 l 1
 429 800 l 1
 335 320 l 1
 275 320 l 1
 354 723 l 1
 207 653 l 1
217 85 m 1
 725 645 l 1
 770 615 l 1
 261 55 l 1
 217 85 l 1
EndSplineSet
Validated: 1
EndChar

StartChar: onehalf
Encoding: 189 189 389
Width: 936
VWidth: 0
Flags: W
HStem: 0 53<689 910> 440 53<745.046 879.465>
VStem: 275 60<320 380> 628 60<330 390> 904 60<279.827 415.464>
DStem2: 212.798 0 272.798 0 0.190809 0.981627<337.438 736.659> 217 85 261 55 0.672607 0.74<7.39471 756.084> 219 713 207 653 0.903134 0.429359<0 126.217> 589 49 689 53 0.823588 0.567188<84.6276 366.133>
LayerCount: 2
Fore
SplineSet
628 330 m 1
 646 425 722 493 826 493 c 0
 916 493 964 436 964 364 c 0
 964 248 897 195 786 119 c 2
 689 53 l 1
 920 53 l 1
 910 0 l 1
 579 0 l 1
 589 49 l 1
 801 195 l 2
 862 237 904 292 904 358 c 0
 904 408 873 440 816 440 c 0
 749 440 700 394 688 330 c 1
 628 330 l 1
207 653 m 1
 219 713 l 1
 402 800 l 1
 429 800 l 1
 335 320 l 1
 275 320 l 1
 354 723 l 1
 207 653 l 1
217 85 m 1
 725 645 l 1
 770 615 l 1
 261 55 l 1
 217 85 l 1
EndSplineSet
Validated: 1
EndChar

StartChar: threequarters
Encoding: 190 190 390
Width: 833
VWidth: 0
Flags: W
HStem: 0 21G<680 743.962> 106 54<544 701 771 828> 304 53<197.612 366.083> 536 54<281 389.253> 757 53<283.439 419.232>
VStem: 111 60<382.085 445> 180 60<671 731> 417 61<404.825 510.168> 440 61<628.743 736.809> 680 60<0 60>
DStem2: 217 85 261 55 0.672607 0.74<7.39471 756.084> 475 152 544 160 0.683349 0.730092<52.9918 360.719> 680 0 740 0 0.190809 0.981627<11.4485 108.059 174.424 391.256>
LayerCount: 2
Fore
SplineSet
544 160 m 1xfe40
 711 160 l 1
 755 384 l 1
 544 160 l 1xfe40
466 106 m 1
 475 152 l 1
 782 480 l 1
 833 480 l 1
 771 160 l 1
 838 160 l 1
 828 106 l 1
 761 106 l 1
 740 0 l 1
 680 0 l 1
 701 106 l 1
 466 106 l 1
113 445 m 1
 173 445 l 1
 172 440 171 434 171 429 c 0
 171 387 208 357 277 357 c 0
 361 357 417 399 417 465 c 0xff40
 417 510 381 536 270 536 c 1
 281 590 l 1
 396 590 440 627 440 690 c 0
 440 727 410 757 355 757 c 0
 292 757 249 717 240 671 c 1
 180 671 l 1
 194 741 264 810 365 810 c 0
 455 810 501 758 501 699 c 0xfec0
 501 637 459 589 405 565 c 1
 449 545 478 519 478 472 c 0xff40
 478 377 390 304 267 304 c 0
 163 304 111 358 111 422 c 0
 111 430 112 437 113 445 c 1
217 85 m 1
 725 645 l 1
 770 615 l 1
 261 55 l 1
 217 85 l 1
EndSplineSet
Validated: 1
EndChar

StartChar: dagger
Encoding: 8224 8224 391
Width: 440
VWidth: 0
Flags: W
HStem: 450 70<121 267 361 507> 700 20G<316.1 400>
VStem: 157 80<-120 -40> 320 80<640 720>
DStem2: 157 -120 237 -120 0.190809 0.981627<15.2647 580.516 667.166 855.669>
LayerCount: 2
Fore
SplineSet
320 720 m 1
 400 720 l 1
 361 520 l 1
 521 520 l 1
 507 450 l 1
 347 450 l 1
 237 -120 l 1
 157 -120 l 1
 267 450 l 1
 107 450 l 1
 121 520 l 1
 281 520 l 1
 320 720 l 1
EndSplineSet
Validated: 1
EndChar

StartChar: daggerdbl
Encoding: 8225 8225 392
Width: 440
VWidth: 0
Flags: W
HStem: 80 70<54 196 289 441> 450 70<121 267 361 507> 700 20G<316.1 400>
VStem: 157 80<-120 -40> 320 80<640 720>
DStem2: 157 -120 237 -120 0.190809 0.981627<15.2647 203.767 290.226 580.516 667.166 855.669>
LayerCount: 2
Fore
SplineSet
320 720 m 1
 400 720 l 1
 361 520 l 1
 521 520 l 1
 507 450 l 1
 347 450 l 1
 289 150 l 5
 454 150 l 5
 441 80 l 5
 276 80 l 5
 237 -120 l 1
 157 -120 l 1
 196 80 l 5
 41 80 l 5
 54 150 l 5
 209 150 l 5
 267 450 l 1
 107 450 l 1
 121 520 l 1
 281 520 l 1
 320 720 l 1
EndSplineSet
Validated: 1
EndChar

StartChar: partialdiff
Encoding: 8706 8706 393
Width: 580
VWidth: 0
Flags: W
HStem: -20 70<221.6 384.66> 470 70<296.466 460.964> 700 20G<310 451.5>
VStem: 83 81<106.981 315.527> 517 82<212.66 413.375>
LayerCount: 2
Fore
SplineSet
286 -20 m 0
 166 -20 83 53 83 186 c 0
 83 401 241 540 375 540 c 0
 415 540 471 526 497 500 c 1
 484 575 375 677 310 720 c 1
 400 720 l 1
 503 654 599 522 599 351 c 0
 599 124 450 -20 286 -20 c 0
164 195 m 0
 164 98 217 50 300 50 c 0
 413 50 517 156 517 325 c 0
 517 422 464 470 381 470 c 0
 268 470 164 364 164 195 c 0
EndSplineSet
Validated: 1
EndChar

StartChar: summation
Encoding: 8721 8721 394
Width: 620
VWidth: 0
Flags: W
HStem: -200 72<149 561> 648 72<300 726>
DStem2: 55 -128 149 -128 0.643285 0.765627<60.4688 506.774> 300 648 206 648 0.411146 -0.911569<0 386.992>
LayerCount: 2
Fore
SplineSet
149 -128 m 5
 575 -128 l 5
 561 -200 l 5
 41 -200 l 5
 55 -128 l 5
 381 260 l 1
 206 648 l 1
 220 720 l 1
 740 720 l 1
 726 648 l 1
 300 648 l 1
 475 260 l 1
 149 -128 l 5
EndSplineSet
Validated: 1
EndChar

StartChar: product
Encoding: 8719 8719 395
Width: 720
VWidth: 0
Flags: W
HStem: -200 21G<41 128.892 517 604.891> 648 72<290 682>
VStem: 41 84<-200 -116> 220 560<160 720> 517 84<-200 -116>
DStem2: 41 -200 125 -200 0.190809 0.981627<16.028 879.931> 517 -200 601 -200 0.190809 0.981627<16.028 863.903>
LayerCount: 2
Fore
SplineSet
41 -200 m 1xe8
 220 720 l 1
 780 720 l 1xf0
 601 -200 l 1
 517 -200 l 1
 682 648 l 1
 290 648 l 1
 125 -200 l 1
 41 -200 l 1xe8
EndSplineSet
Validated: 1
EndChar

StartChar: pi
Encoding: 960 960 396
Width: 570
VWidth: 0
Flags: W
HStem: 0 21G<80 163.867 410 493.867> 450 70<121 167 247 497 577 637>
VStem: 80 80<0 80> 410 80<0 80>
DStem2: 80 0 160 0 0.190809 0.981627<15.2647 458.333> 410 0 490 0 0.190809 0.981627<15.2647 458.333>
LayerCount: 2
Fore
SplineSet
121 520 m 1
 651 520 l 1
 637 450 l 1
 577 450 l 1
 490 0 l 1
 410 0 l 1
 497 450 l 1
 247 450 l 1
 160 0 l 1
 80 0 l 1
 167 450 l 1
 107 450 l 1
 121 520 l 1
EndSplineSet
Validated: 1
EndChar

StartChar: integral
Encoding: 8747 8747 397
Width: 320
VWidth: 0
Flags: W
HStem: -240 70<-14.0597 78.4502> 690 70<341.95 434.964>
DStem2: 72.9553 -240 152.955 -240 0.190809 0.981627<77.3432 955.538>
LayerCount: 2
Fore
SplineSet
235 590 m 2
 262 730 318 760 378 760 c 0
 408 760 436 754 446 750 c 1
 433 685 l 1
 414 688 404 690 384 690 c 0
 344 690 329 660 315 590 c 2
 186 -70 l 2
 163 -190 123 -240 43 -240 c 4
 3 -240 -7 -237 -25 -230 c 1
 -12 -165 l 1
 7 -168 17 -170 37 -170 c 0
 77 -170 92 -140 106 -70 c 2
 235 590 l 2
EndSplineSet
Validated: 1
EndChar

StartChar: Omega
Encoding: 8486 8486 398
Width: 760
VWidth: 0
Flags: W
HStem: 0 70<34 194 288.868 340 434 501.755 594 740> 670 70<403.356 609.761>
VStem: 102 80<177.083 423.188> 719 82<316.628 557.442>
LayerCount: 2
Fore
SplineSet
801 462 m 0
 801 281 704 127 594 70 c 1
 754 70 l 1
 740 0 l 1
 420 0 l 1
 434 70 l 1
 581 95 719 226 719 449 c 0
 719 593 636 670 510 670 c 0
 347 670 182 521 182 281 c 0
 182 155 254 88 354 70 c 1
 340 0 l 1
 20 0 l 1
 34 70 l 1
 194 70 l 1
 138 106 102 186 102 282 c 0
 102 575 326 740 524 740 c 0
 686 740 801 645 801 462 c 0
EndSplineSet
Validated: 1
EndChar

StartChar: radical
Encoding: 8730 8730 399
Width: 660
VWidth: 0
Flags: W
HStem: 0 21G<272.756 395> 450 70<121 203> 700 20G<685.065 780>
DStem2: 275 520 203 450 0.160129 -0.987096<57.5674 447.506> 345 78 384 0 0.481919 0.876216<0 731.684>
LayerCount: 2
Fore
SplineSet
275 520 m 1
 345 78 l 1
 696 720 l 1
 780 720 l 1
 384 0 l 1
 276 0 l 1
 203 450 l 9
 107 450 l 25
 121 520 l 25
 275 520 l 1
EndSplineSet
Validated: 1
EndChar

StartChar: approxequal
Encoding: 8776 8776 400
Width: 450
VWidth: 0
Flags: W
HStem: 175 50<320.291 397.686> 260 50<146.517 225.089> 325 50<349.695 426.686> 410 50<175.517 254.258>
VStem: 74 50<175 225> 103 50<325 375> 420 50<260 310> 449 50<410 460>
LayerCount: 2
Fore
SplineSet
103 325 m 1xf5
 119 405 159 460 219 460 c 0
 249 460 278 454 320 420 c 0
 362 386 378 375 393 375 c 0
 413 375 435 390 449 460 c 1
 499 460 l 1
 483 380 443 325 383 325 c 0
 353 325 326 331 284 365 c 0
 242 399 225 410 210 410 c 0
 190 410 167 395 153 325 c 1
 103 325 l 1xf5
74 175 m 1xfa
 90 255 130 310 190 310 c 0
 220 310 248 304 290 270 c 0
 332 236 349 225 364 225 c 0
 384 225 406 240 420 310 c 1
 470 310 l 1
 454 230 414 175 354 175 c 0
 324 175 297 181 255 215 c 0
 213 249 196 260 181 260 c 0
 161 260 138 245 124 175 c 1
 74 175 l 1xfa
EndSplineSet
Validated: 1
EndChar

StartChar: lozenge
Encoding: 9674 9674 401
Width: 400
VWidth: 0
Flags: W
HStem: 0 21G<142.778 265> 700 20G<275 397.222>
DStem2: 170 360 88 360 0.15906 -0.987269<0 285.568> 88 360 170 360 0.481919 0.876216<39.5173 361.308> 215 78 254 0 0.481919 0.876216<0 321.79> 394 720 325 642 0.15906 -0.987269<66.0318 351.599>
LayerCount: 2
Fore
SplineSet
88 360 m 1
 286 720 l 1
 394 720 l 1
 452 360 l 1
 254 0 l 1
 146 0 l 1
 88 360 l 1
370 360 m 1
 325 642 l 1
 170 360 l 1
 215 78 l 1
 370 360 l 1
EndSplineSet
Validated: 1
EndChar

StartChar: infinity
Encoding: 8734 8734 402
Width: 530
VWidth: 0
Flags: W
HStem: 260 60<192.611 280.85 382.4 469.492> 460 60<210.447 299.442 400.888 489.198>
VStem: 113 71<327.949 432.799> 308 66<347.961 432.355> 498 70<348.914 451.724>
LayerCount: 2
Fore
SplineSet
259 460 m 0
 226 460 184 427 184 373 c 0
 184 339 206 320 232 320 c 0
 265 320 308 353 308 407 c 0
 308 441 285 460 259 460 c 0
271 520 m 0
 309 520 339 504 358 479 c 1
 387 504 423 520 461 520 c 0
 524 520 568 475 568 415 c 0
 568 327 488 260 411 260 c 0
 373 260 343 276 324 301 c 1
 295 276 259 260 221 260 c 0
 158 260 113 305 113 365 c 0
 113 453 194 520 271 520 c 0
449 460 m 0
 416 460 374 427 374 373 c 0
 374 339 396 320 422 320 c 0
 455 320 498 353 498 407 c 0
 498 441 475 460 449 460 c 0
EndSplineSet
Validated: 1
EndChar

StartChar: lscript
Encoding: 8467 8467 403
Width: 260
VWidth: 0
Flags: W
HStem: -20 70<155.52 258.639> 700 20G<216.105 300>
VStem: 100 82<53.1501 212.344> 220 80<640 720>
DStem2: 75.9553 -20 155.955 -20 0.190809 0.981627<132.833 753.889>
LayerCount: 2
Fore
SplineSet
220 720 m 1
 300 720 l 1
 189 150 l 2
 185 127 182 109 182 94 c 0
 182 64 193 50 220 50 c 0
 240 50 250 52 271 55 c 1
 258 -10 l 1
 238 -17 226 -20 186 -20 c 0
 126 -20 100 7 100 71 c 0
 100 93 103 119 109 150 c 2
 220 720 l 1
EndSplineSet
Validated: 1
EndChar

StartChar: uni20BA
Encoding: 8378 8378 404
Width: 600
VWidth: 0
Flags: W
HStem: 0 72<178 291.716> 250 70<82 129 226 369> 400 70<111 158 255 398> 700 20G<216.08 304>
VStem: 220 84<636 720>
DStem2: 80 0 164.005 0 0.190809 0.981627<89.3764 254.756 341.979 407.534 494.756 733.485>
LayerCount: 2
Fore
SplineSet
69 250 m 1
 82 320 l 1
 142 320 l 1
 158 400 l 1
 98 400 l 1
 111 470 l 1
 171 470 l 1
 220 720 l 1
 304 720 l 1
 255 470 l 1
 411 470 l 1
 398 400 l 1
 242 400 l 1
 226 320 l 1
 382 320 l 1
 369 250 l 1
 213 250 l 1
 178 72 l 1
 358 72 515 214 570 362 c 1
 650 360 l 1
 577 163 404 0 164 0 c 2
 80 0 l 1
 129 250 l 1
 69 250 l 1
EndSplineSet
Validated: 1
EndChar

StartChar: uni20BD
Encoding: 8381 8381 405
Width: 650
VWidth: 0
Flags: W
HStem: 0 21G<100 187.875> 160 72<65 131 229 431> 310 72<94 160 258 549.543> 648 72<310 593.79>
VStem: 100 84<0 84> 629 87<463.832 615.535>
DStem2: 100 0 184 0 0.190809 0.981627<16.028 162.975 252.352 315.753 405.129 676.164>
LayerCount: 2
Fore
SplineSet
445 232 m 1
 431 160 l 1
 215 160 l 1
 184 0 l 1
 100 0 l 1
 131 160 l 1
 51 160 l 1
 65 232 l 1
 145 232 l 1
 160 310 l 1
 80 310 l 1
 94 382 l 1
 174 382 l 1
 240 720 l 1
 550 720 l 2
 637 720 716 678 716 569 c 0
 716 390 580 310 470 310 c 2
 244 310 l 1
 229 232 l 1
 445 232 l 1
480 382 m 2
 557 382 629 449 629 548 c 0
 629 609 592 648 532 648 c 2
 310 648 l 1
 258 382 l 1
 480 382 l 2
EndSplineSet
Validated: 1
EndChar

StartChar: uni02F8
Encoding: 760 760 406
Width: 240
Flags: W
HStem: 100 90<117 179> 530 90<201 263>
VStem: 99 80<100 180> 117 80<110 190> 183 80<530 610> 201 80<540 620>
DStem2: 99 100 179 100 0.190809 0.981627<15.2647 91.781 453.392 529.909>
LayerCount: 2
Fore
SplineSet
183 530 m 1xc8
 201 620 l 1
 281 620 l 1xc4
 263 530 l 1
 183 530 l 1xc8
99 100 m 1xe0
 117 190 l 1
 197 190 l 1xd0
 179 100 l 1
 99 100 l 1xe0
EndSplineSet
Validated: 1
EndChar
